<svg xmlns="http://www.w3.org/2000/svg" width="183" height="50.948" viewBox="0 0 183 50.948"><g transform="translate(-1480 -1406)"><text transform="translate(1480 1435)" fill="#969696" font-size="14" font-family="SegoeUI, Segoe UI"><tspan x="0" y="0">a</tspan></text><g transform="translate(1454.006 1105.83)"><path d="M45.234,318.78c-.026-.1,0-.2-.028-.3s0-.2-.028-.3l-.078-.29c-.026-.1,0-.2-.028-.3.024-.108-.052-.195-.078-.292.024-.109,0-.206.022-.315-.027-.1.048-.217.072-.326a.62.62,0,0,0-.028-.306c.024-.109-.053-.2-.028-.307s.112-.18.137-.29,0-.21.035-.27c.025-.111,0-.21.023-.321a1.108,1.108,0,0,1,.087-.283l.074-.334c.025-.111.063-.173.088-.285s.115-.184.14-.3l.152-.247a1.133,1.133,0,0,1,.089-.288.859.859,0,0,0,.141-.3c.09-.073.064-.176.142-.3a1.113,1.113,0,0,1,.219-.21c.039-.063.052-.229.143-.3.039-.062.195-.1.221-.211.091-.075.13-.138.222-.213a.906.906,0,0,1,.209-.264c.092-.075.131-.139.223-.214s.119-.191.211-.266.132-.14.225-.215.2-.1.291-.175a.774.774,0,0,1,.16-.257l.279-.228.318-.07c.094-.077.121-.2.215-.271a.762.762,0,0,0,.294-.177c.107-.024.226.006.333-.017.094-.077.176-.208.283-.232s.2-.1.309-.124a.8.8,0,0,0,.3-.178l.322-.072a.7.7,0,0,1,.31-.125l.323-.072c.108-.024.2-.1.312-.125s.228.006.336-.018l.324-.072.325-.072c.109-.024.229.006.338-.018s.205-.1.325-.073l.327-.072c.109-.024.229.006.338-.018a.775.775,0,0,1,.349.036l.328-.073a.715.715,0,0,0,.339-.018l.361.091.329-.073c.12.03.23.006.3.048a.778.778,0,0,0,.35.036c.121.031.252.115.307.1l.361.09a1.155,1.155,0,0,0,.306.1.931.931,0,0,1,.361.09c.065.043.176.018.3.049s.151.192.271.222a1.225,1.225,0,0,1,.305.1,1.179,1.179,0,0,1,.306.1l.325.21c.065.042.084.149.214.233a115.733,115.733,0,0,0,.518.335,1.11,1.11,0,0,0,.268.22c.074.1.093.2.167.3a.529.529,0,0,1,.312.155c.074.1.093.2.167.3.018.106.192.124.265.218.065.042.037.212.111.306.064.042.192.124.21.23a1.149,1.149,0,0,0,.21.229c.018.1.091.2.109.3.072.093.045.262.108.3.018.1.146.186.218.279l.053.312c.072.093.09.2.162.289.018.1.09.2.107.3a.612.612,0,0,1,.107.3l.052.308a.616.616,0,0,0,.107.3l.052.306c.017.1.088.193.1.294s-.019.215,0,.316c.071.09.034.2,0,.314a.936.936,0,0,1-.172.295,1.218,1.218,0,0,1-.242.2c-.152.083-.09.122-.242.2s-.213.043-.374.075c-.1.071-.151.082-.249.153-.151.082-.142.131-.292.213a.743.743,0,0,0-.31.113,1.572,1.572,0,0,0-.247.152l-.3.162c-.159.032-.168-.018-.317.063l-.3.162c-.149.081-.14.13-.289.21s-.157.031-.253.1l-.3.161c-.148.08-.158.031-.305.111s-.138.129-.285.208-.157.031-.313.062a.807.807,0,0,1-.346.169l-.342-.084a.756.756,0,0,1-.319-.241.7.7,0,0,1-.122-.332l-.06-.294c-.072-.088.012-.207-.008-.306l-.217-.265-.061-.3c-.02-.1-.093-.187-.113-.287l-.062-.3c-.073-.089-.04-.2-.114-.289s-.093-.19-.167-.279a1.059,1.059,0,0,0-.21-.219l-.22-.27c-.074-.09-.1-.191-.169-.281a1.176,1.176,0,0,1-.3-.1c-.127-.079-.2-.17-.317-.2-.064-.04-.222-.007-.339-.036-.052.011-.179-.068-.3-.1a.784.784,0,0,0-.338-.036l-.315.066c-.106.022-.222-.007-.327.015s-.2.094-.3.116l-.314.065c-.094.072-.175.2-.269.267-.1.022-.145.083-.238.155a1.121,1.121,0,0,0-.226.2c-.093.071-.2.093-.278.214a1.115,1.115,0,0,0-.1.282c-.041.061-.185.143-.213.253a1.082,1.082,0,0,0-.1.28c-.028.11.047.2.018.307a.679.679,0,0,0-.034.317.613.613,0,0,0,.018.3l.068.294a.605.605,0,0,0,.018.3l.068.292c.023.1.1.184.119.281s-.005.2.068.29a1.969,1.969,0,0,0,.108.231c.073.086.2.162.219.259.074.085.136.123.158.219a.7.7,0,0,1,.168.267c.073.086.1.181.168.267a1.065,1.065,0,0,1,.207.208c.073.085.134.123.207.207s.134.123.206.208.185.112.257.2a1.1,1.1,0,0,1,.206.206c.072.085.133.122.205.207a.9.9,0,0,0,.255.2,1.063,1.063,0,0,1,.2.205l.244.149a.787.787,0,0,0,.244.148c.071.084.183.111.254.2a.773.773,0,0,1,.243.148c.111.027.142.167.2.2.122.073.223.054.344.128.061.037.091.176.2.2l.242.147a.5.5,0,0,1,.251.194.774.774,0,0,1,.241.146c.07.083.181.11.251.193a.779.779,0,0,1,.24.146c.07.082.181.11.25.192a1.143,1.143,0,0,1,.281.091.917.917,0,0,0,.29.136,1.05,1.05,0,0,0,.2.2c.119.073.229.1.289.136.069.082.179.109.248.191.11.027.128.118.2.2a.518.518,0,0,1,.289.136.786.786,0,0,1,.238.144c.068.082.178.109.246.19.059.036.169.063.288.135l.237.144a.964.964,0,0,0,.195.2.849.849,0,0,1,.245.189c.058.036.168.062.286.134a.742.742,0,0,1,.235.144c.11.026.135.161.244.187a.828.828,0,0,0,.244.188.729.729,0,0,1,.234.142c.059.036.126.116.243.187.059.036.075.125.142.205.117.071.217.053.284.133s.082.168.149.248a.734.734,0,0,1,.233.141c.066.08.175.106.241.186a1,1,0,0,0,.19.194l.2.237c.066.079.124.114.19.193a1.03,1.03,0,0,1,.239.184c.058.035.031.175.1.253.015.087.123.113.188.192s.123.113.188.191l.195.235a.486.486,0,0,0,.1.25c.057.035.072.122.137.2a.551.551,0,0,0,.144.241c.014.086.079.164.093.249a.482.482,0,0,1,.094.249c.064.076.079.162.143.239.014.085.071.119.086.2a.552.552,0,0,1,.142.238c.064.077-.021.177.043.254.014.084.078.16.092.245l.043.252c.014.084.127.152.141.236l.042.251c.063.075.028.167.042.25l.042.249.042.249a.449.449,0,0,1-.008.256l.042.247c-.035.09.028.165.042.247a.543.543,0,0,1-.056.261c.013.082-.07.179-.057.26a.443.443,0,0,1-.007.252.512.512,0,0,1-.056.259c-.034.089.028.162-.007.25a.445.445,0,0,0-.006.25.9.9,0,0,0-.159.231.447.447,0,0,1-.007.248c-.034.087-.076.135-.11.222a.833.833,0,0,1-.11.222l-.1.26c-.034.087-.075.134-.109.22l-.163.187a.74.74,0,0,0-.156.227.85.85,0,0,1-.107.218c-.081.093-.169.146-.21.193a.788.788,0,0,1-.107.216.445.445,0,0,1-.208.192c-.033.085-.121.138-.16.184-.088.053-.121.138-.208.191s-.119.137-.206.19a1.1,1.1,0,0,1-.214.151c-.039.045-.064.168-.151.22s-.187.028-.274.08a1.067,1.067,0,0,0-.211.15.981.981,0,0,0-.2.188c-.086.052-.179.066-.265.118-.093.014-.125.1-.21.149l-.256.155a.7.7,0,0,0-.27.079c-.086.052-.186.028-.271.079-.092.014-.177.066-.269.079a1.025,1.025,0,0,1-.208.148c-.092.013-.177.064-.269.078s-.176.065-.268.079l-.276.04c-.084.052-.183.027-.267.079-.092.013-.192-.011-.283,0a.712.712,0,0,1-.259.115l-.274.041c-.092.013-.191-.011-.283,0l-.273.04a.664.664,0,0,0-.274.041c-.091.013-.19-.011-.281,0a.722.722,0,0,1-.282,0c-.091.013-.173.064-.264.077a.776.776,0,0,1-.289-.034.8.8,0,0,1-.29-.034l-.271.04a.717.717,0,0,0-.281,0c-.1-.024-.153-.054-.252-.078s-.181.027-.28,0l-.3-.071A.43.43,0,0,1,55.4,341l-.3-.071a1.328,1.328,0,0,0-.244-.041,1.154,1.154,0,0,1-.253-.079c-.1-.023-.19-.01-.289-.034a1.108,1.108,0,0,1-.262-.115.888.888,0,0,1-.263-.116.747.747,0,0,0-.218-.122l-.218-.123c-.1-.024-.164-.092-.263-.116-.064-.068-.119-.1-.183-.167-.11-.061-.209-.085-.264-.116-.065-.068-.084-.144-.194-.206-.055-.031-.119-.1-.174-.13l-.195-.206c-.064-.069-.165-.093-.23-.162a.975.975,0,0,1-.185-.169c-.065-.069-.085-.145-.15-.214-.055-.031-.076-.107-.141-.177a.466.466,0,0,1-.106-.222c-.066-.07-.166-.094-.232-.163a.467.467,0,0,0-.106-.224.579.579,0,0,0-.152-.216c-.021-.078,0-.162-.062-.232-.021-.077-.132-.14-.153-.218-.066-.07-.041-.155-.108-.226-.021-.077-.087-.148-.108-.226-.066-.07-.042-.156-.108-.227l-.063-.234c-.021-.079-.088-.15-.109-.228s0-.165-.018-.244-.134-.143-.155-.222-.007-.2-.028-.284a.788.788,0,0,1,.13-.229.865.865,0,0,1,.234-.2.64.64,0,0,0,.266-.086c.127-.062.138-.022.266-.085l.256-.126c.129-.063.139-.023.268-.086a.375.375,0,0,1,.221-.078c.129-.063.119-.1.248-.166a.449.449,0,0,1,.222-.079l.259-.127c.13-.063.14-.023.27-.086a.644.644,0,0,1,.27-.087c.13-.064.073-.1.214-.12.13-.064.12-.105.251-.169a.582.582,0,0,1,.225-.079c.131-.064.121-.105.262-.128L54,333.4a.89.89,0,0,1,.32-.1,1.107,1.107,0,0,1,.322.117.479.479,0,0,1,.456.475c.019.081-.057.178-.037.259l.057.243c.019.081.085.154.1.235l.057.241c.018.081.084.153.1.234l.2.217a.473.473,0,0,0,.1.232.56.56,0,0,0,.149.224c.065.072.121.1.186.176s.084.152.149.223.2.05.27.122a.744.744,0,0,0,.223.128c.064.072.158.057.269.121.1.025.158.057.26.081.093-.015.2.01.289-.005a.783.783,0,0,0,.3.035.808.808,0,0,0,.3.035l.281-.045.281-.044a.737.737,0,0,0,.264-.123.679.679,0,0,0,.274-.085.857.857,0,0,1,.219-.116.973.973,0,0,0,.2-.2.8.8,0,0,0,.2-.2c.039-.048.125-.1.156-.19a.774.774,0,0,0,.2-.2c.031-.088.014-.169.045-.256a.82.82,0,0,0,.1-.225.451.451,0,0,0,0-.25.521.521,0,0,0,.046-.259l-.05-.244a.462.462,0,0,0,0-.253c-.017-.081-.082-.155-.1-.237l-.051-.246a.471.471,0,0,0-.1-.24c-.017-.082-.13-.149-.195-.223-.017-.083-.082-.158-.1-.241a.479.479,0,0,1-.1-.24c-.065-.076-.122-.109-.188-.184a1.006,1.006,0,0,0-.236-.177c-.066-.075-.083-.158-.149-.234s-.084-.159-.149-.235a.47.47,0,0,1-.238-.177.741.741,0,0,1-.229-.136c-.115-.067-.133-.152-.239-.177-.066-.076-.084-.161-.151-.237s-.172-.1-.239-.179c-.057-.034-.212-.051-.279-.128a.758.758,0,0,0-.23-.136,103.476,103.476,0,0,0-.384-.375.52.52,0,0,0-.28-.129.758.758,0,0,0-.232-.137,1.018,1.018,0,0,0-.193-.189c-.068-.077-.175-.1-.243-.18a.771.771,0,0,1-.232-.138.517.517,0,0,0-.282-.13.993.993,0,0,0-.195-.189c-.068-.078-.165-.061-.282-.13a1.039,1.039,0,0,1-.2-.191,1.227,1.227,0,0,1-.273-.086c-.107-.027-.137-.157-.206-.235a.944.944,0,0,1-.284-.13,1.155,1.155,0,0,0-.273-.087c-.059-.035-.09-.166-.2-.192a.879.879,0,0,0-.246-.183.767.767,0,0,1-.236-.14.753.753,0,0,1-.236-.14,1.175,1.175,0,0,1-.275-.087c-.118-.071-.188-.149-.248-.184L52.1,327.2c-.07-.079-.178-.105-.248-.185-.059-.035-.129-.114-.248-.184-.06-.036-.13-.115-.19-.15-.119-.071-.227-.1-.287-.133a.531.531,0,0,0-.287-.132c-.071-.08-.093-.169-.153-.2-.119-.071-.19-.151-.25-.186a.8.8,0,0,0-.24-.142.926.926,0,0,1-.251-.187.791.791,0,0,1-.24-.142c-.071-.08-.18-.107-.252-.188s-.1-.169-.166-.25c-.06-.036-.218-.054-.29-.134s-.095-.171-.167-.252a1.1,1.1,0,0,1-.254-.189,1.058,1.058,0,0,1-.205-.2,1.121,1.121,0,0,1-.206-.2c-.073-.082-.133-.118-.206-.2a1.108,1.108,0,0,0-.206-.2.68.68,0,0,1-.17-.254c-.073-.082-.1-.174-.17-.256-.061-.036-.184-.109-.208-.2-.073-.082-.134-.118-.208-.2-.024-.092-.061-.23-.122-.266a.7.7,0,0,0-.173-.258.69.69,0,0,0-.172-.259.706.706,0,0,0-.173-.259c-.012-.046,0-.2-.025-.289-.075-.084-.186-.111-.211-.2a.607.607,0,0,0-.125-.271l-.075-.282c-.026-.094-.15-.168-.175-.263s0-.2-.027-.293c-.075-.084-.051-.189-.126-.274-.025-.1-.1-.18-.126-.275l-.077-.286c-.026-.1,0-.2-.028-.3S45.26,318.876,45.234,318.78Z" fill="#969696"/><path d="M70.7,338.9a186.915,186.915,0,0,1-.431-.255.5.5,0,0,1-.131-.22l-.034-.236c-.018-.117.079-.132.062-.25s-.066-.111-.083-.23.031-.126.014-.245-.066-.111-.084-.23l-.035-.239c-.017-.12-.066-.113-.083-.232s.031-.128.013-.248-.066-.113-.084-.233.031-.129.014-.25l-.036-.242c-.018-.122-.067-.114-.084-.235l-.036-.244c-.018-.122.031-.13.013-.253l-.036-.245c-.018-.123-.067-.115-.085-.238s.081-.139.063-.262-.068-.116-.086-.24l-.036-.248c-.018-.124.031-.132.013-.257s-.068-.117-.086-.242l-.037-.25c-.018-.126.032-.134.014-.259l-.037-.252c-.019-.126-.069-.118-.087-.245l-.037-.253-.037-.254c-.019-.128-.069-.119-.088-.247s.032-.136.013-.264.032-.136.013-.265l-.038-.257-.031-.215c-.019-.129-.12-.112-.139-.242s.082-.146.063-.276-.12-.113-.139-.243.031-.139.012-.27l-.038-.262-.038-.262-.039-.264c-.019-.132-.07-.123-.09-.255s.032-.142.013-.274.032-.142.012-.275-.071-.124-.09-.258-.071-.125-.091-.258.084-.152.064-.287-.123-.116-.142-.251.031-.144.012-.279l-.04-.271-.04-.271-.04-.273c-.019-.136.032-.146.012-.283s-.124-.118-.144-.255l-.04-.275c-.02-.138.032-.148.012-.285s-.073-.13-.093-.268l-.041-.277-.04-.279c-.021-.14.032-.149.011-.289s.032-.15.012-.29-.073-.131-.094-.272l-.041-.282c-.021-.141-.074-.131-.094-.273s.032-.151.011-.294l-.042-.284-.042-.286-.041-.287c-.021-.143.032-.153.011-.3l-.042-.289c-.022-.144-.128-.124-.149-.269s.085-.165.064-.31l-.043-.292c-.021-.146-.128-.125-.149-.271s.032-.157.01-.3.033-.157.011-.3-.075-.137-.1-.285l-.043-.3c-.022-.148.032-.159.01-.307s-.075-.139-.1-.288.032-.16.01-.309-.076-.139-.1-.289.033-.161.011-.312-.077-.14-.1-.291-.076-.14-.1-.292l-.044-.3c-.022-.152.032-.163.01-.315s.032-.164.01-.317-.132-.132-.147-.234c-.023-.154.032-.165.01-.318l-.045-.309-.046-.31c-.022-.155-.077-.144-.1-.3s.032-.167.009-.323-.078-.145-.1-.3l-.046-.314c-.023-.157.088-.18.065-.337s-.078-.147-.1-.3-.079-.147-.1-.305.033-.171.01-.33l-.047-.319c-.023-.16.032-.172.009-.332s-.079-.149-.1-.31-.08-.149-.1-.31.032-.174.009-.335.032-.175.009-.337l-.048-.326-.048-.327c-.024-.164-.08-.151-.1-.316s-.081-.152-.105-.316.033-.177.008-.343l-.048-.331-.049-.332-.048-.334c-.017-.112.024-.235.008-.347a.982.982,0,0,0,.2-.274c.049-.069.082-.25.189-.332.114-.025.221-.107.336-.132.173-.038.18.018.353-.02s.18.018.353-.02.158-.151.331-.189.181.018.354-.02.166-.1.34-.133l.347-.077.348-.077c.175-.038.182.018.356-.02l.349-.077c.175-.039.168-.1.284-.121.176-.039.183.018.358-.021s.168-.1.344-.134.189.075.364.037.169-.1.345-.135.169-.1.346-.135.189.076.365.037.17-.1.347-.136.183.019.36-.02.165-.154.342-.193.19.076.367.037l.355-.079c.178-.039.167-.154.344-.194l.357-.078c.179-.04.184.018.363-.021l.357-.079c.179-.04.185.018.364-.021s.174-.1.353-.138.174-.1.354-.137l.36-.079.3-.066c.18-.04.185.018.366-.022l.361-.08c.181-.04.186.019.367-.021s.176-.1.357-.139.186.019.368-.021.177-.1.359-.139l.364-.08c.182-.04.178-.1.36-.139l.365-.081c.183-.04.191.077.374.037.122-.027.24-.113.366-.081a.385.385,0,0,1,.26.183c.126.031.195.136.259.181.008.118.138.208.145.326.011.176-.05.189-.039.364s-.049.189-.038.363l.022.349.026.4c.011.173.072.16.083.333l.022.344.022.344c.011.171.071.159.082.329s-.11.2-.1.367.071.158.082.328c.014.225-.046.238-.035.407l.022.337.021.337.022.335c.007.111.073.21.021.333s-.045.234-.16.314a.4.4,0,0,1-.285.227.888.888,0,0,1-.351.129l-.354.073c-.176.036-.172.091-.349.128s-.18-.019-.357.018l-.352.073-.41.084-.351.073-.351.072-.35.073c-.175.036-.17.09-.345.126l-.349.073-.349.071-.347.072-.348.072c-.174.036-.179-.018-.41.029-.173.036-.168.09-.341.126l-.346.072c-.173.035-.178-.019-.351.017s-.167.09-.339.125l-.344.071a.84.84,0,0,0-.338.125c-.052.066-.167.089-.275.167a.783.783,0,0,0-.079.345.5.5,0,0,0-.142.3c.017.159.074.148.091.308l.035.318.035.317.034.316.035.315.039.367.035.313c.017.156-.04.167-.023.323l.034.31.034.31c.017.155.073.144.09.3l.033.308c.017.153-.039.164-.022.317s.128.131.145.284-.039.163-.023.316.072.141.089.293-.039.162-.023.313l.039.352.033.3.032.3c.016.149-.039.16-.022.309s.071.138.087.287l.032.3c.017.148.071.137.088.285a.539.539,0,0,0,.086.284c.006.049.022.2.136.225a.492.492,0,0,0,.294.144l.329-.061c.164-.031.169.018.333-.012s.16-.08.325-.111l.329-.062c.165-.031.17.019.335-.012s.156-.13.321-.161.175.068.34.037.162-.08.327-.111.171.018.337-.013.161-.08.328-.111.162-.081.328-.112.171.018.338-.013l.333-.063c.168-.031.172.019.339-.012s.163-.081.331-.113.171.019.339-.013l.335-.062a1.146,1.146,0,0,0,.291.1c.063.089.071.188.134.277a.316.316,0,0,1,.129.227c.011.148.067.138.077.285s-.045.158-.034.306l.021.294.024.342c.011.146-.045.156-.034.3l.021.291.021.29c.01.145.066.135.076.28s-.045.154-.034.3.065.134.075.277c.014.191-.041.2-.031.344s.066.133.076.276-.045.152-.035.294.12.122.13.264c.007.094-.095.208-.089.3a1.2,1.2,0,0,0-.146.263c-.1.066-.214.086-.319.151a.5.5,0,0,1-.265.142c-.162.028-.159.074-.321.1s-.17-.065-.333-.036-.154.121-.316.15-.166-.018-.328.01l-.323.057c-.162.028-.166-.019-.328.01s-.157.074-.318.1l-.322.056c-.161.028-.165-.018-.326.01l-.321.057c-.161.028-.157.074-.317.1s-.156.074-.316.1-.169-.064-.329-.036l-.32.056-.319.056a.9.9,0,0,0-.309.148.328.328,0,0,0-.25.184c-.1.064-.033.192-.076.293-.048.055-.144.164-.134.255.015.137.121.118.135.255s-.038.145-.023.281-.038.144-.023.28.067.126.082.261l.03.269.034.314c.014.133-.038.142-.023.276l.029.267c.014.133.119.115.133.248s-.09.15-.075.283.118.114.133.246l.028.264c.015.131-.089.149-.075.28l.029.262c.014.13.066.122.08.252s.066.122.08.252-.089.147-.075.276c.019.173.07.165.085.294s-.038.137-.024.266.066.12.08.248-.038.137-.024.265.065.12.079.247l.028.255c.014.127.065.119.079.245.009.085.018.17.074.2.059.076.068.16.175.186.06.076.12.152.221.136a.8.8,0,0,0,.314.035c.153-.024.149-.066.3-.09l.305-.049.307-.048.307-.049c.153-.024.157.018.311-.006s.145-.109.3-.134.158.018.312-.006l.308-.049.309-.049.258-.041c.155-.024.151-.067.306-.091s.158.018.313-.007l.311-.049c.155-.025.158.018.314-.007l.311-.049c.155-.025.152-.067.308-.092s.152-.068.309-.092.159.018.315-.007l.313-.05c.156-.024.153-.067.31-.092a.817.817,0,0,1,.319.036c.105-.017.163.061.22.138.108.026.215.053.22.138a.433.433,0,0,1,.069.248c.008.127-.044.136-.036.263s.06.119.068.247.06.118.068.245c.01.169-.094.185-.086.311s.06.118.068.244l.016.252c.008.125.059.117.067.242l.016.25c.008.125-.044.133-.036.257l.015.248c.011.165-.041.173-.033.3s.111.108.118.231-.094.138-.087.261.059.115.067.238l.015.244a1.105,1.105,0,0,1-.191.234c-.1.055-.147.1-.246.159a.922.922,0,0,1-.3.126c-.152.023-.155-.018-.307.005l-.3.045-.3.045c-.151.023-.148.063-.3.085l-.3.045c-.151.023-.154-.017-.305.005s-.148.063-.3.085-.157-.058-.308-.036-.148.063-.3.085-.154-.018-.305,0-.143.1-.293.125l-.3.044c-.149.022-.153-.018-.3.005s-.146.062-.3.084l-.3.044c-.149.022-.156-.057-.306-.035-.2.029-.191.109-.34.131l-.3.044c-.148.022-.153-.017-.3.005l-.3.044-.3.044c-.149.022-.153-.018-.3,0l-.3.044c-.148.022-.144.062-.291.084l-.295.043-.3.044c-.148.022-.152-.018-.3,0s-.137.1-.285.123-.151-.018-.3,0l-.294.044-.293.043c-.146.022-.141.061-.287.083s-.151-.018-.3,0l-.292.043c-.145.022-.14.061-.286.083s-.151-.018-.3,0-.141.06-.286.082-.151-.018-.3,0l-.29.043-.29.043A.75.75,0,0,1,70.7,338.9Z" fill="#969696"/><path d="M87.289,336.279a.674.674,0,0,1-.264-.085c-.053-.033-.158-.059-.161-.141a.4.4,0,0,1-.062-.24c-.005-.124-.057-.116-.061-.24l-.01-.249c-.005-.125.047-.132.042-.257s-.057-.117-.062-.243l-.01-.251c0-.126.048-.134.043-.26s-.057-.118-.062-.244l-.01-.254c0-.127.047-.135.042-.262s-.057-.119-.062-.247.048-.136.043-.263-.111-.112-.116-.24.1-.146.1-.274l-.01-.259c0-.129-.058-.12-.064-.25l-.01-.26-.01-.26c-.005-.13.048-.139.043-.27s-.058-.122-.063-.253l-.011-.263c-.005-.132-.058-.123-.064-.255l-.01-.264c0-.133.049-.142.043-.274s.049-.142.044-.275-.059-.125-.065-.258l-.01-.268-.011-.269c0-.134.049-.143.044-.278l-.01-.27c-.006-.136-.06-.127-.065-.263s-.06-.126-.065-.263.1-.154.1-.245l-.011-.274-.011-.274-.01-.275c-.006-.138-.06-.129-.066-.267s.05-.148.044-.286-.06-.13-.066-.269.05-.149.045-.288-.061-.131-.066-.27l-.011-.281-.011-.281c-.006-.142.05-.151.044-.293l-.011-.283c0-.142-.061-.132-.067-.274s.05-.152.045-.295l-.011-.286c-.006-.144-.062-.134-.067-.277s-.062-.134-.068-.278.051-.154.045-.3.051-.155.045-.3l-.011-.29c-.006-.146-.062-.136-.068-.282s.051-.156.045-.3l-.011-.293c-.006-.148-.063-.137-.068-.285l-.012-.3-.012-.3c-.005-.149.052-.159.046-.308s-.063-.139-.069-.288l-.012-.3c0-.15.052-.16.046-.311s-.063-.139-.069-.29l-.012-.3c-.006-.151.052-.162.046-.314l-.012-.3c-.006-.152-.064-.142-.07-.3s.052-.164.046-.317-.064-.143-.07-.3-.064-.143-.07-.3.052-.165.046-.32.052-.166.046-.322-.064-.144-.07-.3.052-.168.046-.324l-.012-.314-.013-.315c-.006-.157-.064-.146-.07-.3L85.9,314l-.012-.318-.013-.319-.012-.32-.013-.321-.012-.322c-.007-.162-.066-.15-.072-.312s.053-.174.046-.336.053-.174.047-.337-.066-.152-.07-.26l-.013-.328c-.006-.164.053-.177.047-.341l-.013-.33c-.006-.165-.126-.141-.133-.307s.054-.178.047-.344l-.013-.334-.013-.334-.013-.336c-.007-.168-.067-.155-.074-.324s.054-.182.048-.351.054-.182.047-.352l-.013-.34c-.007-.171-.129-.145-.135-.316s.115-.2.108-.369l-.013-.344c-.007-.172-.068-.159-.075-.332s-.068-.16-.075-.333.055-.187.048-.361-.068-.161-.075-.336.116-.2.109-.377-.068-.162-.075-.338-.069-.163-.076-.339.117-.2.11-.381-.069-.164-.076-.342l-.014-.356a.538.538,0,0,1,.113-.326,1.679,1.679,0,0,1,.176-.34c.123-.087.181-.221.3-.309a.569.569,0,0,1,.311-.13l.377-.083c.251-.055.253,0,.442-.036s.187-.1.376-.144l.378-.084.379-.083.38-.084.38-.084.381-.084.445-.1.382-.085.383-.084c.192-.042.193.019.384-.023s.191-.1.383-.146l.385-.085.385-.085c.129-.029.322-.071.386-.024a.468.468,0,0,1,.386.1c.065.048.065.231.129.278,0,.123.065.231.065.353v.365c0,.182.064.169.064.35s-.064.2-.064.377.064.167.064.347-.064.194-.064.374v.359c0,.179-.064.192-.064.371s.127.151.127.329-.063.191-.063.368-.063.19-.063.367.126.15.126.326v.351c0,.175-.063.188-.063.363v.348c0,.174-.062.187-.062.361v.345c0,.173.125.147.125.319v.687c0,.171-.062.183-.062.353v.679c0,.169.062.157.062.325s-.123.194-.123.362.062.155.062.323.061.154.061.322-.061.178-.061.345.061.153.061.319v.331c0,.165-.122.189-.122.354s.061.152.061.316v.327c0,.163.061.151.061.314s-.06.175-.06.337v.914c0,.161.06.15.06.31s-.06.171-.06.331-.06.171-.06.33.06.147.06.306.06.147.06.305v.315c0,.157-.059.169-.059.326s-.06.168-.06.324.06.145.06.3v.311c0,.155.059.144.059.3v.617c0,.154-.059.165-.059.318v.306c0,.152.059.142.059.294s-.058.163-.058.315v.6c0,.151.058.14.058.29s-.058.161-.058.311v.3c0,.149.058.138.058.287s-.058.159-.058.307.058.138.058.286v.882c0,.146-.115.166-.115.312s.115.126.115.271v.58c0,.144-.057.154-.057.3v.287c0,.144.057.134.057.277s-.057.153-.057.295.057.133.057.275-.056.152-.056.294.056.131.056.273-.056.15-.056.291v.561c0,.14.056.131.056.27s-.056.149-.056.287v.278c0,.138.056.129.056.267v.276c0,.137-.056.147-.056.284s-.055.146-.055.283.111.118.111.255-.111.154-.111.29.056.127.056.262.055.127.055.262-.055.143-.055.278c0,.09.055.081.055.215s-.11.152-.11.286v.267c0,.134.055.125.055.258s.055.124.055.257-.055.141-.055.273.055.124.055.256-.054.14-.054.271v.263c0,.13.054.122.054.253s-.054.139-.054.269v.26c0,.129.054.121.054.25v.259c0,.129-.054.137-.054.266v.256c0,.128.054.12.054.248s-.054.136-.054.263.054.12.054.247-.053.135-.053.261v.253a.474.474,0,0,1-.053.26.341.341,0,0,1-.107.225,1.414,1.414,0,0,1-.318.215l-.318.047-.317.047c-.159.023-.158.065-.317.089s-.158-.019-.317,0-.158-.018-.317.005-.157.065-.315.089-.157.065-.367.1l-.315.047-.315.046-.314.047c-.157.023-.159-.06-.315-.036s-.156.064-.313.087-.155.065-.312.088-.158-.059-.314-.036-.156.064-.363.1l-.312.047A.6.6,0,0,1,87.289,336.279Z" fill="#969696"/><path d="M96.2,307.537c0-.1.031-.189.03-.289s.031-.19.03-.29l0-.3c0-.1.031-.19.03-.29a.923.923,0,0,0,0-.3c.032-.09.031-.191.063-.28a.794.794,0,0,1,.1-.27.82.82,0,0,0,.029-.291c.032-.09,0-.2.03-.291s.1-.119.13-.209.031-.191.064-.231c.032-.09.031-.191.063-.281a.892.892,0,0,1,.1-.221l.1-.272c.032-.091.065-.131.1-.222s.1-.12.131-.211l.131-.162a.937.937,0,0,1,.1-.222.616.616,0,0,0,.131-.213c.067-.03.066-.132.132-.213a.492.492,0,0,1,.166-.1c.033-.04.066-.183.132-.214.033-.04.135-.01.167-.1.067-.031.1-.072.168-.1a.452.452,0,0,1,.167-.154c.067-.031.1-.072.168-.1s.1-.123.168-.155.1-.072.169-.1.136-.011.2-.042c.034-.042.067-.134.135-.166l.2-.094.207.06c.068-.031.1-.125.17-.156A.3.3,0,0,0,100.1,301c.07.02.14.091.209.111.069-.031.137-.115.207-.1s.139-.011.208.009a.308.308,0,0,0,.209-.044l.21.061a.293.293,0,0,1,.21.008l.211.061c.07.02.14-.012.211.008s.142.093.213.113l.212.061.214.061c.071.021.142.094.214.114s.142-.011.214.062l.215.061c.072.021.144.094.216.114a.614.614,0,0,1,.217.168l.216.062a.445.445,0,0,0,.218.116l.219.221.218.063c.074.074.147.1.184.159a.621.621,0,0,0,.22.17c.073.074.147.2.184.212l.222.224a1.236,1.236,0,0,0,.185.213c.074.075.148.1.222.225.038.064.112.086.186.161s.076.235.15.311a132.529,132.529,0,0,1,.374.431l.189.323a2.608,2.608,0,0,0,.114.3,5898.092,5898.092,0,0,1,.3.52,1.85,1.85,0,0,0,.152.314c.039.119.04.226.078.345a.688.688,0,0,1,.19.273c.038.119.039.226.077.345,0,.108.114.2.153.316.038.066,0,.215.04.335a.706.706,0,0,1,.115.3,1.843,1.843,0,0,0,.116.306c0,.107.039.227.04.335.038.119,0,.269.04.335a1.478,1.478,0,0,0,.116.359l0,.323c.039.12.039.228.078.348,0,.108.039.228.04.336a1.026,1.026,0,0,1,.04.335l0,.323a1.029,1.029,0,0,0,.04.336l0,.323c0,.108.039.228.04.336s-.037.2-.036.31a.423.423,0,0,1-.036.31.616.616,0,0,1-.15.217.531.531,0,0,1-.188.1c-.113.014-.075.081-.188.1s-.151-.052-.264-.092c-.075.028-.112.015-.187.042-.112.015-.112.068-.224.083a.331.331,0,0,0-.224-.025.6.6,0,0,0-.185.042l-.223.029c-.111-.039-.112-.092-.223-.078l-.221.029c-.11.014-.11.067-.22.081s-.111-.038-.184-.011l-.22.028c-.109.015-.11-.038-.219-.024s-.109.067-.218.081-.11-.039-.219-.077a.331.331,0,0,1-.254.016l-.218-.235a1.179,1.179,0,0,1-.184-.378,1.248,1.248,0,0,1-.039-.38l0-.314c-.037-.117.034-.2.034-.3l-.111-.352,0-.314c0-.105-.038-.222-.039-.327l0-.315c-.037-.117,0-.21-.039-.327s-.037-.222-.074-.339a1.835,1.835,0,0,0-.111-.3l-.11-.35c-.037-.117-.038-.222-.074-.338a1.276,1.276,0,0,1-.181-.216,1.812,1.812,0,0,0-.181-.32c-.037-.064-.144-.1-.216-.174-.035-.011-.108-.139-.179-.214a.618.618,0,0,0-.215-.173l-.212-.069c-.071-.023-.142-.1-.213-.121s-.141.007-.211-.016l-.212-.068c-.069.029-.139.11-.208.139-.07-.023-.105.018-.174.047a.489.489,0,0,0-.174.1c-.069.029-.139.006-.208.087a.922.922,0,0,0-.1.224c-.034.04-.138.057-.172.149a.879.879,0,0,0-.1.223c-.034.091,0,.206-.032.3a.787.787,0,0,0-.066.285.833.833,0,0,0-.032.3l0,.309a.825.825,0,0,0-.032.3l0,.308c0,.1.036.218.037.32a.912.912,0,0,0,0,.308c0,.1.036.218.037.269a1.479,1.479,0,0,1,.106.344.91.91,0,0,1,.072.281,1.225,1.225,0,0,1,.072.333c.036.115.037.218.072.333a1.955,1.955,0,0,1,.107.294c.036.115.071.179.106.294s.071.18.107.3.106.192.142.308a1.931,1.931,0,0,1,.107.3c.036.116.071.18.107.3a1.462,1.462,0,0,0,.142.309,1.836,1.836,0,0,1,.108.3l.142.258a1.17,1.17,0,0,0,.142.259c.036.116.107.194.143.311a1.15,1.15,0,0,1,.143.259c.071.078.073.234.108.3.072.13.143.156.215.287.035.065.037.22.108.3l.144.261a.837.837,0,0,1,.144.313,1.251,1.251,0,0,1,.145.262c.036.118.108.2.144.315a1.207,1.207,0,0,1,.145.262c.037.118.109.2.145.316a1.38,1.38,0,0,1,.181.225,1.308,1.308,0,0,0,.181.279,1.957,1.957,0,0,0,.111.3c.073.132.145.212.182.279.037.118.109.2.146.317a.756.756,0,0,1,.111.3.741.741,0,0,1,.183.28,1.271,1.271,0,0,1,.147.267c.037.12.11.2.147.32.037.067.11.148.184.282l.148.269a1.97,1.97,0,0,0,.111.306,1.59,1.59,0,0,1,.149.322c.037.068.111.15.185.285a1.206,1.206,0,0,1,.148.27c.075.082.076.24.15.323a1.572,1.572,0,0,0,.149.324,1.22,1.22,0,0,1,.149.271c.038.068.076.189.151.325a2.329,2.329,0,0,1,.075.3c.075.136.15.167.188.288s.038.227.076.348a1.3,1.3,0,0,1,.151.274c.037.121.112.205.15.327a2.277,2.277,0,0,0,.114.312l.115.365c.038.122.076.191.114.312a2.126,2.126,0,0,1,.152.329c.037.069,0,.213.039.335,0,.106.076.191.115.313s.076.192.114.314l.115.368a1.1,1.1,0,0,0,.04.335,2.349,2.349,0,0,1,.077.3,1.283,1.283,0,0,0,.078.352c0,.107.039.23.04.336a1.1,1.1,0,0,1,.04.336c.038.123.039.229.077.352,0,.106.039.177.04.283a1.336,1.336,0,0,1,.078.353c.038.123-.037.2,0,.319,0,.106.039.23.04.336l0,.319c0,.107.077.247.078.354l0,.319a.925.925,0,0,1,0,.319l0,.319,0,.319a.777.777,0,0,1-.036.3l0,.319a.9.9,0,0,0,0,.318.723.723,0,0,1-.074.284c0,.106-.074.176-.073.282a.8.8,0,0,1-.036.3.692.692,0,0,1-.073.282c-.037.088,0,.212-.036.3a.77.77,0,0,0-.035.3.6.6,0,0,0-.149.192.762.762,0,0,1-.036.3c-.036.088-.073.123-.11.21a.748.748,0,0,1-.111.21l-.11.262c-.037.087-.074.121-.111.209l-.147.137a.472.472,0,0,0-.147.191.739.739,0,0,1-.11.207,1.775,1.775,0,0,1-.184.119.725.725,0,0,1-.11.207c-.036.087-.11.1-.183.118-.036.086-.11.1-.146.136-.074.016-.11.1-.183.118s-.109.1-.182.117a.421.421,0,0,1-.183.064c-.036.034-.071.172-.144.188s-.146-.074-.219-.059a.424.424,0,0,0-.181.065.435.435,0,0,0-.18.116c-.073.015-.145-.022-.217-.007-.073-.036-.108.049-.18.064l-.215.046a.341.341,0,0,0-.216-.058c-.071.015-.144-.073-.215-.058-.072-.036-.143-.021-.214-.058a.4.4,0,0,1-.178.064c-.071-.037-.142-.021-.213-.058s-.142-.021-.213-.057l-.213-.109c-.07.016-.141-.072-.212-.057-.07-.036-.141-.123-.212-.159a.3.3,0,0,1-.21-.005l-.211-.108c-.07-.035-.14-.122-.21-.158l-.21-.107c-.07-.086-.139-.071-.209-.106s-.139-.122-.209-.157a.571.571,0,0,1-.208-.157c-.069-.035-.138-.02-.207-.055a.794.794,0,0,1-.208-.207.8.8,0,0,1-.207-.206l-.206-.105a.551.551,0,0,0-.206-.154c-.069-.085-.1-.153-.172-.238s-.137-.069-.205-.154l-.206-.254a.469.469,0,0,1-.17-.186l-.2-.253c-.035-.067-.1-.1-.17-.186a1.586,1.586,0,0,1-.17-.235c-.068-.083-.135-.117-.2-.2a1.728,1.728,0,0,1-.169-.284,1.4,1.4,0,0,1-.17-.283,1.334,1.334,0,0,0-.135-.266l-.136-.266c-.067-.083-.1-.2-.168-.282-.034-.116-.068-.182-.1-.3-.067-.132-.134-.215-.167-.281a1.691,1.691,0,0,0-.1-.347c-.033-.066-.067-.181-.1-.247l-.1-.346c-.034-.116-.1-.2-.135-.313a2.119,2.119,0,0,1-.1-.3c-.034-.115-.035-.214-.069-.329a2.33,2.33,0,0,1-.069-.28,1.073,1.073,0,0,1-.036-.313c-.034-.115-.1-.2-.134-.31a1.065,1.065,0,0,0-.036-.313,1.3,1.3,0,0,0-.068-.329.9.9,0,0,0,0-.3c0-.1-.068-.229-.069-.328-.034-.114,0-.2-.036-.312,0-.1-.035-.213-.036-.313-.033-.114,0-.2-.036-.312l0-.3c0-.1-.034-.213-.035-.312s.03-.183.029-.282-.067-.228-.068-.327.03-.233.029-.332a.6.6,0,0,1,.128-.188.387.387,0,0,1,.195-.109.285.285,0,0,0,.2.04c.1-.005.1.045.2.04l.2-.01c.1-.005.1.045.2.04.066-.02.066-.02.166.025.1,0,.1-.055.2-.06a.2.2,0,0,1,.167.025l.2-.009c.1-.005.1.045.2.04a.291.291,0,0,1,.2.041c.1-.005.066-.071.167-.025.1-.005.1-.056.2-.061a.244.244,0,0,1,.169.026c.1-.005.1-.056.2-.01l.2-.01a.41.41,0,0,1,.238.056,1.5,1.5,0,0,1,.208.294,1.16,1.16,0,0,1,.208.346,1.612,1.612,0,0,1,.038.421c0,.1-.067.172-.066.274l0,.3c0,.1.036.218.037.32l0,.3c0,.1.036.219.037.32l.106.352a1.087,1.087,0,0,0,.037.32,1.269,1.269,0,0,0,.072.336c.035.118.07.185.106.3s.036.22.071.337.139.167.175.285a1.314,1.314,0,0,0,.14.268c.036.118.105.151.175.286.07.083.105.15.175.234.07.033.14.117.21.15a.755.755,0,0,0,.21.2.788.788,0,0,0,.211.2l.21.1.211.1a.3.3,0,0,0,.211,0,.32.32,0,0,0,.212.049.355.355,0,0,1,.176-.019.446.446,0,0,0,.176-.121.36.36,0,0,0,.176-.123c.035-.034.106-.052.141-.139a.371.371,0,0,0,.177-.122c.035-.087.034-.19.069-.277a.739.739,0,0,0,.106-.209.778.778,0,0,0,.033-.294.7.7,0,0,0,.069-.277l0-.311a.781.781,0,0,0,.033-.294c0-.1-.037-.224-.038-.328l0-.31a1.075,1.075,0,0,0-.038-.328,1.634,1.634,0,0,0-.11-.359c0-.1-.038-.224-.039-.327a1.1,1.1,0,0,1-.038-.327c-.037-.12-.073-.188-.11-.307a1.946,1.946,0,0,0-.145-.323c-.036-.119-.037-.223-.074-.342s-.037-.223-.074-.342a.891.891,0,0,1-.144-.321,1.211,1.211,0,0,1-.144-.269c-.073-.134-.073-.238-.145-.32-.036-.119-.037-.222-.073-.341s-.108-.2-.144-.319a1.364,1.364,0,0,1-.179-.283,1.284,1.284,0,0,0-.143-.267,314.17,314.17,0,0,0-.216-.6.766.766,0,0,0-.177-.281,1.237,1.237,0,0,0-.143-.265,2.04,2.04,0,0,0-.107-.3c-.036-.118-.107-.2-.142-.316a1.216,1.216,0,0,1-.142-.264.761.761,0,0,0-.176-.278,2.063,2.063,0,0,0-.107-.3c-.036-.117-.105-.146-.176-.277a2.017,2.017,0,0,1-.106-.3,1.416,1.416,0,0,1-.175-.225c-.069-.079-.071-.233-.106-.349a1.287,1.287,0,0,1-.175-.275,1.447,1.447,0,0,0-.174-.224c-.034-.065-.036-.218-.105-.3a1.5,1.5,0,0,0-.14-.31,1.207,1.207,0,0,1-.139-.259,1.256,1.256,0,0,1-.139-.259,1.369,1.369,0,0,1-.172-.222c-.069-.129-.105-.244-.139-.308l-.138-.258c-.035-.115-.1-.193-.139-.308-.034-.064-.069-.179-.138-.307-.035-.064-.069-.179-.1-.243-.068-.128-.137-.206-.171-.27a.714.714,0,0,0-.171-.268,2.323,2.323,0,0,0-.07-.279c-.068-.128-.1-.242-.137-.306a1.2,1.2,0,0,0-.137-.254,1.523,1.523,0,0,1-.137-.3,1.228,1.228,0,0,1-.136-.254c-.034-.113-.1-.19-.136-.3s-.036-.215-.07-.328a1.218,1.218,0,0,1-.169-.265c-.034-.114-.035-.214-.07-.327a10.834,10.834,0,0,1-.34-.88c-.035-.113-.068-.175-.1-.288a2.027,2.027,0,0,0-.1-.288,1.211,1.211,0,0,1-.07-.325c-.034-.113-.035-.213-.069-.326a.712.712,0,0,1-.1-.287c-.034-.112-.067-.174-.1-.287a.911.911,0,0,0-.036-.312,1.234,1.234,0,0,0-.07-.325,1.269,1.269,0,0,0-.068-.324,1.232,1.232,0,0,0-.069-.324c0-.05.03-.189.029-.289-.034-.112-.1-.185-.1-.285a1.047,1.047,0,0,0-.036-.312l0-.3c0-.1-.068-.223-.069-.323s.031-.189.03-.289c-.034-.112,0-.2-.036-.312,0-.1-.035-.212-.036-.312l0-.3c0-.1.03-.19.029-.29S96.2,307.638,96.2,307.537Z" fill="#969696"/><path d="M112.082,342.527c-.039-.073-.157-.133-.2-.26a2.18,2.18,0,0,1-.119-.328,1.092,1.092,0,0,1-.041-.342c0-.161.038-.142.037-.3v-.323l0-.322c0-.162-.079-.2-.08-.362s.077-.122.076-.284-.04-.18-.041-.342l0-.323c0-.161-.04-.18-.041-.342s.078-.123.077-.285-.04-.18-.041-.342l0-.323,0-.323,0-.323,0-.324c0-.161.038-.143.038-.3l0-.323c0-.162-.079-.2-.08-.361s.077-.124.076-.286l0-.324c0-.162-.04-.18-.041-.342l0-.324c0-.162.039-.144.038-.306l0-.324c0-.162-.04-.18-.041-.342l0-.324,0-.324c0-.162.038-.144.037-.306v-.325l0-.324c0-.162-.08-.2-.08-.36l0-.324c0-.162.038-.145.037-.253,0-.162.039-.145.038-.307s-.08-.2-.081-.36.039-.144.038-.307-.04-.18-.041-.342.038-.145.037-.308-.04-.179-.041-.341.038-.146.037-.309.039-.145.038-.308-.08-.2-.081-.358.078-.13.077-.292-.04-.18-.041-.342l0-.326c0-.162.038-.146.037-.309s-.04-.179-.041-.342.039-.146.038-.309l0-.325c0-.163-.04-.179-.041-.342l0-.326c0-.163.038-.147.037-.31s-.04-.179-.041-.342l0-.326c0-.163.039-.147.038-.31s-.041-.179-.042-.342v-.326l0-.326,0-.326c0-.164.038-.148.037-.311l0-.327c0-.163-.04-.178-.041-.342l0-.326V321.2c0-.163.038-.148.037-.311s-.08-.194-.08-.357.038-.149.037-.312.038-.148.037-.312-.04-.179-.041-.342.039-.149.038-.312-.08-.193-.081-.357.078-.134.077-.3l0-.327,0-.327c0-.164-.079-.193-.08-.356s.038-.15.037-.314.039-.149.038-.313l0-.328c0-.163-.08-.192-.081-.356s.078-.135.077-.3-.04-.178-.041-.342l0-.328c0-.163.038-.15.037-.314s-.04-.177-.041-.342.039-.15.038-.314-.041-.178-.042-.342.039-.15.038-.314-.04-.178-.041-.287c0-.165.038-.151.037-.315v-.329c0-.164-.041-.177-.042-.342s.039-.151.038-.315l0-.329c0-.164-.04-.177-.041-.341l0-.329c0-.164.038-.151.037-.316s-.04-.177-.041-.342.039-.152.038-.316l0-.329,0-.329c0-.165-.041-.177-.041-.342l0-.329,0-.329c0-.165-.041-.177-.042-.342s.078-.14.077-.305-.04-.177-.041-.342l0-.329,0-.33c0-.165.039-.153.038-.318s-.041-.176-.041-.341.038-.153.037-.318-.04-.177-.041-.342-.041-.176-.042-.342c0-.11.078-.2.077-.306a.982.982,0,0,1,.117-.241l.237-.1c.039.012.118-.075.2-.052.119.034.12.089.239.124l.239.069c.12.035.12.09.241.125s.119-.021.28.026c.12.035.121.09.241.125s.121-.02.242.015l.243.07c.121.035.121-.02.243.015s.122.091.244.126.122-.02.244.015.123.091.246.127l.246.071c.123.036.123.092.246.128s.124-.077.247-.041.125.092.248.128.125-.02.249.016c.083.024.167.161.25.185a1.574,1.574,0,0,1,.209.287,1.435,1.435,0,0,1,.168.331c.043.182,0,.17.044.352l.085.365.085.364c.042.126.042.183.085.309l.085.365.085.365c.043.183.043.126.085.31a.913.913,0,0,1,0,.34c.042.182.084.2.127.379s.085.139.127.322-.041.214,0,.341l.085.367c.043.183.085.2.128.38,0,.114.043.127.086.311s-.042.157,0,.34.128.212.17.339c.043.184,0,.227.044.354l.086.369a1.925,1.925,0,0,0,.128.325c.043.185-.042.214,0,.4a2.048,2.048,0,0,1,.128.327c.043.184,0,.17.043.355a2.422,2.422,0,0,0,.087.313c.043.185.085.2.128.384s0,.171.044.356.086.142.129.328,0,.171.044.356a1.029,1.029,0,0,0,.044.356l.086.371c.044.186,0,.171.044.357a2.494,2.494,0,0,1,.087.314c.043.187.086.2.129.387a2.467,2.467,0,0,1,.087.315l.087.373a1.091,1.091,0,0,1,.044.358c.043.186.086.144.13.331s0,.171.044.358l.087.373c.043.187,0,.171.044.358a2.214,2.214,0,0,0,.087.317,1.289,1.289,0,0,1,.087.374.29.29,0,0,0,.216.193c.087.032.173.064.216-.035l.086-.312c.043-.1,0-.171.042-.328s.043-.1.086-.255l.086-.313c0-.172.087-.084.13-.24s0-.23.043-.329c.043-.157,0-.173.042-.33l.087-.314c.043-.157.087-.084.13-.242l.086-.315c.044-.157,0-.173.043-.33l.087-.316c.043-.1.087-.085.131-.243a1.236,1.236,0,0,1,.087-.259c.044-.159,0-.231.043-.39.043-.1,0-.115.043-.274s.088-.144.087-.317l.088-.318c.043-.159.043-.1.087-.26s.088-.145.132-.3,0-.174,0-.348c.044-.16.088-.087.132-.247l.088-.319c.044-.161,0-.175.043-.335,0-.174.044-.16.088-.32.044-.1.089-.088.133-.249s0-.174.043-.335.089-.088.134-.249-.046-.247,0-.349l.088-.322c.044-.162.089-.148.133-.25l.089-.323.089-.324c.044-.161,0-.175.044-.279.044-.161.089-.148.134-.31,0-.175-.045-.189,0-.351l.089-.325a1.387,1.387,0,0,1,.09-.266c.044-.163.089-.149.134-.312a1.32,1.32,0,0,1,.089-.267l.09-.326a.818.818,0,0,1,.09-.326c.09-.033.135-.138.226-.17a.441.441,0,0,1,.272-.039c.136.039.136.1.273.138s.136.1.273.138l.275.08c.138.04.138-.02.321.033l.277.08.277.081.278.08.279.081.279.081c.141.041.14-.019.281.022s.14.1.281.141.141-.019.282.022.142.16.283.2.142-.019.284.023l.285.082c.142.041.142.1.285.143a.643.643,0,0,1,.287.144,1.081,1.081,0,0,1,.191.237.787.787,0,0,1,.24.312v.364c0,.182-.048.167-.048.349s.048.2.048.377v.364c0,.182.048.2.048.377s-.048.168-.048.349-.048.167-.048.349.048.2.048.377v.363c0,.182.048.2.048.378s-.048.166-.048.348v1.45c0,.181.048.2.048.378v1.086c0,.182-.048.166-.048.347s.048.2.048.377-.048.166-.048.346.048.2.048.378-.048.165-.048.346v.361c0,.181.048.2.048.378s-.048.164-.048.345.048.2.048.378V321c0,.18-.048.163-.048.344v.361c0,.181.048.2.048.378v.722c0,.18-.048.163-.048.343s-.048.163-.048.343.048.2.048.318c0,.18.048.2.048.378s-.1.145-.1.325.048.2.048.378v.36c0,.18.048.2.048.378s-.048.162-.048.342.048.2.048.378-.048.162-.048.342v.72c0,.179.048.2.048.377v.72c0,.179-.1.142-.1.322s.1.217.1.4-.048.161-.048.341v.359c0,.179-.048.161-.048.34s.048.2.048.378v.718c0,.179.048.2.048.378s-.048.159-.048.339v.358c0,.18.048.2.048.378v1.434c0,.179-.048.159-.048.338v.358c0,.179.048.2.048.378s-.048.159-.048.338v2.5c0,.178.048.2.048.378v.357c0,.179-.048.158-.048.336v1.07c0,.179.048.2.048.378s-.048.157-.048.336v.356c0,.178.048.2.048.378s-.048.156-.048.335v.712c0,.178-.047.156-.047.334,0,.119.047.141.047.319s.048.2.048.378-.048.156-.048.334-.047.155-.047.333.047.2.047.378.048.2.048.378-.048.155-.048.333v.356c0,.177.048.2.048.378s-.1.132-.1.31.1.223.1.4-.048.154-.048.332v.71c0,.177.048.2.048.378s-.048.154-.048.331.048.2.048.378-.048.154-.048.332.048.2.048.378-.048.153-.048.33-.047.154-.047.331c0,.118.047.26,0,.354s-.1.13-.142.224c-.047.034-.142-.013-.236,0a.469.469,0,0,1-.283-.026c-.141-.071-.141-.013-.281-.084l-.235-.119c-.14-.071-.14-.188-.28-.26s-.14-.012-.279-.083-.14-.129-.279-.2-.139-.012-.278-.082c-.092-.047-.092-.106-.231-.176s-.138-.012-.276-.082-.138-.011-.275-.081-.138-.128-.275-.2l-.274-.139-.228-.116-.272-.138-.272-.138-.271-.137a.628.628,0,0,1-.225-.23.489.489,0,0,1-.225-.286.824.824,0,0,1-.18-.321,1.143,1.143,0,0,1-.045-.367c0-.172-.045-.194-.045-.367s.044-.15.044-.322.044-.15.044-.323-.045-.194-.045-.367.044-.15.044-.323v-.345c0-.173-.045-.2-.045-.367V344.39c0-.173.045-.152.044-.324s-.045-.2-.045-.368v-.691c0-.173.044-.152.044-.325s-.09-.215-.09-.388.044-.152.044-.325v-.346c0-.173.045-.152.045-.325s-.045-.194-.046-.367v-.289c0-.173.044-.152.044-.325s-.045-.194-.045-.367-.046-.194-.046-.367.089-.133.089-.306v-.347c0-.173-.045-.193-.045-.367s.045-.153.044-.327-.09-.213-.09-.387V337.5c0-.173.09-.133.089-.307s-.045-.193-.045-.367v-.347c0-.173-.046-.193-.046-.367s.045-.154.044-.327.045-.155.044-.328-.045-.194-.045-.367v-.348c0-.174-.045-.193-.045-.367s.045-.154.044-.328.045-.155.044-.329-.045-.193-.045-.367-.045-.193-.046-.367.045-.155.045-.329.044-.155.044-.329-.045-.193-.045-.367.044-.156.044-.33-.045-.193-.046-.367v-.7c0-.174.045-.156.044-.33s-.09-.211-.09-.385.089-.138.089-.313v-.348c0-.175-.046-.193-.046-.367s.045-.157.044-.331-.09-.211-.09-.385.045-.157.044-.331v-.641c0-.174-.045-.192-.045-.367a.422.422,0,0,0-.136-.343.162.162,0,0,0-.224.087c-.045.156-.09.081-.134.238s-.09.139-.134.295c-.044.1,0,.174-.044.272-.089.139,0,.232-.044.33a.736.736,0,0,0-.133.295,1.3,1.3,0,0,1-.089.254c-.044.155-.133.12-.177.275a1.3,1.3,0,0,0-.089.254c-.044.155,0,.173-.043.328l-.088.31c-.044.155-.089.079-.177.216-.044.155.045.191-.043.328-.044.154-.044.1-.088.251-.088.137-.044.155-.088.309l-.087.308c-.044.1-.088.079-.131.233s0,.172-.044.326-.087.078-.131.231l-.087.307c-.043.154-.087.078-.131.231s-.087.135-.13.288a1.119,1.119,0,0,0-.087.248c-.043.153,0,.172-.043.325l-.086.3a1.119,1.119,0,0,0-.087.248l-.086.3c-.043.152-.13.057-.173.209l-.086.3a1.2,1.2,0,0,0-.086.246l-.086.3c-.043.094-.043.208-.129.227-.043.094-.129.112-.215.131-.043.037-.173-.02-.259-.059a.938.938,0,0,1-.258-.227.737.737,0,0,1-.215-.265,2.506,2.506,0,0,1-.086-.321c-.044-.188-.087-.207-.13-.395-.043-.132,0-.17-.044-.358a.85.85,0,0,1-.129-.338c-.043-.188-.085-.15-.128-.338a1.317,1.317,0,0,1-.087-.375c-.043-.188-.085-.15-.128-.337l-.086-.375c-.043-.188,0-.17-.044-.357a2.138,2.138,0,0,1-.128-.336c-.043-.187,0-.169-.044-.356s-.127-.167-.17-.353,0-.169-.044-.356a.815.815,0,0,0-.128-.335l-.085-.372-.086-.373c-.042-.13,0-.169-.043-.355a1.986,1.986,0,0,1-.127-.334c-.043-.185-.085-.146-.128-.332s0-.169-.043-.355-.126-.164-.169-.349l-.085-.371a2.618,2.618,0,0,0-.085-.315c-.042-.185,0-.224-.043-.353a1.645,1.645,0,0,0-.127-.387c-.043-.185-.042-.129-.085-.314s0-.168-.043-.353c-.084-.2-.126-.217-.168-.346-.042-.185,0-.168-.043-.353l-.084-.368c-.043-.185-.084-.145-.126-.329a.4.4,0,0,0-.251-.321c-.082.024-.123.12-.122.287v.335c0,.168-.041.152-.04.319v.335c0,.168-.04.151-.039.318s.083.2.083.313l0,.334c0,.168-.041.151-.04.318v.335c0,.167.042.184.043.351l0,.335c0,.167-.041.15-.04.317v.669c0,.167.042.185.043.351s-.041.15-.04.317l0,.334c0,.168-.041.15-.04.317s.083.2.084.369-.041.149-.04.316v.334c0,.167.042.185.043.352s-.041.148-.04.315v.334c0,.167.042.184.043.351s-.04.149-.04.316l0,.333c0,.167.042.185.042.352s-.04.148-.04.315.043.185.043.351-.04.148-.04.315l0,.333v.333l0,.332c0,.167-.041.148-.04.315s.042.185.042.351-.04.148-.04.314.042.185.043.351-.04.148-.04.314.042.185.043.351v.333c0,.166.042.185.043.351s-.041.147-.04.313l0,.332c0,.166.041.186.042.352v.276l0,.332c0,.167-.041.147-.04.313v.332l0,.331v.332c0,.166.042.186.043.352s-.041.145-.04.311.042.186.043.352v.331c0,.166-.041.145-.04.311v.331l0,.332v.331l0,.331v.662a.761.761,0,0,1-.039.31c-.041.089-.082.123-.123.213a.475.475,0,0,1-.2.116c-.082-.042-.163-.028-.245-.07-.122-.062-.123-.172-.245-.234-.081-.041-.081.014-.2-.048l-.244-.124c-.121-.061-.121-.116-.243-.178s-.121-.007-.242-.068-.121-.116-.241-.177c-.081-.041-.081.014-.2-.047l-.24-.122-.24-.122-.239-.121c-.119-.061-.119-.115-.239-.176-.079-.04-.079.068-.2.008l-.237-.12c-.119-.061-.119-.115-.237-.174l-.236-.12A.663.663,0,0,1,112.082,342.527Z" fill="#969696"/><path d="M133.54,350.911c-.11.068-.165.134-.277.139-.056,0-.168.071-.168-.058a.53.53,0,0,1-.056-.319c0-.193-.057-.127-.057-.32v-.386c0-.193.056-.257.056-.45s-.056-.127-.056-.319v-.384c0-.191.056-.254.056-.445s-.056-.129-.056-.32v-.382c0-.19.056-.251.056-.441s-.056-.13-.056-.32.056-.249.056-.438-.112-.072-.112-.261.111-.306.111-.495v-.377c0-.188-.056-.131-.056-.319v-.751c0-.188.056-.243.056-.43s-.056-.132-.056-.319v-.373c0-.187-.055-.133-.055-.32v-.372c0-.187.055-.239.055-.424s.055-.237.055-.422-.055-.134-.055-.319v-.738c0-.184.055-.233.055-.416v-.367c0-.183-.055-.136-.055-.319s-.055-.136-.055-.319.11-.276.11-.4v-1.09c0-.182-.055-.138-.055-.319s.055-.225.055-.4-.055-.138-.055-.318.055-.224.055-.4-.055-.138-.055-.318v-.718c0-.18.055-.22.054-.4V334.4c0-.179-.054-.139-.054-.318s.054-.217.054-.4v-.355c0-.177-.054-.14-.054-.318s-.054-.14-.054-.318.054-.213.054-.39.054-.213.054-.389v-.352c0-.176-.054-.142-.054-.318s.053-.21.053-.385v-.35c0-.175-.054-.142-.054-.317v-.7c0-.175.054-.206.054-.38s-.054-.143-.054-.317v-.347c0-.173.054-.2.054-.376s-.054-.144-.054-.317v-.345c0-.173.053-.2.053-.373V326.7c0-.171-.053-.144-.053-.316s.053-.2.053-.369-.053-.146-.053-.317-.053-.145-.053-.316.053-.2.053-.367.053-.2.053-.365-.053-.146-.053-.316.053-.193.053-.362v-.677c0-.169-.052-.147-.053-.316v-2.014c0-.167-.052-.149-.052-.316s.052-.185.052-.351.053-.184.053-.35-.053-.149-.053-.26v-.331c0-.166.052-.182.052-.348v-.33c0-.164-.1-.134-.1-.3s.052-.18.052-.345v-.984c0-.164-.052-.151-.052-.315s.052-.176.052-.339.052-.175.051-.338v-.325c0-.162-.1-.14-.1-.3s.1-.183.1-.345v-.323c0-.162-.052-.153-.052-.314s-.051-.153-.051-.314.051-.17.051-.332-.051-.152-.051-.313.1-.176.1-.337-.052-.153-.052-.313-.051-.153-.051-.314.1-.172.1-.332-.051-.153-.051-.313v-.318a.455.455,0,0,1,.1-.275,1.3,1.3,0,0,1,.152-.276c.1-.061.151-.17.251-.23a.373.373,0,0,1,.247-.071l.293-.023c.192-.014.192.037.335.025s.141-.061.282-.072l.278-.021.273-.022.269-.02.265-.021.261-.02.3-.023.252-.019.248-.019c.123-.01.124.038.245.028s.121-.056.241-.065l.237-.019.234-.018c.078-.006.193-.015.232.028a.289.289,0,0,1,.229.118c.038.042.04.178.078.22,0,.09.04.177.041.267l0,.272c0,.136.04.132.041.267s-.035.141-.033.277.039.131.041.267-.035.142-.033.278l0,.274c0,.137-.035.143-.033.28s.077.125.079.262-.036.143-.034.281-.036.144-.034.282.078.123.079.261l0,.275c0,.138-.035.146-.033.284l0,.276c0,.139-.036.147-.034.286l0,.278c0,.139.077.12.079.259l0,.278,0,.278c0,.139-.036.149-.034.289l0,.279,0,.28c0,.14.04.129.042.268s-.074.164-.072.3.04.128.042.269.04.128.042.269-.036.153-.034.294.04.128.042.269l0,.282c0,.141-.074.169-.072.311s.04.127.042.269l0,.284c0,.142.04.127.042.269s-.036.157-.034.3l0,.285,0,.285,0,.238c0,.143.041.127.043.27s-.037.16-.035.3-.036.161-.034.3.04.126.043.27.04.126.042.27l0,.287c0,.144-.036.163-.034.308s-.037.163-.035.308.041.126.043.271l0,.29c0,.145.04.125.043.27l0,.29,0,.291c0,.146-.037.167-.035.313l.005.292c0,.147.04.124.042.271s-.036.168-.034.315l0,.293,0,.294c0,.147.041.124.043.271s-.037.171-.035.318l.005.3c0,.147.04.122.043.27s-.037.173-.035.321.041.123.043.271l0,.3,0,.3.005.3c0,.149-.076.2-.074.353s.08.094.082.243l0,.3.005.3c0,.15-.037.179-.035.329l0,.3c0,.15.041.12.043.271s-.036.18-.034.331.041.12.043.271-.037.182-.035.333.041.12.044.272-.037.183-.035.334l0,.3,0,.3c0,.153.042.12.044.272s-.037.185-.035.338l0,.305c0,.153.042.119.044.272l0,.306c0,.153-.037.188-.035.342s-.037.189-.035.343.081.082.083.236-.076.226-.074.381.041.118.044.272.041.118.044.272-.038.192-.036.347c0,.1.041.066.044.221s-.077.231-.075.387l0,.311c0,.156.042.117.044.273s.042.116.044.272-.037.2-.035.352.042.116.044.272-.037.2-.035.355l0,.314c0,.157.042.115.045.272s-.038.2-.036.357l.005.315c0,.158.042.115.044.273l0,.316c0,.158-.037.2-.035.36l.005.318c0,.159.042.114.044.272s-.038.2-.035.364.042.113.044.272-.038.206-.035.366l0,.319a1.281,1.281,0,0,1-.035.368,1.157,1.157,0,0,1-.077.364,4.437,4.437,0,0,1-.242.508l-.248.3-.252.3c-.127.152-.127.208-.255.363s-.131.1-.261.256-.133.1-.266.261-.133.217-.268.379-.136.221-.319.441l-.28.336-.283.341-.289.346c-.147.176-.147.057-.295.233s-.148.239-.3.419-.152.242-.3.426-.155.062-.31.248-.157.25-.368.5l-.322.386A.739.739,0,0,1,133.54,350.911Z" fill="#969696"/><path d="M144.995,317.047c0,.075.029.141.031.216s.029.141.031.217l.007.225c0,.076-.02.161-.018.236s.029.141.031.216-.044.172-.042.248.03.141.032.216l.007.228c0,.075.029.14.031.216s-.02.163-.018.239l.007.228c0,.076.029.141.031.217s-.019.164-.017.24.029.141.031.217l.007.229c0,.076-.02.165-.017.241s.029.141.031.217-.02.166-.017.243l.007.23c0,.077.029.141.031.217s-.02.168-.017.245l.006.231c0,.077.03.14.032.217s-.02.168-.018.246.03.14.032.217-.02.169-.018.247.03.139.032.217-.02.17-.018.248.03.139.032.217-.02.171-.017.249l.007.233.007.234.007.234c0,.078.029.14.031.218s-.019.173-.017.251l.007.235c0,.078.029.139.032.218s-.02.174-.018.253.029.139.032.217l.007.236.007.236c0,.079-.02.176-.017.255s.029.139.031.218-.019.177-.017.256.029.139.032.218-.045.2-.042.277.054.119.056.2l.007.238c0,.08-.044.2-.042.28,0,.119.055.157.058.237l.007.239.007.239c0,.08-.019.181-.017.261s.029.139.032.218l.007.24.007.241.008.24c.027.058.029.138.056.2a.6.6,0,0,0,.032.217c0,.08.03.137.032.218a.457.457,0,0,1,.057.194c.027.056.029.136.056.193l.08.169a.367.367,0,0,1,.079.128.371.371,0,0,1,.078.127c.049-.008.076.048.125.04l.145-.024a.088.088,0,0,0,.121,0c.047-.008.092-.094.14-.1.045-.047.092-.054.138-.1s.089-.13.134-.175c.067-.068.113-.076.157-.12s.087-.128.131-.172c.042-.083.086-.127.128-.208s.062-.141.1-.222a1.989,1.989,0,0,0,.1-.181l.1-.292a1.535,1.535,0,0,0,.078-.231c.018-.094.038-.151.056-.245s.057-.208.075-.3c.019-.056-.005-.146.013-.239,0-.073.015-.165.012-.238.018-.092.037-.148.054-.276l-.008-.218a.978.978,0,0,1,.012-.236l-.008-.217-.007-.217a.961.961,0,0,0,.012-.234c0-.072.015-.162.013-.234-.006-.144-.026-.126-.03-.234l-.008-.215c0-.108.017-.125.012-.269l-.008-.214-.008-.215a1.084,1.084,0,0,1,.011-.266,1.852,1.852,0,0,1,.094-.259.476.476,0,0,1,.116-.2c.038-.067.078-.063.138-.075s.059-.047.118-.058.061.023.1.027c.059-.012.076-.1.134-.108.039,0,.041.073.1.062.056-.046.055-.08.112-.091s.04.038.1.027l.112-.023.111-.022c.054-.044.055-.01.111-.021s.053-.044.107-.055c.037,0,.053-.044.107-.054s.038.037.091.026l.106-.02.1-.021a.2.2,0,0,0,.088-.006c.051-.01.065-.09.1-.085a.183.183,0,0,1,.089.058.4.4,0,0,1,.074.137.288.288,0,0,1,.041.165c0,.064-.014.078-.01.175l.008.194.009.226c0,.064.022.114.025.178s-.027.16-.025.225l.008.194.009.2a.716.716,0,0,0,.008.194.907.907,0,0,0-.008.211c-.014.081-.011.146-.025.228,0,.065-.011.147-.009.212-.013.082.006.131-.008.213a.963.963,0,0,1-.026.2,1.3,1.3,0,0,1-.026.231.946.946,0,0,1-.008.215.753.753,0,0,1-.044.216,1.262,1.262,0,0,1-.007.25,1.313,1.313,0,0,1-.027.2,1.384,1.384,0,0,0-.044.221l-.043.255a.68.68,0,0,1-.027.2l-.043.258c-.015.086-.049.124-.064.211s-.012.155-.026.242a1.706,1.706,0,0,0-.063.248,1.4,1.4,0,0,0-.065.216c-.015.088-.068.148-.083.237a1.4,1.4,0,0,0-.066.219,3.02,3.02,0,0,0-.151.5,1.847,1.847,0,0,0-.086.246c-.017.057-.052.135-.069.192l-.108.237c-.036.079-.054.137-.09.217l-.11.242a1.87,1.87,0,0,1-.092.222c-.037.082-.076.128-.113.21-.02.024-.077.13-.1.153l-.114.252a.735.735,0,0,0-.119.181,1.155,1.155,0,0,1-.118.22.683.683,0,0,1-.1.16.784.784,0,0,1-.122.187c-.041.088-.082.139-.123.227-.042.051-.086.064-.127.153l-.128.156c-.043.052-.085.143-.128.2s-.086.145-.13.2-.087.146-.131.2l-.157.191c-.045.055-.092.071-.137.126s-.09.151-.136.207a1054.694,1054.694,0,0,0-.283.261.286.286,0,0,1-.146.091l-.144.175c-.05.018-.1.118-.146.177a.3.3,0,0,0-.126.066c-.051.019-.1.079-.152.1-.05.061-.125.194-.177.213-.051.061-.079.008-.131.027a.47.47,0,0,1-.157.144c-.052.062-.08.008-.134.028s-.107.083-.161.1a.328.328,0,0,0-.136.072l-.167.062c-.055.021-.084.01-.14.031s-.112.086-.17.063l-.117-.045c-.057.021-.088-.035-.146-.013-.029-.012-.115.087-.146.031a.175.175,0,0,1-.149-.013c-.03-.012-.062-.068-.122-.046a.182.182,0,0,0-.123-.092c-.031-.012-.063-.069-.1-.126s-.092-.036-.125-.094c-.031-.012-.092.009-.124-.048s-.066-.116-.1-.128l-.1-.175a.24.24,0,0,1-.129-.1.682.682,0,0,0-.037-.243c-.032-.013-.034-.105-.067-.164s-.1-.04-.131-.1a.426.426,0,0,0-.069-.212c-.034-.059-.036-.152-.069-.212s.027-.217-.007-.277a.417.417,0,0,0-.069-.213c0-.093-.067-.076-.069-.168-.034-.061-.036-.154-.07-.215a.579.579,0,0,0-.038-.247.572.572,0,0,0-.038-.246c0-.093.028-.216.026-.309s-.036-.154-.038-.247a.43.43,0,0,1-.071-.217c0-.092.028-.214.026-.307s-.036-.155-.038-.247-.036-.156-.038-.248.028-.213.025-.351l-.006-.276c0-.092-.036-.156-.038-.247l0-.276-.006-.275c0-.091.028-.21.026-.3s-.036-.155-.038-.247.028-.209.026-.3-.036-.156-.038-.247l-.006-.274,0-.272c0-.091.028-.207.026-.3s-.036-.156-.038-.247.028-.2.026-.3l-.006-.271c0-.09-.036-.156-.037-.247l-.006-.27c0-.09.028-.2.026-.293l-.006-.27c0-.09-.036-.157-.038-.247l-.006-.314-.006-.268c0-.09.028-.2.026-.29l-.006-.268c0-.089-.035-.157-.037-.247L141.8,326l-.006-.267,0-.266c0-.089.028-.2.026-.286s-.036-.157-.038-.246.028-.2.026-.284l-.005-.265c0-.088-.036-.158-.038-.246l-.005-.265c0-.088.027-.193.026-.281s-.036-.159-.038-.247l-.005-.263-.006-.263c0-.087.028-.192.026-.279s-.035-.158-.037-.246c0-.131-.037-.2-.038-.289s.028-.191.026-.278-.036-.159-.038-.246.06-.2.058-.291l-.006-.26,0-.26-.006-.259c0-.087-.035-.159-.037-.246s.028-.186.026-.272l0-.259c0-.086-.035-.159-.037-.245l-.006-.258c0-.086.028-.184.026-.27s-.035-.159-.037-.245.028-.184.026-.269-.035-.16-.037-.245l-.005-.256c0-.086.027-.182.025-.267l-.005-.256a.66.66,0,0,1,.026-.265c0-.127-.036-.2-.038-.287s.028-.179.026-.264l-.006-.254c.03-.093.028-.178.057-.271a.552.552,0,0,1,.027-.219c0-.084-.036-.2-.038-.285a.738.738,0,0,0,.026-.26c0-.084.027-.176.025-.259.029-.091.09-.148.088-.231.029-.091,0-.167.025-.257a.736.736,0,0,1,.025-.256,1.934,1.934,0,0,0,.087-.226c.028-.089.026-.172.054-.26s.027-.171.055-.259.026-.169.054-.256.057-.134.085-.221.086-.137.113-.223a1.548,1.548,0,0,1,.054-.212l.082-.255a.645.645,0,0,1,.112-.178,1,1,0,0,1,.109-.216,1.173,1.173,0,0,1,.081-.211c.055-.086.111-.094.137-.176l.108-.171a.455.455,0,0,0,.106-.209.7.7,0,0,0,.134-.132c.053-.045.079-.125.132-.17l.1-.164.157-.131a.767.767,0,0,1,.127-.164.189.189,0,0,1,.128-.087c.051-.042.1-.047.153-.089a.6.6,0,0,0,.124-.122c.051,0,.1-.045.15-.049.049-.041.1-.045.148-.086s.07-.115.119-.119a.233.233,0,0,1,.146-.047c.047-.04.12-.009.168-.012.047-.04.069-.077.116-.116a.221.221,0,0,0,.14-.046c.047,0,.094.03.139-.009a.208.208,0,0,0,.137-.044c.046,0,.091-.041.136-.044s.091.029.136.026.087-.075.131-.078.089.029.133.026.108-.041.151-.044.088.029.13.026c.044.032.086-.005.128-.008s.087.062.128.059.083-.039.124-.041.084.027.125.025c.042.03.063.062.1.092a.171.171,0,0,1,.122.025c.041,0,.1-.04.12-.009.04,0,.081.027.12.024l.121.089c.039,0,.08.058.1.057.04.029.079.026.118.055s.076-.006.115.022l.117.086a.5.5,0,0,0,.1.119c.02.03.075.024.1.054a.4.4,0,0,1,.1.117c.038.028.057.058.1.085a.409.409,0,0,1,.093.084c.037.027.058.088.1.115a.392.392,0,0,0,.076.116c.036.026.056.086.093.113a.86.86,0,0,0,.058.147.673.673,0,0,0,.076.145c.02.059.072.052.092.11s.038.087.057.146.022.12.042.179.038.086.057.144.072.08.074.141a.536.536,0,0,1,.025.18c.019.058.054.082.073.14a.6.6,0,0,1,.041.176,1.056,1.056,0,0,1,.04.145l.057.172a.626.626,0,0,1,.024.178.667.667,0,0,1,.025.179c.019.057.005.122.024.178,0,.061.021.118.024.179a.888.888,0,0,0,.04.173l.008.183c0,.061.053.077.055.138a.686.686,0,0,0,.008.182.654.654,0,0,0,.024.178c0,.061-.011.127-.009.187a.617.617,0,0,1,.024.178c0,.061-.01.158-.007.219a.583.583,0,0,1,.04.172c0,.061-.027.133-.025.194,0,.092.021.086.024.178a.77.77,0,0,1-.008.19.446.446,0,0,1-.043.171c-.014.068-.063.087-.1.13l-.1.1c-.032.044-.031.075-.081.094-.05.051-.051.02-.1.071l-.1.1c-.051.052-.05.084-.083.129-.051.053-.07.028-.1.074l-.1.106c-.052.053-.051.085-.1.139-.054.022-.055-.01-.108.044s-.034.08-.087.134-.074.03-.109.078l-.109.112c-.055.056-.053.089-.09.138-.055.056-.076,0-.132.055s-.036.083-.092.141l-.113.116c-.038.05-.1.042-.137.058-.04-.017-.08,0-.122-.051-.041-.018-.1-.026-.125-.086a1.04,1.04,0,0,1-.03-.265l-.007-.205-.007-.2-.009-.238-.007-.2c0-.1.016-.109.012-.211s-.026-.163-.028-.231.015-.142.012-.21-.045-.122-.047-.19.015-.142.013-.209-.045-.123-.048-.191l-.007-.2a.636.636,0,0,0-.068-.185c0-.067-.025-.129-.028-.2-.022-.062-.025-.13-.047-.192s-.025-.13-.048-.192a.7.7,0,0,0-.068-.154c-.023-.063-.086-.081-.107-.11-.044-.058-.067-.121-.089-.15a.381.381,0,0,1-.108-.078c-.044-.025-.107-.009-.13-.039-.042.01-.087-.049-.13-.039a.171.171,0,0,0-.131,0l-.153.036-.132.03a.321.321,0,0,1-.132.1.238.238,0,0,0-.135.068c-.045.01-.066.087-.111.134s-.091.059-.136.106a.843.843,0,0,1-.112.174.873.873,0,0,1-.089.206,1.131,1.131,0,0,1-.065.2.74.74,0,0,0-.017.227.964.964,0,0,0-.065.241c-.022.08-.019.154-.041.235a.871.871,0,0,1-.042.237c0,.074-.02.156-.017.23-.022.082,0,.149-.018.231,0,.075.029.142.031.216s-.02.158-.017.232l.007.225.007.262C145.039,316.879,144.992,316.971,144.995,317.047Z" fill="#969696"/></g><text transform="translate(1614 1435)" fill="#969696" font-size="14" font-family="SegoeUI, Segoe UI"><tspan x="0" y="0">product</tspan></text></g></svg>