<svg xmlns="http://www.w3.org/2000/svg" xmlns:xlink="http://www.w3.org/1999/xlink" width="337.674" height="436.693" viewBox="0 0 337.674 436.693"><defs><linearGradient id="a" x1="0.272" y1="0.582" x2="0.709" y2="0.433" gradientUnits="objectBoundingBox"><stop offset="0" stop-color="#210036"/><stop offset="1" stop-color="#37003c"/></linearGradient></defs><g transform="translate(703.655 42.761) rotate(-9)"><path d="M-652.391,107.948s-2.489,9.253,9.753,12.765,42.917,2.695,46.568-10.461-7.985-33.393-7.985-33.393-24.533,16.621-42.618,2.152Z" transform="translate(55.538 157.937)" fill="#e7d6ea"/><path d="M-669.825,7.049l-18.3,10.793s-11.9,5.484-18.5,10.909-20.1,19.407-9.735,30.5,25.632,9.287,33.371,4.766,27.271-19.133,27.271-19.133Z" transform="translate(0.923 101.493)" fill="#e7d6ea"/><path d="M-553.927,124.845s7.726-17.662,23.757-15.161,30.5,18.778,30.5,18.778l12.66-63.3s-18.085-14.468-36.171-7.234c0,0-.75-16.154,4.145-19.832s46.924-25.13,49.422-26.159,21.634-15.461,21.634-15.461l16.308-12.8,6.182-10.446s2.662-5.1.412-8.126S-436.4-44.073-436.4-44.073a34.649,34.649,0,0,0-21.337,2.7c-11.191,5.257-19.288,10.869-24.282,16.2S-497.634-14.413-502.269-12.6-537.65-10.8-537.65-10.8-648.4-5.235-653.61,2.837a124.151,124.151,0,0,1-13.244,16.286l-19.429,18.225-16.156,22.332,3.655,1.874s18.19-5.576,25.911,23.884l2.838,1.286s31.127-32.214,36.089-32.765l5.153,17.353,5.1,39.325,5.561,27.774,11.755,33.321.9,8.276,14.642,2.742,13.39-2.42,9.484-6.565,7.645-21.24Z" transform="translate(15.24 59.656)" fill="#fff"/><path d="M-459.976-34.895c-2.25-3.029-11.318-9.178-11.318-9.178a34.65,34.65,0,0,0-21.337,2.7,102.584,102.584,0,0,0-16.678,9.64,4.814,4.814,0,0,1-.177.6c-3.635,9-7.918,18.619-16.527,23.918-10.732,6.6-25.121,7.417-37.359,7.54-5.017.051-5.921-6.292-2.745-8.652a5.447,5.447,0,0,1-.063-2.516c-3.782.043-6.366.043-6.366.043S-594.434-9.7-619.2-7.766c-3.474,5.474-7.771,10.632-10.347,16.7a5.06,5.06,0,0,1-4.727,3.433,6.664,6.664,0,0,1-.68.443c-10.866,5.606-22.871,17.022-24.206,29.7-1.232,11.69,7.636,22.672,9.041,34.086,1.848,15.013,1.288,30.592,6.679,44.959,2.836,7.554,6.446,21.015,15.825,21.417,4.507.194,8.992,4.067,9.48,8.627.528,4.925-7.99,2.769-9.122,7.6-1.494,6.388,2.441,20.659-5.6,22.216l7.133,1.337,13.39-2.42,9.484-6.565,7.645-21.24,6.382-27.678s7.726-17.662,23.757-15.161,30.5,18.778,30.5,18.778l12.66-63.3s-18.085-14.468-36.171-7.234c0,0-.751-16.154,4.145-19.832s46.925-25.13,49.422-26.159,21.634-15.461,21.634-15.461l16.308-12.8,6.182-10.446S-457.726-31.867-459.976-34.895ZM-580.827,9.6c-3.791,7.722-9.75,14.689-11.524,23.276-.955,4.615-.259,9.678.438,14.286.691,4.57,1.565,9.11,2.083,13.705.405,3.6-5.223,3.556-5.625,0-.461-4.095-1.307-8.258-1.98-12.437a2.3,2.3,0,0,1-1.27-1.282,27.878,27.878,0,0,1-2.111-8.2c-.667-1.367-1.427-2.668-2.1-3.82-1.59-2.724-4.364-7.406-7.129-8.489-2.3-.9-3.015-4.854,0-5.424a24.845,24.845,0,0,0,7.223-3.053c2.094-1.143,4.266-2.1,6.411-3.143,4.192-2.035,7.992-4.388,10.725-8.258A2.815,2.815,0,0,1-580.827,9.6Z" transform="translate(50.137 59.656)" fill="#e7d6ea"/><g transform="translate(-516.986 11.558)"><path d="M-599.284,63.067a3.617,3.617,0,0,1-3.581-3.14c-.711-5.33-1.174-12.2,1.57-18.082,2.684-5.744,9.43-9.135,16.584-12.714l12.575-7.184a116.9,116.9,0,0,1,16.584-7.817,45.42,45.42,0,0,0,12.066-6.471,297.79,297.79,0,0,0,26.461-20.272c5-4.427,9.339-8.489,11.781-13.363,2.306-4.6.232-7.048-.45-7.851-4.9-5.78-12.848-7.037-23.628-3.738A53.34,53.34,0,0,0-551.506-24.8c-22.287,22.287-52.133,21.008-53.385,20.95a3.621,3.621,0,0,1-3.427-3.8,3.616,3.616,0,0,1,3.8-3.425c.423.022,28,1.062,47.9-18.84a60.56,60.56,0,0,1,25.184-14.564c13.609-4.163,24.421-2.1,31.264,5.979,3.769,4.447,4.266,10.046,1.4,15.769-3.268,6.52-9.155,11.732-13.454,15.539a303.669,303.669,0,0,1-27.1,20.775,52.4,52.4,0,0,1-13.624,7.3,110.086,110.086,0,0,0-15.642,7.372l-12.615,7.209c-.058.033-.118.065-.177.094-6.03,3.015-11.727,5.863-13.356,9.35-1.95,4.176-1.534,9.71-.953,14.065a3.617,3.617,0,0,1-3.107,4.064A3.628,3.628,0,0,1-599.284,63.067Z" transform="translate(608.323 46.576)" fill="#37003c"/></g><g transform="translate(-639.146 -9.56)"><path d="M-612.263,38.7c-32.823-.275-63.871-16.7-63.6-48.536.253-30.221,36.516-48.666,66.878-48.411,39.184.327,63.872,16.7,63.619,46.758C-545.647,21.636-579.644,38.969-612.263,38.7Z" transform="translate(675.869 58.253)" fill="#e7d6ea"/></g><g transform="translate(-639.099 -9.622)"><path d="M-619.331,27.849c-29.163-.244-56.747-14.835-56.51-43.123.224-26.85,32.443-43.237,59.418-43.011,34.815.291,56.749,14.835,56.524,41.542C-560.145,12.693-590.351,28.093-619.331,27.849Z" transform="translate(675.843 58.287)" fill="#fff"/></g><g transform="translate(-639.146 -9.561)"><path d="M-609.609-51.02h0l.561,0c18.027.15,32.706,3.914,42.452,10.88,9.39,6.711,14.1,16.329,13.994,28.582-.134,16.123-9.781,26.027-17.85,31.5-10.8,7.323-25.766,11.524-41.049,11.524l-.7,0c-15.611-.13-29.879-4.095-40.177-11.162-10.889-7.473-16.358-17.594-16.253-30.08.121-14.362,10.189-23.952,18.615-29.47,11.253-7.37,26.36-11.768,40.408-11.77m0-7.234c-30.232,0-66,18.4-66.256,48.415-.266,31.838,30.781,48.261,63.6,48.536.255,0,.5,0,.76,0,32.384,0,65.858-17.322,66.133-50.192.253-30.06-24.435-46.431-63.619-46.758-.208,0-.412,0-.622,0Z" transform="translate(675.869 58.254)" fill="#37003c"/></g><g transform="translate(-509.978 -75.765)"><path d="M-576.216-33.017c-12.172,0-22.95-10.775-25.631-25.623a34.147,34.147,0,0,1,2.966-21.809c3.467-6.621,8.976-10.916,15.51-12.1a20.073,20.073,0,0,1,3.528-.315c12.173,0,22.952,10.775,25.631,25.623a34.127,34.127,0,0,1-2.966,21.809c-3.467,6.619-8.976,10.915-15.51,12.094A19.907,19.907,0,0,1-576.216-33.017Z" transform="translate(606.065 96.477)" fill="#fff"/><path d="M-578.226-87.626c10.164,0,19.7,9.5,22.072,22.648,2.6,14.385-4.37,27.683-15.557,29.7a16.3,16.3,0,0,1-2.888.259c-10.164,0-19.7-9.5-22.07-22.648-2.6-14.385,4.37-27.683,15.557-29.7a16.265,16.265,0,0,1,2.886-.259m0-7.234a23.542,23.542,0,0,0-4.171.373c-7.545,1.362-14.132,6.456-18.073,13.976a37.772,37.772,0,0,0-3.321,24.13c2.991,16.572,15.266,28.6,29.19,28.6a23.578,23.578,0,0,0,4.172-.374c7.545-1.362,14.132-6.455,18.071-13.976a37.744,37.744,0,0,0,3.32-24.128c-2.989-16.572-15.266-28.6-29.19-28.6Z" transform="translate(604.448 94.86)" fill="#37003c"/></g><ellipse cx="20.585" cy="26.466" rx="20.585" ry="26.466" transform="translate(-506.9 -64.617) rotate(-10.229)" fill="#e7d6ea"/><ellipse cx="15.967" cy="20.53" rx="15.967" ry="20.53" transform="translate(-501.732 -54.368) rotate(-10.229)" fill="#fff"/><g transform="translate(-688.124 -43.03)"><path d="M-673.034-17.769c-12.247,2.21-24.48-8.764-27.322-24.509s4.784-30.3,17.031-32.514" transform="translate(704.568 78.351)" fill="#fff"/><path d="M-674.619-12.273a24.575,24.575,0,0,1-16.4-6.733A37.037,37.037,0,0,1-702.3-40.045,37.043,37.043,0,0,1-699.085-63.7c3.745-7.151,9.69-11.79,16.736-13.061l1.284,7.12c-4.8.866-8.925,4.167-11.613,9.3a29.77,29.77,0,0,0-2.5,19.013,29.765,29.765,0,0,0,8.988,16.937c4.312,3.868,9.334,5.52,14.128,4.655l1.286,7.118A21.756,21.756,0,0,1-674.619-12.273Z" transform="translate(702.95 76.76)" fill="#37003c"/></g><path d="M-580.508,67.712C-629.336,76.523-681.231,54.374-692.08-5.745c-10.3-57.069,37.025-102.161,82.191-110.312,58.291-10.518,100.725,13.338,110.967,70.1C-487.634,16.6-531.985,58.957-580.508,67.712Z" transform="translate(22.462 0)" fill="#e7d6ea"/><path d="M-594.3,51.914c-42.242,7.623-87.134-11.539-96.52-63.547-8.909-49.37,32.029-88.378,71.1-95.43,50.426-9.1,87.134,11.539,96,60.642C-513.957,7.7-552.325,44.34-594.3,51.914Z" transform="translate(23.636 7.537)" fill="#fff"/><path d="M-529.125-53.105c4.632,25.667-23.735,61.237-65.29,68.735s-80.565-15.912-85.2-41.58S-654.31-78.5-612.755-86-533.756-78.774-529.125-53.105Z" transform="translate(33.315 24.675)" fill="url(#a)"/><circle cx="5.881" cy="5.881" r="5.881" transform="translate(-637.645 -21.073)" fill="#fff"/><circle cx="5.881" cy="5.881" r="5.881" transform="translate(-518.992 -42.484)" fill="#fff"/><g transform="translate(-631.835 0.639)"><path d="M-617.667-21.308c-23.636,0-45.313-10.021-53.741-26A3.617,3.617,0,0,1-669.9-52.2a3.62,3.62,0,0,1,4.886,1.512c7.558,14.327,32.4,26.072,60.885,20.932a3.623,3.623,0,0,1,4.2,2.919,3.616,3.616,0,0,1-2.919,4.2A83.718,83.718,0,0,1-617.667-21.308Z" transform="translate(671.826 52.614)" fill="#fff"/></g><g transform="translate(-652.697 -78.43)"><path d="M-679.747-47.446a3.6,3.6,0,0,1-2.13-.7,3.616,3.616,0,0,1-.789-5.053c15.933-21.813,39.216-35.616,69.2-41.027,30.875-5.57,61.527,0,84.094,15.28a3.619,3.619,0,0,1,.966,5.024,3.617,3.617,0,0,1-5.024.966c-21.015-14.23-49.717-19.389-78.751-14.15-28.1,5.069-49.845,17.912-64.644,38.173A3.614,3.614,0,0,1-679.747-47.446Z" transform="translate(683.362 96.334)" fill="#e7d6ea"/></g><path d="M-683.362-51.74c7.437-12.011,18.288-21.907,30.51-29.278a112.933,112.933,0,0,1,19.341-9.276,127.95,127.95,0,0,1,20.729-5.6,124.8,124.8,0,0,1,21.4-1.834,112.837,112.837,0,0,1,21.348,2.12c14,2.762,27.586,8.379,38.638,17.181a112.136,112.136,0,0,0-39.345-13.005A127.624,127.624,0,0,0-591.336-92.6a126.638,126.638,0,0,0-20.5,2.038,130.677,130.677,0,0,0-19.966,5.095,128.258,128.258,0,0,0-18.966,8.115A113.069,113.069,0,0,0-683.362-51.74Z" transform="translate(30.665 16.772)" fill="#37003c"/><path d="M-584.215-111.242c20.975,0,38.341,5.578,51.614,16.577,13.685,11.343,22.621,28.163,26.56,49.992,4.851,26.884-.984,51.5-16.874,71.182C-537,43.96-558.46,56.383-581.794,60.593a109.055,109.055,0,0,1-19.294,1.745c-20.4,0-38.853-5.811-53.375-16.8-16.148-12.228-26.41-29.913-30.5-52.563-4.315-23.911,2.339-47.912,18.733-67.585,14.7-17.633,36.238-30.463,57.622-34.323a138.086,138.086,0,0,1,24.386-2.3h0m-.011-7.234a144.893,144.893,0,0,0-25.663,2.418c-45.167,8.151-92.489,53.244-82.191,110.312,9.33,51.7,49.01,75.319,90.993,75.319a115.918,115.918,0,0,0,20.58-1.861c48.523-8.755,92.874-51.109,81.585-113.669-8.67-48.053-40.4-72.523-85.3-72.519Z" transform="translate(22.462 0.001)" fill="#37003c"/><g transform="translate(-447.487 42.979)"><path d="M-567.9-12.463c21.361,5.9,33.1-1.841,29.157-10s-21.853-3.284-21.853-3.284" transform="translate(571.512 30.823)" fill="#e7d6ea"/><path d="M-552.305-5.153a56.741,56.741,0,0,1-14.935-2.2,3.614,3.614,0,0,1-2.523-4.447,3.618,3.618,0,0,1,4.449-2.525c13,3.59,21.863,1.7,24.593-1.572a2.819,2.819,0,0,0,.344-3.371c-1.791-3.706-11.589-3.008-17.648-1.369a3.614,3.614,0,0,1-4.436-2.543,3.617,3.617,0,0,1,2.537-4.438c2.129-.579,20.95-5.366,26.059,5.2a10,10,0,0,1-1.3,11.153C-538.524-7.242-544.635-5.153-552.305-5.153Z" transform="translate(569.895 29.203)" fill="#37003c"/></g><g transform="translate(-694.223 118.493)"><path d="M-669.25,44.2a2.715,2.715,0,0,1-2.662-2.206c-2.252-11.821-6.65-19.373-13.072-22.448-8.236-3.937-17.257.774-17.348.823A2.716,2.716,0,0,1-706,19.25a2.712,2.712,0,0,1,1.118-3.67c.467-.25,11.558-6.037,22.243-.93,8.064,3.859,13.468,12.718,16.06,26.327a2.712,2.712,0,0,1-2.158,3.172A2.721,2.721,0,0,1-669.25,44.2Z" transform="translate(706.323 -12.551)" fill="#37003c"/></g><g transform="translate(-469.492 25.35)"><path d="M-559.926,4.455a2.678,2.678,0,0,1-.817-.128C-572,.775-578.883-4.906-581.209-12.552c-3.756-12.36,6.084-24.855,6.5-25.381a2.717,2.717,0,0,1,3.814-.423,2.714,2.714,0,0,1,.427,3.809h0c-.087.109-8.484,10.828-5.547,20.437,1.78,5.824,7.468,10.287,16.9,13.266a2.713,2.713,0,0,1,1.771,3.4A2.714,2.714,0,0,1-559.926,4.455Z" transform="translate(582.062 38.95)" fill="#37003c"/></g><g transform="translate(-721.288 55.949)"><path d="M-573.452,206.622c-9.815,0-19.55-2.528-24.647-10.305-4.572-6.979-1.644-17.861.94-27.463,1.237-4.6,2.405-8.945,2.407-11.694,0-2.91-1.449-6.721-2.724-10.083-.552-1.452-1.083-2.854-1.5-4.158-2.212-6.849-4.7-14.215-7.6-22.516-4.212-12.047-5.259-24.589-6.27-36.719-.727-8.717-1.479-17.731-3.42-26.3l-.316-1.4a141.945,141.945,0,0,0-4.044-15.3,47.449,47.449,0,0,0-5.737,4.917l-.257.244c-1.713,1.628-3.756,3.946-5.733,6.185-2.174,2.467-4.424,5.019-6.467,6.932a249.873,249.873,0,0,1-24.573,20.744l-1,.722c-10.077,7.267-26.944,19.426-41.088,14.188-9.556-3.541-13.284-9.348-14.727-13.6-2.438-7.169-.713-15.758,4.986-24.837,3.512-5.594,10.133-8.542,15.975-11.141,3.2-1.422,6.5-2.892,7.82-4.3,2.689-2.859,4.532-6.413,6.48-10.175.948-1.827,1.926-3.715,3.024-5.552,2.7-4.529,6.368-8.677,11.88-13.452,2.122-1.837,4.339-3.615,6.484-5.333,6.431-5.153,12.5-10.019,16.55-16.642,1.989-3.257,7.218-11.88,16.405-11.614l-.233,7.231c-3.447-.13-6.438,2.328-10,8.155-4.708,7.7-11.568,13.2-18.2,18.516-2.091,1.677-4.254,3.411-6.27,5.156-4.9,4.248-8.115,7.856-10.408,11.694-.984,1.649-1.87,3.36-2.811,5.172-2.091,4.035-4.254,8.209-7.634,11.8-2.317,2.463-6.12,4.156-10.146,5.948-4.9,2.181-10.45,4.652-12.79,8.379-4.438,7.068-5.952,13.7-4.265,18.662,1.365,4.015,4.861,7.091,10.39,9.14,10.531,3.9,25.437-6.847,34.346-13.273l1.007-.725a243.746,243.746,0,0,0,23.851-20.151c1.792-1.678,3.927-4.1,5.988-6.437,2.08-2.358,4.23-4.8,6.174-6.645l.255-.244c3.21-3.053,6.849-6.513,11.443-8.135l3.188-1.125,1.336,3.107c2.742,6.37,4.4,13.712,5.858,20.189l.313,1.391c2.053,9.064,2.827,18.335,3.574,27.3,1.018,12.215,1.98,23.755,5.889,34.932,2.923,8.357,5.427,15.776,7.656,22.683.387,1.194.875,2.478,1.382,3.811,1.5,3.943,3.2,8.413,3.2,12.653,0,3.706-1.291,8.5-2.657,13.571-2.08,7.732-4.67,17.353-1.874,21.618,6.921,10.565,29.38,7.269,39.866,3.156,7.422-2.91,10.18-7.241,8.941-14.045-.53-2.914-1.953-6.115-3.6-9.82-2.42-5.44-5.163-11.6-6.276-19.395l-.108-.763.212-.742c2.924-10.236,8.536-34.737,10.8-45,1.192-5.411,8.26-10.9,8.56-11.132,7.88-6.062,15.986-8.135,24.1-6.16,12.994,3.163,23.424,16.731,28.409,27.389l-6.552,3.064c-3.467-7.413-12.333-20.688-23.569-23.424-5.95-1.447-11.831.143-17.971,4.867-2.707,2.082-5.579,5.462-5.907,6.952-2.221,10.088-7.668,33.87-10.69,44.667,1.042,6.466,3.465,11.909,5.612,16.734,1.76,3.959,3.424,7.7,4.111,11.468,1.3,7.158.031,16.8-13.419,22.073A70.406,70.406,0,0,1-573.452,206.622Z" transform="translate(721.288 22.031)" fill="#37003c"/></g><g transform="translate(-495.726 113.101)"><path d="M-568.386,78.42a3.433,3.433,0,0,1-.407-.024,3.617,3.617,0,0,1-3.194-4l2.651-23.732c1.865-16.68-8.943-31.885-24.092-33.9a3.618,3.618,0,0,1-3.109-4.062A3.613,3.613,0,0,1-592.474,9.6c19.02,2.525,32.626,21.308,30.329,41.87L-564.8,75.2A3.618,3.618,0,0,1-568.386,78.42Z" transform="translate(596.568 -9.57)" fill="#37003c"/></g><g transform="translate(-521.279 112.854)"><path d="M-607.079,24.985a3.611,3.611,0,0,1-2.68-1.186,3.617,3.617,0,0,1,.25-5.109A35.242,35.242,0,0,1-581.388,9.71a3.62,3.62,0,0,1,3.131,4.046,3.592,3.592,0,0,1-4.046,3.131,28.02,28.02,0,0,0-22.346,7.162A3.6,3.6,0,0,1-607.079,24.985Z" transform="translate(610.696 -9.433)" fill="#37003c"/></g><path d="M-614.755,39.443a36,36,0,0,1,8.542-24.269l.087-.1a3.668,3.668,0,0,1,5.169-.418,3.668,3.668,0,0,1,.418,5.169,3.775,3.775,0,0,1-.814.711A32.337,32.337,0,0,0-614.755,39.443Z" transform="translate(86.122 106.935)" fill="#37003c"/><g transform="translate(-692.786 147.424)"><path d="M-698.635,30.549S-707,44.39-701.855,51.861s14.06,1.092,19.5-20.388" transform="translate(707.146 -26.931)" fill="#e7d6ea"/><path d="M-695.445,60.092c-2.964,0-5.737-1.608-7.769-4.563-6.285-9.13,2.121-23.611,3.1-25.233a3.615,3.615,0,0,1,4.966-1.226,3.617,3.617,0,0,1,1.228,4.963h0c-1.85,3.082-6.437,12.891-3.337,17.395,1.085,1.579,1.787,1.45,2.022,1.411,2.427-.436,7.359-6.29,11-20.635a3.615,3.615,0,0,1,4.393-2.617,3.617,3.617,0,0,1,2.619,4.395c-3.935,15.525-9.876,24.75-16.733,25.98A8.49,8.49,0,0,1-695.445,60.092Z" transform="translate(705.528 -28.548)" fill="#37003c"/></g><g transform="translate(-599.071 257.437)"><path d="M-631.306,107.773c-20.263,0-22.386-15.977-22.4-16.138l5.386-.657c.061.465,1.693,11.368,17.018,11.368.271,0,27.347-.174,33.744-12.969l4.854,2.427C-600.6,107.592-630.056,107.773-631.306,107.773Z" transform="translate(653.71 -89.378)" fill="#37003c"/></g><g transform="translate(-593.848 227.003)"><path d="M-631.389,90.623a44.842,44.842,0,0,1-17.933-3.892,2.714,2.714,0,0,1-1.214-3.641,2.714,2.714,0,0,1,3.637-1.214c.969.479,23.529,11.341,38.216-8.243a2.716,2.716,0,0,1,3.8-.543,2.714,2.714,0,0,1,.542,3.8C-612.464,87.718-622.72,90.623-631.389,90.623Z" transform="translate(650.822 -72.55)" fill="#37003c"/></g><path d="M-655.486,3.361a42.862,42.862,0,0,1-1.244,8.062,23.548,23.548,0,0,1-1.436,4.114,13.312,13.312,0,0,1-2.892,4.169l-.691.655a3.894,3.894,0,0,1-5.505-.148,3.894,3.894,0,0,1,.146-5.505,3.857,3.857,0,0,1,2.024-1.011,6.47,6.47,0,0,0,2.543-1.365,19.094,19.094,0,0,0,2.59-2.55A41.173,41.173,0,0,0-655.486,3.361Z" transform="translate(42.824 98.511)" fill="#37003c"/><path d="M-608.786,2.181a52.641,52.641,0,0,1-1.15-13.466,32.329,32.329,0,0,1,3.646-13.973l.013-.027a3.654,3.654,0,0,1,4.952-1.465,3.65,3.65,0,0,1,1.467,4.95,3.786,3.786,0,0,1-.572.783,23.363,23.363,0,0,0-3.458,4.661,35.966,35.966,0,0,0-2.489,5.72A50.851,50.851,0,0,0-608.786,2.181Z" transform="translate(89.993 73.807)" fill="#37003c"/><path d="M-648.322,54.049a24.806,24.806,0,0,0,9.564,7.551,38.167,38.167,0,0,0,5.751,1.879l3.109.707a29.866,29.866,0,0,1,3.279.714,23.011,23.011,0,0,1-3.27,1.062,25.424,25.424,0,0,1-3.435.344,17.462,17.462,0,0,1-6.9-1.4,14.908,14.908,0,0,1-5.643-4.375A10.906,10.906,0,0,1-648.322,54.049Z" transform="translate(58.996 139.494)" fill="#37003c"/><g transform="translate(-564.007 81.415)"><path d="M-609,95.136a1.9,1.9,0,0,1-.347-.033,1.811,1.811,0,0,1-1.431-2.121c.872-4.48,1.74-12.685.563-16.923a39.477,39.477,0,0,0-2.078-5.438c-1.335-3.024-2.716-6.151-2.765-10.423a80.207,80.207,0,0,1,.541-8.817,78.719,78.719,0,0,0,.524-8.327c-.154-16.639-10.419-33.6-20.031-48.2a1.811,1.811,0,0,1,.517-2.5,1.809,1.809,0,0,1,2.5.517c9.894,15.027,20.464,32.536,20.626,50.156a81.008,81.008,0,0,1-.543,8.717,77.6,77.6,0,0,0-.523,8.419c.04,3.53,1.159,6.068,2.456,9a42.356,42.356,0,0,1,2.255,5.93c1.447,5.209.369,14.132-.5,18.583A1.807,1.807,0,0,1-609,95.136Z" transform="translate(634.322 7.951)" fill="#37003c"/></g><path d="M-615.322,29.638a28.7,28.7,0,0,1,7.507-10.761,32.138,32.138,0,0,1,11.521-6.686l3.259-.883a33.166,33.166,0,0,1,3.328-.552,44.583,44.583,0,0,1,6.737-.4c2.248.034,4.476.342,6.728.508l6.614,1.262a1.809,1.809,0,0,1,1.44,2.118,1.81,1.81,0,0,1-2.118,1.438c-.04-.007-.078-.016-.118-.025l-.165-.043-6.2-1.631c-2.1-.293-4.2-.738-6.321-.917a42.132,42.132,0,0,0-6.373-.056,31.058,31.058,0,0,0-3.178.3l-3.134.622a30.748,30.748,0,0,0-11.435,5.635A28.259,28.259,0,0,0-615.322,29.638Z" transform="translate(85.678 104.165)" fill="#37003c"/><path d="M-608.322-7.951a62.266,62.266,0,0,1,7.983,10.7,31.346,31.346,0,0,1,4.6,13.6l.007.094a3.665,3.665,0,0,1-3.4,3.912,3.663,3.663,0,0,1-3.91-3.4,3.691,3.691,0,0,1,.083-1.072c.783-3.431.331-7.67-.722-11.743A60.613,60.613,0,0,0-608.322-7.951Z" transform="translate(91.338 89.365)" fill="#37003c"/><g transform="translate(-599.854 96.289)"><circle cx="13.564" cy="13.564" r="13.564" transform="translate(1.81 1.81)" fill="#ff2882"/><path d="M-638.768,31.021a15.4,15.4,0,0,1-14.944-11.765A15.39,15.39,0,0,1-642.378.7a15.394,15.394,0,0,1,18.552,11.334h0a15.277,15.277,0,0,1-1.825,11.624,15.27,15.27,0,0,1-9.509,6.929A15.39,15.39,0,0,1-638.768,31.021Zm0-27.132a11.756,11.756,0,0,0-2.758.331A11.769,11.769,0,0,0-650.2,18.407a11.765,11.765,0,0,0,14.186,8.668,11.672,11.672,0,0,0,7.272-5.3,11.682,11.682,0,0,0,1.4-8.887A11.778,11.778,0,0,0-638.77,3.889Z" transform="translate(654.144 -0.274)" fill="#37003c"/></g><path d="M-646.55,6.966c2.505-.476,3.735,2.3,4.493,4.449.622,1.772,1.275,3.827,1.581,4.516a11.155,11.155,0,0,0-.076-4.12,5.225,5.225,0,0,0-2.172-3.568.413.413,0,0,1-.226-.266c-.1-.552,1.009-2.105,2.622-2.411,2.167-.409,4.333.345,5.008,3.912.808,4.268-2.384,9.007-5.442,9.585-1.635.311-3.16-.655-4.3-2.044a29.626,29.626,0,0,1-3.058-5.227,7.091,7.091,0,0,0-1.738-2.331C-649.98,8.825-648.758,7.383-646.55,6.966Z" transform="translate(57.746 100.213)" fill="#fff"/><path d="M-606.185,6.6a29.051,29.051,0,0,1-1.141,3.668l-.729,1.794c-.273.584-.606,1.139-.91,1.709a31.47,31.47,0,0,1-4.577,6.272,36.979,36.979,0,0,1-5.883,5.095,36.413,36.413,0,0,1-6.842,3.794l-.239-1.649a23.463,23.463,0,0,0,4.391-.17,37.427,37.427,0,0,0,4.444-.752c1.467-.358,2.919-.783,4.37-1.246s2.865-1.038,4.3-1.59a37.821,37.821,0,0,1-4.046,2.225,33.1,33.1,0,0,1-4.319,1.713,38.76,38.76,0,0,1-4.532,1.152,24.084,24.084,0,0,1-4.758.376.847.847,0,0,1-.818-.874.842.842,0,0,1,.5-.745l.074-.033a41.918,41.918,0,0,0,6.453-3.668,45.1,45.1,0,0,0,5.771-4.735,34.587,34.587,0,0,0,4.845-5.7A39.029,39.029,0,0,0-606.185,6.6Z" transform="translate(75.852 101.127)" fill="#37003c"/><path d="M-601.82,33.549a27.946,27.946,0,0,0,4.342,9.833,18.016,18.016,0,0,0,3.494,3.641,14.085,14.085,0,0,0,4.163,2.154l.09.033a2.734,2.734,0,0,1,1.684,3.485,2.735,2.735,0,0,1-3.485,1.684,2.837,2.837,0,0,1-.586-.286,18.88,18.88,0,0,1-4.758-4.207,21.453,21.453,0,0,1-2.988-5.212A29.3,29.3,0,0,1-601.82,33.549Z" transform="translate(96.591 122.919)" fill="#37003c"/><g transform="translate(-496.306 94.424)"><path d="M-570.079,108.139l-3.751-.987C-591.856,102.4-597.3,86.6-592.552,68.568l3.492-36.089c4.751-18.028,21.836-35.095,39.862-30.344l9.535,1.988c18.028,4.751,24.386,28.521,19.635,46.546l-14.691,33.389C-539.467,102.086-557.34,111.932-570.079,108.139Z" transform="translate(599.076 2.445)" fill="#e7d6ea"/><g transform="translate(0 0)"><path d="M-563.292,114.089a33.357,33.357,0,0,1-8.987-1.233h0a33.658,33.658,0,0,1-24.184-37.737l2.335-14.564q2.368-14.731,4.7-29.467A37.765,37.765,0,0,1-572.74,5.416,37.579,37.579,0,0,1-542.669.458c11.119,2.93,21.1,11.269,26.7,22.307,5.223,10.3,5.314,20.957.28,32.594l-16.62,38.435A33.831,33.831,0,0,1-563.292,114.089ZM-552.081,6.476a30.578,30.578,0,0,0-16.7,5,30.507,30.507,0,0,0-13.5,20.737q-2.314,14.755-4.7,29.494l-2.333,14.559a26.425,26.425,0,0,0,18.988,29.628h0a26.536,26.536,0,0,0,31.382-14.966l16.621-38.433c4.183-9.674,4.154-18.078-.092-26.452-4.61-9.086-13.074-16.208-22.091-18.583A29.628,29.628,0,0,0-552.081,6.476Z" transform="translate(596.888 0.757)" fill="#37003c"/></g><g transform="translate(8.954 35.64)"><rect width="5.425" height="66.682" transform="translate(0 5.224) rotate(-74.366)" fill="#37003c"/></g><g transform="translate(17.327 14.017)"><rect width="5.426" height="63.916" transform="translate(0 5.238) rotate(-74.908)" fill="#37003c"/></g><g transform="translate(6.273 60.21)"><rect width="5.425" height="64.63" transform="matrix(0.253, -0.968, 0.968, 0.253, 0, 5.249)" fill="#37003c"/></g><g transform="translate(1.285 79.298)"><rect width="5.426" height="58.239" transform="matrix(0.271, -0.962, 0.962, 0.271, 0, 5.223)" fill="#37003c"/></g></g><g transform="translate(-517.971 43.082)"><path d="M-605.038-10.826c-1.168,0-1.9-.024-2.087-.031a1.807,1.807,0,0,1-1.742-1.872,1.833,1.833,0,0,1,1.872-1.743c.335.011,33.843,1.029,48-14.1a1.814,1.814,0,0,1,2.557-.085,1.809,1.809,0,0,1,.083,2.557C-569.659-11.88-597.187-10.826-605.038-10.826Z" transform="translate(608.868 29.146)" fill="#37003c"/></g><g transform="translate(-680.386 64.234)"><path d="M-696.866,41.389a1.8,1.8,0,0,1-.93-.259,1.809,1.809,0,0,1-.618-2.481,97.827,97.827,0,0,1,15.094-19.608A76.024,76.024,0,0,1-673.2,11.268a70.07,70.07,0,0,0,9.909-7.65c1.68-1.651,3.2-4.722,4.816-7.97,2.856-5.757,6.093-12.278,11.721-13.079a1.814,1.814,0,0,1,2.045,1.534,1.808,1.808,0,0,1-1.535,2.045c-3.744.534-6.532,6.151-8.992,11.108-1.751,3.528-3.407,6.863-5.52,8.941a73.893,73.893,0,0,1-10.406,8.059,72.3,72.3,0,0,0-9.645,7.392,94.1,94.1,0,0,0-14.5,18.865A1.81,1.81,0,0,1-696.866,41.389Z" transform="translate(698.672 17.45)" fill="#37003c"/></g><g transform="translate(-696.031 123.939)"><path d="M-672.961,45.379a1.808,1.808,0,0,1-1.778-1.483c-1.93-10.54-6.1-17.825-12.408-21.652-8.381-5.087-17.742-2.293-17.834-2.264a1.808,1.808,0,0,1-2.261-1.2,1.808,1.808,0,0,1,1.2-2.261c.447-.137,11.025-3.292,20.776,2.628,7.225,4.386,11.965,12.493,14.09,24.093a1.81,1.81,0,0,1-1.454,2.105A1.848,1.848,0,0,1-672.961,45.379Z" transform="translate(707.322 -15.562)" fill="#37003c"/></g><g transform="translate(-592.943 222.787)"><path d="M-630.875,84.93a41.624,41.624,0,0,1-18.536-4.543,1.806,1.806,0,0,1-.675-2.463,1.808,1.808,0,0,1,2.465-.678c.911.515,22.484,12.421,39.356-6.424a1.808,1.808,0,0,1,2.554-.141,1.81,1.81,0,0,1,.141,2.554C-613.719,82.336-622.977,84.93-630.875,84.93Z" transform="translate(650.322 -70.219)" fill="#37003c"/></g><g transform="translate(-498.325 137.478)"><path d="M-591.343,64.646a1.807,1.807,0,0,1-1.521-.827c-.134-.208-13.2-20.945,2.845-40.121a1.8,1.8,0,0,1,2.546-.228,1.809,1.809,0,0,1,.228,2.548c-14.353,17.156-2.7,35.654-2.581,35.838a1.808,1.808,0,0,1-.539,2.5A1.783,1.783,0,0,1-591.343,64.646Z" transform="translate(598.005 -23.049)" fill="#37003c"/></g></g></svg>