<svg xmlns="http://www.w3.org/2000/svg" xmlns:xlink="http://www.w3.org/1999/xlink" width="35" height="35" viewBox="0 0 35 35"><defs><linearGradient id="a" x1="0.31" y1="0.55" x2="0.612" y2="0.474" gradientUnits="objectBoundingBox"><stop offset="0" stop-color="#140f2b"/><stop offset="1" stop-color="#37003c"/></linearGradient><linearGradient id="b" x1="0.202" y1="0.593" x2="0.684" y2="0.452" xlink:href="#a"/><linearGradient id="c" x1="0.181" y1="0.555" x2="0.662" y2="0.272" xlink:href="#a"/></defs><g transform="translate(-352.548 -1269.548)"><g transform="translate(352.548 1269.548)"><circle cx="17.5" cy="17.5" r="17.5" fill="#ff2882"/></g><path d="M390.739,1295.863a3.5,3.5,0,0,0-3.3-2.92l-.175.008a9.016,9.016,0,0,0-8.447-4.809,16.517,16.517,0,0,0-3.853.491,12.778,12.778,0,0,0-7.023,4.746,10.868,10.868,0,0,0-2.024,4.681l-.234.085a3.437,3.437,0,0,0-1.787,4.175,3.534,3.534,0,0,0,3.134,2.926l.252,0a9.653,9.653,0,0,0,4.048,3.9,12.069,12.069,0,0,0,8.3.8,12.5,12.5,0,0,0,7.181-4.732,10.448,10.448,0,0,0,1.924-5.106l.176-.06A3.414,3.414,0,0,0,390.739,1295.863Zm-26.194,6.3a2.8,2.8,0,0,1,1.367-3.394,10.133,10.133,0,0,0,.241,3.306,12.23,12.23,0,0,0,.892,2.5A2.908,2.908,0,0,1,364.545,1302.163Zm21.637,2.661a11.677,11.677,0,0,1-6.708,4.42,11.274,11.274,0,0,1-7.749-.746,9.286,9.286,0,0,1-4.528-5.263,12.136,12.136,0,0,1-.4-1.315,9.574,9.574,0,0,1-.207-1.2,9.8,9.8,0,0,1,1.965-6.958,11.933,11.933,0,0,1,6.56-4.433,15.435,15.435,0,0,1,3.6-.459,8.432,8.432,0,0,1,8.1,4.889,12.391,12.391,0,0,1,.886,2.517,11.51,11.51,0,0,1,.321,3.242A9.784,9.784,0,0,1,386.182,1304.824Zm2.512-5.4a12.167,12.167,0,0,0-.345-3.3,12.934,12.934,0,0,0-.877-2.517,2.854,2.854,0,0,1,2.621,2.411A2.787,2.787,0,0,1,388.694,1299.423Z" transform="translate(-7.256 -12.174)" fill="url(#a)"/><path d="M389.609,1319.761c4.643-1.117,7.616-5.318,6.926-8.186s-5.014-4.288-9.657-3.171-7.849,4.347-7.159,7.215S384.965,1320.878,389.609,1319.761Zm4.764-9.643a.665.665,0,1,1-.491.8A.665.665,0,0,1,394.372,1310.118Zm-12.007,5.665c.9,1.49,3.662,2.589,6.732,1.852a.665.665,0,1,1,.311,1.293,9.685,9.685,0,0,1-2.257.267c-2.553,0-4.9-1.018-5.925-2.725a.665.665,0,1,1,1.139-.687Zm-1.743-1.674a.665.665,0,1,1,.8.491A.665.665,0,0,1,380.623,1314.109Z" transform="translate(-17.835 -25.442)" fill="url(#b)"/><path d="M383.389,1325.167a.665.665,0,1,0-.8-.491A.665.665,0,0,0,383.389,1325.167Z" transform="translate(-19.8 -36.008)" fill="#fff"/><path d="M423.252,1315.579a.665.665,0,1,0-.8-.491A.665.665,0,0,0,423.252,1315.579Z" transform="translate(-46.404 -29.61)" fill="#fff"/><path d="M384.474,1330.483a.665.665,0,0,0-.226.913c1.029,1.706,3.371,2.725,5.925,2.725a9.666,9.666,0,0,0,2.257-.267.665.665,0,1,0-.311-1.293c-3.069.738-5.833-.361-6.732-1.852A.665.665,0,0,0,384.474,1330.483Z" transform="translate(-20.856 -40.368)" fill="#fff"/><path d="M393.249,1297.747a12.39,12.39,0,0,0-.886-2.517,8.432,8.432,0,0,0-8.1-4.889,15.442,15.442,0,0,0-3.6.459,11.936,11.936,0,0,0-6.56,4.433,9.805,9.805,0,0,0-1.965,6.958,9.6,9.6,0,0,0,.207,1.2,12.131,12.131,0,0,0,.4,1.315,9.285,9.285,0,0,0,4.528,5.263,11.276,11.276,0,0,0,7.749.746,11.678,11.678,0,0,0,6.708-4.42,9.783,9.783,0,0,0,1.841-5.3A11.512,11.512,0,0,0,393.249,1297.747Zm-16.427-1.719a12.351,12.351,0,0,1,2.134-1.215,14.39,14.39,0,0,1,2.331-.787,14.047,14.047,0,0,1,2.436-.341,12.372,12.372,0,0,1,2.453.133,9.617,9.617,0,0,1,4.458,1.838,13.779,13.779,0,0,0-4.544-1.064l-2.3.036a14.409,14.409,0,0,0-2.27.369,14.928,14.928,0,0,0-2.2.685,15.292,15.292,0,0,0-2.078,1,13.883,13.883,0,0,0-3.594,2.978A9.7,9.7,0,0,1,376.821,1296.028Zm5.022.575c4.643-1.117,8.967.3,9.657,3.171s-2.282,7.069-6.926,8.186-9.2-1.273-9.89-4.141S377.2,1297.72,381.844,1296.6Z" transform="translate(-12.801 -13.641)" fill="#fff"/><path d="M380.382,1303.372a15.278,15.278,0,0,1,2.078-1,14.943,14.943,0,0,1,2.2-.685,14.408,14.408,0,0,1,2.27-.369l2.3-.036a13.785,13.785,0,0,1,4.544,1.064,9.616,9.616,0,0,0-4.458-1.838,12.354,12.354,0,0,0-2.453-.133,14.048,14.048,0,0,0-2.436.341,14.392,14.392,0,0,0-2.331.787,12.35,12.35,0,0,0-2.134,1.215,9.7,9.7,0,0,0-3.174,3.63A13.881,13.881,0,0,1,380.382,1303.372Z" transform="translate(-15.942 -20.333)" fill="url(#c)"/><path d="M367.49,1323.4a10.134,10.134,0,0,1-.241-3.306,2.8,2.8,0,0,0-1.367,3.394,2.907,2.907,0,0,0,2.5,2.417A12.227,12.227,0,0,1,367.49,1323.4Z" transform="translate(-8.592 -33.498)" fill="#fff"/><path d="M435.026,1304.571a12.931,12.931,0,0,1,.877,2.517,12.165,12.165,0,0,1,.345,3.3,2.787,2.787,0,0,0,1.4-3.4A2.854,2.854,0,0,0,435.026,1304.571Z" transform="translate(-54.81 -23.137)" fill="#fff"/></g></svg>