<svg xmlns="http://www.w3.org/2000/svg" xmlns:xlink="http://www.w3.org/1999/xlink" width="504" height="504" viewBox="0 0 504 504">
  <defs>
    <style>
      .cls-1 {
        fill: #ff2882;
      }

      .cls-2 {
        fill: url(#linear-gradient);
      }

      .cls-3 {
        fill: url(#linear-gradient-2);
      }

      .cls-4 {
        fill: #fff;
      }

      .cls-5 {
        fill: url(#linear-gradient-3);
      }
    </style>
    <linearGradient id="linear-gradient" x1="0.31" y1="0.55" x2="0.612" y2="0.474" gradientUnits="objectBoundingBox">
      <stop offset="0" stop-color="#140f2b"/>
      <stop offset="1" stop-color="#37003c"/>
    </linearGradient>
    <linearGradient id="linear-gradient-2" x1="0.202" y1="0.593" x2="0.684" y2="0.452" xlink:href="#linear-gradient"/>
    <linearGradient id="linear-gradient-3" x1="0.181" y1="0.555" x2="0.662" y2="0.272" xlink:href="#linear-gradient"/>
  </defs>
  <g id="Group_376" data-name="Group 376" transform="translate(-4 -3)">
    <g id="Group_375" data-name="Group 375" transform="translate(4.23 3.23)">
      <g id="Group_205" data-name="Group 205" transform="translate(-0.23 -0.23)">
        <circle id="Ellipse_14" data-name="Ellipse 14" class="cls-1" cx="252" cy="252" r="252"/>
      </g>
      <path id="Path_164" data-name="Path 164" class="cls-2" d="M757.556,1400.1c-6.182-25.549-26.451-43.269-48.167-42.341l-2.554.12c-24.81-45.621-67.37-69.737-123.352-69.737a242.8,242.8,0,0,0-56.268,7.119c-39.04,9.321-77.377,35.049-102.555,68.812-15.62,20.957-25.543,44.045-29.549,67.871l-3.41,1.229c-21.371,7.706-32.59,33.722-26.091,60.538,5.959,24.607,24.784,42.051,45.772,42.425l3.676.065a140.518,140.518,0,0,0,59.115,56.578c35.046,17.745,78.07,21.865,121.141,11.578,42.508-10.149,80.727-35.151,104.867-68.612a150.822,150.822,0,0,0,28.091-74.036l2.575-.872C752.665,1453.4,764.148,1427.295,757.556,1400.1Zm-382.5,91.35c-5.338-22.044,3.532-43.286,19.963-49.207a145.923,145.923,0,0,0,3.521,47.936,176.64,176.64,0,0,0,13.021,36.316C395.5,1526.207,380,1511.882,375.051,1491.45Zm315.965,38.587c-22.547,31.243-58.25,54.605-97.956,64.089-40.235,9.608-80.421,5.76-113.156-10.821-30.926-15.666-53.486-41.851-66.12-76.311a174.976,174.976,0,0,1-5.807-19.067,138.038,138.038,0,0,1-3.016-17.362c-3.9-35.187,5.993-70.45,28.69-100.891,23.516-31.547,59.327-55.575,95.793-64.282a226.939,226.939,0,0,1,52.567-6.651c54.616,0,95.614,24.517,118.262,70.9a178.856,178.856,0,0,1,12.944,36.5,165.777,165.777,0,0,1,4.687,47A141.236,141.236,0,0,1,691.016,1530.036Zm36.679-78.326a175.248,175.248,0,0,0-5.038-47.823,186.56,186.56,0,0,0-12.812-36.49c16.664-.785,33.139,13.781,38.269,34.963C753.5,1424.609,744.413,1446.017,727.7,1451.711Z" transform="translate(-303.726 -1191.166)"/>
      <path id="Path_165" data-name="Path 165" class="cls-3" d="M530.052,1484.884c69.964-16.827,114.744-80.122,104.353-123.334s-75.544-64.607-145.507-47.784-118.26,65.5-107.865,108.716S460.087,1501.711,530.052,1484.884Zm71.773-145.292a10.024,10.024,0,1,1-7.4,12.09A10.027,10.027,0,0,1,601.825,1339.592Zm-180.907,85.351c13.536,22.453,55.181,39.014,101.425,27.9a10.021,10.021,0,1,1,4.686,19.488,145.964,145.964,0,0,1-34.007,4.026c-38.472,0-73.759-15.344-89.269-41.054a10.024,10.024,0,1,1,17.164-10.36Zm-26.265-25.215a10.023,10.023,0,1,1,12.088,7.4A10.025,10.025,0,0,1,394.653,1399.728Z" transform="translate(-246.885 -1118.796)"/>
      <path id="Path_166" data-name="Path 166" class="cls-4" d="M394.935,1343.625a10.023,10.023,0,1,0-12.088-7.4A10.022,10.022,0,0,0,394.935,1343.625Z" transform="translate(-232.237 -1054.906)"/>
      <path id="Path_167" data-name="Path 167" class="cls-4" d="M434.8,1334.037a10.022,10.022,0,1,0-12.088-7.4A10.02,10.02,0,0,0,434.8,1334.037Z" transform="translate(-77.4 -1092.145)"/>
      <path id="Path_168" data-name="Path 168" class="cls-4" d="M389,1331.831a10.02,10.02,0,0,0-3.4,13.76c15.511,25.712,50.8,41.053,89.268,41.053a145.6,145.6,0,0,0,34.008-4.028,10.021,10.021,0,1,0-4.687-19.486c-46.244,11.117-87.89-5.444-101.426-27.9A10.022,10.022,0,0,0,389,1331.831Z" transform="translate(-227.29 -1030.147)"/>
      <path id="Path_169" data-name="Path 169" class="cls-4" d="M678.61,1397.441a179.073,179.073,0,0,0-12.837-36.4c-22.46-46.254-63.119-70.7-117.283-70.7a223.9,223.9,0,0,0-52.132,6.632c-36.164,8.679-71.678,32.648-95,64.1-22.509,30.358-32.316,65.527-28.453,100.618A138.389,138.389,0,0,0,375.9,1479a175.294,175.294,0,0,0,5.761,19.014c12.528,34.368,34.9,60.48,65.571,76.1,32.464,16.532,72.318,20.369,112.22,10.791,39.378-9.459,74.786-32.756,97.145-63.916a141.335,141.335,0,0,0,26.666-76.676A166.259,166.259,0,0,0,678.61,1397.441Zm-237.9-24.854a179.063,179.063,0,0,1,30.909-17.571,208.683,208.683,0,0,1,33.751-11.379,203.878,203.878,0,0,1,35.278-4.928,179.486,179.486,0,0,1,35.524,1.922c23.371,3.615,46.241,12.233,64.563,26.577a199.859,199.859,0,0,0-65.8-15.385l-33.371.514a209.752,209.752,0,0,0-32.874,5.336,216.507,216.507,0,0,0-31.8,9.909,221.489,221.489,0,0,0-30.09,14.428,200.962,200.962,0,0,0-52.055,43.061C404.81,1404.117,421.424,1386.243,440.71,1372.588Zm72.733,8.311c67.247-16.148,129.864,4.38,139.854,45.859S620.245,1528.97,553,1545.123s-133.243-18.41-143.232-59.888S446.2,1397.048,513.443,1380.9Z" transform="translate(-270.392 -1182.348)"/>
      <path id="Path_170" data-name="Path 170" class="cls-5" d="M428.284,1345.631a214.125,214.125,0,0,1,29.768-15.033,206.6,206.6,0,0,1,31.454-10.324,197,197,0,0,1,32.522-5.558l33.012-.539a189.449,189.449,0,0,1,65.095,16.034c-18.127-14.949-40.75-23.928-63.87-27.693a168.526,168.526,0,0,0-35.143-2,191.79,191.79,0,0,0-34.9,5.137,199.29,199.29,0,0,0-33.388,11.856,174.892,174.892,0,0,0-30.577,18.307c-19.08,14.228-35.515,32.856-45.469,54.692A201.462,201.462,0,0,1,428.284,1345.631Z" transform="translate(-251.516 -1146.792)"/>
      <path id="Path_171" data-name="Path 171" class="cls-4" d="M391.606,1369.909a152.709,152.709,0,0,1-3.633-49.815c-16.953,6.157-26.1,28.225-20.6,51.133,5.107,21.235,21.1,36.115,37.666,36.413A184.271,184.271,0,0,1,391.606,1369.909Z" transform="translate(-295.691 -1070.537)"/>
      <path id="Path_172" data-name="Path 172" class="cls-4" d="M435.026,1304.6a194.88,194.88,0,0,1,13.221,37.922,183.257,183.257,0,0,1,5.2,49.689c17.25-5.917,26.625-28.163,21.068-51.28C469.22,1318.922,452.22,1303.786,435.026,1304.6Z" transform="translate(-30.481 -1130.532)"/>
    </g>
  </g>
</svg>
