<svg xmlns="http://www.w3.org/2000/svg" width="9.842" height="9.842" viewBox="0 0 9.842 9.842"><g transform="translate(7)"><g transform="translate(3.579)"><path d="M192,0h-3.579a.447.447,0,1,0,0,.895h2.5l-4.6,4.6a.447.447,0,1,0,.633.633l4.6-4.6v2.5a.447.447,0,0,0,.895,0V.447A.447.447,0,0,0,192,0Z" transform="translate(-193.182)" fill="#cf8ce8"/></g><g transform="translate(0 1.789)"><path d="M7.6,95.775a.447.447,0,0,0-.447.447v4.026H.895V93.986H4.921a.447.447,0,1,0,0-.895H.447A.447.447,0,0,0,0,93.538V100.7a.447.447,0,0,0,.447.447H7.6a.447.447,0,0,0,.447-.447V96.222A.447.447,0,0,0,7.6,95.775Z" transform="translate(-7 -93.091)" fill="#cf8ce8"/></g></g></svg>