<svg xmlns="http://www.w3.org/2000/svg" width="338.205" height="39.859" viewBox="0 0 338.205 39.859"><g transform="translate(-191.117 -1120.473)"><path d="M199.587,1136.361c5.811,0,7.387,6.747,8.174,11.868.64,4.235,1.231,9.11,1.625,10.785a25.55,25.55,0,0,0,1.576-9.258c0-3.595-1.182-7.042-3.349-8.913a.924.924,0,0,1-.394-.69c0-1.28,3.152-4.285,6.895-4.285,5.023,0,9.553,2.61,9.553,10.884,0,9.9-9.159,19.156-16.251,19.156-3.792,0-6.8-2.806-8.766-6.4a67.508,67.508,0,0,1-4.629-13,16.154,16.154,0,0,0-2.906-5.958C191.117,1139.069,194.466,1136.361,199.587,1136.361Z" transform="translate(0 -5.772)" fill="#281853"/><path d="M349.9,1166.47c-4.679,0-9.554-2.758-9.554-8.027v-12.8c0-1.526-.64-3-1.28-3.349a1.521,1.521,0,0,1-.443-1.132c0-2.413,3.1-4.186,6.451-4.186,3.841,0,6.6,1.133,8.224,3.742v15.266c0,2.167.837,3.447,2.167,3.447a1.86,1.86,0,0,0,1.329-.59V1144.31c0-1.971-.788-2.758-1.428-3.053a1.426,1.426,0,0,1-.444-.985c0-1.773,2.315-3.349,4.974-3.349,4.432,0,9.849,1.133,9.849,3.94V1158.2a5.129,5.129,0,0,0,1.083,3.348,1.573,1.573,0,0,1,.148.69c0,2.462-3.5,4.235-7.14,4.235a6.8,6.8,0,0,1-5.663-3.053A11.052,11.052,0,0,1,349.9,1166.47Z" transform="translate(-78.684 -6.334)" fill="#281853"/><path d="M430.107,1154.9c2.955,0,6.3,1.625,6.3,4.629,0,3.644-3.546,6.943-11.277,6.943-8.569,0-15.118-5.417-15.118-14.33,0-8.371,5.663-15.217,14.822-15.217,8.224,0,12.016,4.088,12.016,7.584a5.575,5.575,0,0,1-5.614,5.86,10.963,10.963,0,0,1-4.235-.887,20.454,20.454,0,0,0,.394-4.185c0-1.674-.886-2.758-1.871-2.758-1.379,0-2.561,3.1-2.561,7.879,0,6.452,1.28,10.489,2.807,10.489,1.034,0,1.625-1.329,1.625-2.856a11.827,11.827,0,0,0-.2-2.462A5.887,5.887,0,0,1,430.107,1154.9Z" transform="translate(-116.765 -6.334)" fill="#281853"/><path d="M469.721,1131.295a9.043,9.043,0,0,0-2.117-5.989c0-2.574,3.25-4.307,7.633-4.307a15.381,15.381,0,0,1,8.667,2.995c-.887,1.68-1.231,4.465-1.231,7.931a12.719,12.719,0,0,1,8.125-3.1c3.743,0,8.322,3.2,8.322,7.722v14.079c0,4.254.739,5.83.739,7.931a.819.819,0,0,1-.69.788,36.3,36.3,0,0,1-12.607.053c-.3-.105-.64-.315-.64-.631,0-.893.3-2.784.3-6.146v-12.029c0-2.259-.837-3.939-2.167-3.939a3.386,3.386,0,0,0-1.379.315v17.492c0,1.944.3,3.414.3,4.045a.742.742,0,0,1-.591.788,22.848,22.848,0,0,1-6.353.63,26.022,26.022,0,0,1-6.057-.578.983.983,0,0,1-.837-.946c0-.892.591-2.416.591-3.677Z" transform="translate(-147.486 -0.28)" fill="#281853"/><path d="M567.505,1151.2c0,1.526-3.053,2.462-6.845,2.462a52.686,52.686,0,0,1-8.027-.64c.2,5.417,1.675,9.061,3.25,9.061,1.084,0,1.477-1.084,1.477-2.413a8.745,8.745,0,0,0-.345-2.314,4.621,4.621,0,0,1,2.906-.887,7.185,7.185,0,0,1,6.352,4.727c-1.97,3.3-5.959,5.27-12.262,5.27-8.519,0-14.478-4.728-14.478-14.133,0-9.012,6.008-15.414,15.118-15.414C562.334,1136.923,567.505,1140.419,567.505,1151.2Zm-15.02-1.133a11.158,11.158,0,0,0,4.038-.641c0-4.973-.887-7.879-2.069-7.879C553.175,1141.552,552.485,1145.245,552.485,1150.071Z" transform="translate(-185.854 -6.334)" fill="#281853"/><path d="M602.234,1147.708a5.213,5.213,0,0,0-2.659-4.728.926.926,0,0,1-.1-.394c0-2.906,3.5-4.728,6.993-4.728a5.716,5.716,0,0,1,5.761,3.841,7.778,7.778,0,0,1,6.944-4.777c3.1,0,4.875,1.625,4.875,4.284,0,3.053-1.576,5.121-3.1,5.663a3.364,3.364,0,0,0-3-1.527c-1.478,0-2.758,1.576-2.758,3.3v10.686c0,1.773.64,4.285.64,5.121a1.435,1.435,0,0,1-.788,1.231,41.583,41.583,0,0,1-6.451.3c-3,0-5.614-.246-6.3-.591a1.2,1.2,0,0,1-.492-1.083c0-.837.443-3.792.443-6.107Z" transform="translate(-217.827 -6.334)" fill="#281853"/><path d="M677.019,1136.923c5.269,0,9.061,3.891,9.061,8.372v12.754a41.042,41.042,0,0,0,.492,6.057,1.282,1.282,0,0,1-.64,1.281,22.693,22.693,0,0,1-6.451.591,26.193,26.193,0,0,1-5.86-.542.887.887,0,0,1-.689-.935c0-.837.2-2.856.2-3.694V1148.84c0-2.117-.788-3.841-2.364-3.841a2.021,2.021,0,0,0-1.28.443V1157.7c0,3,.443,5.565.443,6.549a1.579,1.579,0,0,1-.936,1.182,23.425,23.425,0,0,1-6.155.542,25.8,25.8,0,0,1-5.663-.492c-.64-.2-1.034-.493-1.034-1.133a41.306,41.306,0,0,0,.394-4.136v-14.232a5.378,5.378,0,0,0-1.625-4.088c0-1.822,3.742-3.988,6.8-3.988,3,0,5.319,1.182,6.451,3.3C669.732,1138.646,673.08,1136.923,677.019,1136.923Z" transform="translate(-247.4 -6.334)" fill="#ff2882"/><path d="M754.945,1147.609v10.439c0,2.069.739,3.743,1.182,3.891a.986.986,0,0,1,.394.837c0,2.561-4.382,3.694-6.155,3.694-3.94,0-5.466-1.182-6.648-3.152-1.28,2.019-5.072,3.152-9.11,3.152-4.925,0-8.864-1.822-8.864-5.909,0-3.989,2.954-6.057,6.057-7.092a30.557,30.557,0,0,1,10.193-1.723c0-6.993-1.132-10.193-2.462-10.193-1.231,0-1.822,1.182-1.822,3.5a9.223,9.223,0,0,0,.887,4.137c-1.133,1.133-4.137,2.068-6.845,2.068-2.659,0-4.777-1.773-4.777-5.318,0-5.713,7.091-9.012,14.675-9.012C749.134,1136.923,754.945,1139.927,754.945,1147.609Zm-15.019,14.182c.788,0,1.773-1.231,2.068-2.364V1154.6a4.118,4.118,0,0,0-3.742,3.842C738.251,1160.609,738.99,1161.791,739.926,1161.791Z" transform="translate(-285.184 -6.334)" fill="#ff2882"/><path d="M803.816,1166.47c-4.678,0-9.554-2.758-9.554-8.027v-12.8c0-1.526-.64-3-1.28-3.349a1.521,1.521,0,0,1-.443-1.132c0-2.413,3.1-4.186,6.451-4.186,3.841,0,6.6,1.133,8.223,3.742v15.266c0,2.167.837,3.447,2.167,3.447a1.861,1.861,0,0,0,1.329-.59V1144.31c0-1.971-.788-2.758-1.428-3.053a1.426,1.426,0,0,1-.443-.985c0-1.773,2.314-3.349,4.974-3.349,4.432,0,9.849,1.133,9.849,3.94V1158.2a5.13,5.13,0,0,0,1.083,3.348,1.571,1.571,0,0,1,.148.69c0,2.462-3.5,4.235-7.141,4.235a6.8,6.8,0,0,1-5.663-3.053A11.052,11.052,0,0,1,803.816,1166.47Z" transform="translate(-320.838 -6.334)" fill="#ff2882"/><path d="M879.4,1151.9c0,1.26.689,1.942,1.625,1.942a8.7,8.7,0,0,0,4.875-1.942c.443.21.739,1.416.739,2.046,0,3.463-5.417,6.191-11.819,6.191-6.648,0-8.371-4.2-8.371-8.919v-13.327c0-1.1-.394-1.888-.985-1.888h-3.841c0-1.522.3-6.663,2.266-6.663l2.56.839c0-2.047-.69-5.089-.69-6.086,0-2.1,4.186-3.619,6.8-3.619,3.693,0,7.485,2.308,7.485,3.619a53.253,53.253,0,0,0-.64,5.614h7.584c0,3.148-2.216,6.978-4.235,6.978l-3.349-1.05Z" transform="translate(-357.662)" fill="#ff2882"/><g transform="translate(224.052 1131.229)"><path d="M279.59,1173.651a.934.934,0,1,0-1.126-.69A.935.935,0,0,0,279.59,1173.651Z" transform="translate(-270.595 -1156.158)" fill="#281853"/><path d="M319.453,1164.063a.934.934,0,1,0-1.127-.69A.934.934,0,0,0,319.453,1164.063Z" transform="translate(-291.843 -1151.047)" fill="#281853"/><path d="M291.206,1181.392c-4.309,1.036-8.189-.508-9.451-2.6a.934.934,0,1,0-1.6.965c1.445,2.4,4.733,3.826,8.318,3.826a13.584,13.584,0,0,0,3.169-.375.934.934,0,0,0-.437-1.816Z" transform="translate(-271.44 -1159.64)" fill="#281853"/><path d="M263.713,1168.048c-1.579.573-2.432,2.63-1.919,4.765a4.081,4.081,0,0,0,3.51,3.392,17.152,17.152,0,0,1-1.252-3.516A14.23,14.23,0,0,1,263.713,1168.048Z" transform="translate(-261.645 -1154.154)" fill="#281853"/><path d="M268.412,1175.6a17.058,17.058,0,0,0,.558,1.847l-.848-3.528A13.5,13.5,0,0,0,268.412,1175.6Z" transform="translate(-265.097 -1157.284)" fill="#281853"/><path d="M334.575,1155.911c-.493-2.051-2.077-3.461-3.679-3.385a18.147,18.147,0,0,1,1.231,3.534,17.094,17.094,0,0,1,.485,4.63C334.219,1160.139,335.093,1158.066,334.575,1155.911Z" transform="translate(-298.557 -1145.879)" fill="#281853"/><path d="M297.669,1148.693a17.423,17.423,0,0,0-1.244-3.534c-2.178-4.491-6.119-6.865-11.371-6.865a21.674,21.674,0,0,0-5.054.644,16.759,16.759,0,0,0-9.21,6.224,13.767,13.767,0,0,0-2.758,9.769l.848,3.528a13.036,13.036,0,0,0,6.357,7.389,15.83,15.83,0,0,0,10.88,1.047,16.4,16.4,0,0,0,9.418-6.206,13.736,13.736,0,0,0,2.585-7.444A16.16,16.16,0,0,0,297.669,1148.693Zm-27.52,2.683a13.62,13.62,0,0,1,4.456-5.1,17.378,17.378,0,0,1,3-1.706,20.229,20.229,0,0,1,3.272-1.1,19.763,19.763,0,0,1,3.42-.479,17.364,17.364,0,0,1,3.444.187,13.5,13.5,0,0,1,6.259,2.58,19.356,19.356,0,0,0-6.379-1.494l-3.235.05a20.234,20.234,0,0,0-3.187.518,20.975,20.975,0,0,0-3.083.962,21.357,21.357,0,0,0-2.917,1.4A19.5,19.5,0,0,0,270.149,1151.376Zm15.342,11.656c-6.519,1.568-12.917-1.788-13.886-5.814s3.532-8.563,10.051-10.131,12.59.426,13.559,4.452S292.011,1161.464,285.491,1163.032Z" transform="translate(-265.006 -1138.294)" fill="#281853"/></g></g></svg>