<svg xmlns="http://www.w3.org/2000/svg" width="40" height="40" viewBox="0 0 40 40"><g transform="translate(-1623 -1412)"><rect width="40" height="40" rx="20" transform="translate(1623 1412)" fill="#281853"/><g transform="translate(1626.853 1416.381)"><g transform="translate(6.147 7.619)"><path d="M24.1,11.665c.008.177.012.355.012.533A11.673,11.673,0,0,1,6.147,22.029a8.286,8.286,0,0,0,6.076-1.7,4.108,4.108,0,0,1-3.834-2.85,4.119,4.119,0,0,0,1.853-.069A4.1,4.1,0,0,1,6.95,13.387c0-.017,0-.035,0-.052a4.087,4.087,0,0,0,1.858.513,4.11,4.11,0,0,1-1.27-5.479A11.652,11.652,0,0,0,16,12.658,4.106,4.106,0,0,1,22.99,8.914a8.191,8.191,0,0,0,2.607-1,4.122,4.122,0,0,1-1.807,2.271,8.158,8.158,0,0,0,2.357-.646A8.255,8.255,0,0,1,24.1,11.665Z" transform="translate(-6.147 -7.619)" fill="#fff"/></g></g></g></svg>