<svg xmlns="http://www.w3.org/2000/svg" width="15" height="15" viewBox="0 0 15 15"><g transform="translate(-1018.5 -1143.5)"><path d="M1064.794,1145.9a1.9,1.9,0,1,1-1.9-1.9A1.9,1.9,0,0,1,1064.794,1145.9Z" transform="translate(-31.794)" fill="none" stroke="#969696" stroke-linecap="round" stroke-miterlimit="10" stroke-width="1"/><path d="M1064.794,1187.9a1.9,1.9,0,1,1-1.9-1.9A1.9,1.9,0,0,1,1064.794,1187.9Z" transform="translate(-31.794 -31.795)" fill="none" stroke="#969696" stroke-linecap="round" stroke-miterlimit="10" stroke-width="1"/><path d="M1022.794,1166.9a1.9,1.9,0,1,1-1.9-1.9A1.9,1.9,0,0,1,1022.794,1166.9Z" transform="translate(0 -15.897)" fill="none" stroke="#969696" stroke-linecap="round" stroke-miterlimit="10" stroke-width="1"/><path d="M1069.266,1194.268" transform="translate(-38.1 -38.101)" fill="none" stroke="#969696" stroke-linecap="round" stroke-linejoin="round" stroke-width="1"/><line x1="6.566" y2="3.283" transform="translate(1022.717 1146.81)" stroke-width="1" stroke="#969696" stroke-linecap="round" stroke-linejoin="round" fill="none"/><line x2="6.566" y2="3.283" transform="translate(1022.717 1151.907)" stroke-width="1" stroke="#969696" stroke-linecap="round" stroke-linejoin="round" fill="none"/></g></svg>