<svg xmlns="http://www.w3.org/2000/svg" width="1850" height="216.001" viewBox="0 0 1850 216.001"><defs><style>.a{fill:#fff;}.b{fill:#ff2882;}</style></defs><g transform="translate(-191.117 -1120.473)"><path class="a" d="M237.427,1138.561c31.769,0,40.387,36.886,44.694,64.887,3.5,23.154,6.73,49.81,8.885,58.966,4.039-9.425,8.617-28.271,8.617-50.62,0-19.654-6.462-38.5-18.309-48.73a5.05,5.05,0,0,1-2.155-3.771c0-7,17.232-23.425,37.7-23.425,27.462,0,52.233,14.269,52.233,59.5,0,54.117-50.079,104.734-88.852,104.734-20.732,0-37.157-15.342-47.926-35-8.346-15.346-19.923-48.733-25.307-71.081a88.323,88.323,0,0,0-15.886-32.577C191.117,1153.37,209.426,1138.561,237.427,1138.561Z" transform="translate(0 35.295)"/><path class="a" d="M400.279,1298.47c-25.58,0-52.236-15.078-52.236-43.887v-70c0-8.347-3.5-16.424-7-18.311-1.077-.806-2.423-3.229-2.423-6.19,0-13.195,16.961-22.886,35.27-22.886,21,0,36.079,6.193,44.964,20.462v83.464c0,11.848,4.575,18.848,11.847,18.848a10.169,10.169,0,0,0,7.269-3.227v-79.428c0-10.774-4.308-15.078-7.808-16.694a7.793,7.793,0,0,1-2.425-5.385c0-9.692,12.656-18.309,27.194-18.309,24.232,0,53.85,6.193,53.85,21.539v94.776c0,8.884,3.232,15.344,5.923,18.3a8.6,8.6,0,0,1,.807,3.772c0,13.461-19.116,23.156-39.039,23.156a37.186,37.186,0,0,1-30.965-16.694C435.279,1291.467,422.354,1298.47,400.279,1298.47Z" transform="translate(228.971 36.934)"/><path class="a" d="M519.867,1235.2c16.154,0,34.463,8.888,34.463,25.31,0,19.923-19.386,37.963-61.657,37.963-46.849,0-82.657-29.618-82.657-78.348,0-45.773,30.963-83.2,81.041-83.2,44.964,0,65.7,22.348,65.7,41.465,0,20.73-15.347,32.04-30.694,32.04a59.907,59.907,0,0,1-23.155-4.851,111.823,111.823,0,0,0,2.155-22.882c0-9.153-4.845-15.078-10.23-15.078-7.539,0-14,16.963-14,43.079,0,35.273,7,57.349,15.347,57.349,5.655,0,8.885-7.268,8.885-15.618,0-4.843-.268-10.23-1.077-13.461C508.288,1236.274,514.75,1235.2,519.867,1235.2Z" transform="translate(339.797 36.934)"/><path class="a" d="M479.181,1176.783c0-14.8-4.846-23.621-11.577-32.447,0-13.944,17.769-23.336,41.733-23.336,16.693,0,37.693,7.968,47.387,16.224-4.848,9.106-6.732,24.193-6.732,42.973,8.346-7.967,26.117-16.791,44.426-16.791,20.464,0,45.5,17.362,45.5,41.837v76.278c0,23.051,4.039,31.589,4.039,42.971,0,2.279-1.615,3.7-3.771,4.269-6.463,2-20.462,3.135-35.809,3.135-15.077,0-28.271-1.425-33.118-2.848-1.615-.569-3.5-1.708-3.5-3.417,0-4.839,1.616-15.085,1.616-33.3v-65.173c0-12.24-4.578-21.344-11.848-21.344a18.672,18.672,0,0,0-7.539,1.707v94.771c0,10.53,1.616,18.5,1.616,21.914a4.03,4.03,0,0,1-3.23,4.271c-8.078,2.559-20.193,3.417-34.734,3.417-15.079,0-28.808-1.708-33.117-3.135-1.884-.568-4.576-1.7-4.576-5.121,0-4.836,3.23-13.093,3.23-19.924Z" transform="translate(429.189 0.817)"/><path class="a" d="M692.466,1215c0,8.345-16.693,13.46-37.428,13.46-16.154,0-35.27-1.883-43.887-3.5,1.077,29.619,9.155,49.544,17.77,49.544,5.925,0,8.078-5.926,8.078-13.193a47.808,47.808,0,0,0-1.884-12.655c4.039-3.5,10.5-4.847,15.887-4.847,15.077,0,29.886,11.846,34.731,25.846-10.769,18.041-32.578,28.811-67.042,28.811-46.578,0-79.157-25.851-79.157-77.274,0-49.27,32.847-84.273,82.657-84.273C664.194,1136.923,692.466,1156.038,692.466,1215Zm-82.122-6.193c9.157,0,16.694-1.348,22.081-3.5,0-27.19-4.848-43.078-11.311-43.078C614.116,1162.233,610.344,1182.424,610.344,1208.812Z" transform="translate(540.85 36.934)"/><path class="a" d="M614.553,1195.889c0-13.733-8.347-23.158-14.538-25.847a5.074,5.074,0,0,1-.539-2.155c0-15.887,19.117-25.848,38.233-25.848,15.076,0,25.308,6.461,31.5,21,5.654-14.54,21.539-26.116,37.964-26.116,16.962,0,26.656,8.884,26.656,23.425,0,16.694-8.617,28-16.963,30.963-2.155-4.577-8.886-8.347-16.422-8.347-8.079,0-15.079,8.616-15.079,18.039v58.428c0,9.692,3.5,23.425,3.5,28,0,2.963-2.423,6.193-4.307,6.733-5.384,1.346-20.732,1.614-35.272,1.614-16.422,0-30.692-1.346-34.463-3.23-1.346-.808-2.692-2.694-2.692-5.924,0-4.577,2.423-20.729,2.423-33.386Z" transform="translate(633.902 36.934)"/><path class="b" d="M775.8,1136.923c28.81,0,49.542,21.271,49.542,45.771v69.732c0,21.811,2.69,28.545,2.69,33.119,0,3.5-1.345,6.193-3.5,7-7.539,2.694-20.733,3.23-35.273,3.23-15.076,0-27.193-1.614-32.04-2.962a4.853,4.853,0,0,1-3.768-5.114c0-4.574,1.077-15.618,1.077-20.2v-65.426c0-11.577-4.309-21-12.925-21a11.064,11.064,0,0,0-7,2.422v67.042c0,16.426,2.423,30.428,2.423,35.808,0,2.963-3.5,5.926-5.117,6.463-7.268,2.426-20.461,2.962-33.653,2.962-9.425,0-23.155-.536-30.963-2.691-3.5-1.077-5.656-2.693-5.656-6.194,0-4.305,2.155-10.77,2.155-22.614v-77.813c0-11.309-4.578-18.309-8.885-22.349,0-9.959,20.461-21.807,37.154-21.807,16.424,0,29.08,6.462,35.273,18.04C735.951,1146.345,754.259,1136.923,775.8,1136.923Z" transform="translate(719.942 36.934)"/><path class="b" d="M885.4,1195.351v57.076c0,11.311,4.04,20.465,6.463,21.271a5.4,5.4,0,0,1,2.152,4.579c0,14-23.961,20.194-33.653,20.194-21.54,0-29.886-6.462-36.351-17.234-7,11.041-27.73,17.234-49.807,17.234-26.926,0-48.466-9.964-48.466-32.309,0-21.811,16.154-33.12,33.117-38.774a167.079,167.079,0,0,1,55.732-9.422c0-38.232-6.192-55.732-13.46-55.732-6.731,0-9.962,6.461-9.962,19.111,0,9.429,2.422,18.581,4.849,22.621-6.195,6.193-22.619,11.309-37.427,11.309-14.538,0-26.117-9.7-26.117-29.078,0-31.235,38.771-49.273,80.236-49.273C853.633,1136.923,885.4,1153.347,885.4,1195.351Zm-82.118,77.541c4.307,0,9.692-6.73,11.306-12.926v-26.387c-10.5,0-20.462,11.041-20.462,21C794.13,1266.429,798.17,1272.891,803.286,1272.891Z" transform="translate(829.898 36.934)"/><path class="b" d="M854.2,1298.47c-25.578,0-52.234-15.078-52.234-43.887v-70c0-8.347-3.5-16.424-7-18.311-1.078-.806-2.422-3.229-2.422-6.19,0-13.195,16.963-22.886,35.272-22.886,21,0,36.077,6.193,44.962,20.462v83.464c0,11.848,4.579,18.848,11.848,18.848a10.17,10.17,0,0,0,7.268-3.227v-79.428c0-10.774-4.307-15.078-7.808-16.694a7.792,7.792,0,0,1-2.423-5.385c0-9.692,12.653-18.309,27.194-18.309,24.233,0,53.85,6.193,53.85,21.539v94.776c0,8.884,3.23,15.344,5.92,18.3a8.6,8.6,0,0,1,.81,3.772c0,13.461-19.115,23.156-39.04,23.156a37.184,37.184,0,0,1-30.963-16.694C889.2,1291.467,876.274,1298.47,854.2,1298.47Z" transform="translate(933.533 36.934)"/><path class="b" d="M958.818,1290.768c0,6.825,3.768,10.522,8.885,10.522,6.733,0,20.732-4.551,26.656-10.522,2.423,1.14,4.038,7.676,4.038,11.088,0,18.763-29.616,33.546-64.619,33.546-36.347,0-45.771-22.743-45.771-48.33v-72.215c0-5.966-2.155-10.232-5.384-10.232h-21c0-8.246,1.614-36.107,12.386-36.107l14,4.548c0-11.088-3.771-27.576-3.771-32.979,0-11.373,22.887-19.614,37.158-19.614,20.192,0,40.925,12.508,40.925,19.614,0,5.117-3.5,16.209-3.5,30.423h41.464c0,17.056-12.114,37.812-23.154,37.812l-18.31-5.687Z" transform="translate(1040.835 0)"/><g transform="translate(371.188 1177.357)"><path class="a" d="M284.738,1181.881a5.106,5.106,0,1,0-6.158-3.771A5.109,5.109,0,0,0,284.738,1181.881Z" transform="translate(-235.563 -1086.237)"/><path class="a" d="M324.6,1172.3a5.107,5.107,0,1,0-6.161-3.772A5.107,5.107,0,0,0,324.6,1172.3Z" transform="translate(-173.647 -1101.13)"/><path class="a" d="M341.175,1195.022c-23.561,5.664-44.775-2.776-51.674-14.212a5.106,5.106,0,1,0-8.745,5.275c7.9,13.1,25.879,20.917,45.48,20.917a74.242,74.242,0,0,0,17.329-2.05,5.107,5.107,0,0,0-2.39-9.93Z" transform="translate(-233.102 -1076.092)"/><path class="a" d="M272.953,1168.048c-8.634,3.135-13.3,14.379-10.493,26.055,2.6,10.816,10.752,18.4,19.19,18.546a93.85,93.85,0,0,1-6.846-19.222A77.812,77.812,0,0,1,272.953,1168.048Z" transform="translate(-261.645 -1092.08)"/><path class="a" d="M269.707,1183.112a93.22,93.22,0,0,0,3.054,10.1l-4.639-19.29A73.894,73.894,0,0,0,269.707,1183.112Z" transform="translate(-251.584 -1082.958)"/><path class="a" d="M351.01,1171.048c-2.7-11.214-11.354-18.924-20.114-18.509a99.219,99.219,0,0,1,6.732,19.321,93.448,93.448,0,0,1,2.65,25.315C349.064,1194.16,353.844,1182.827,351.01,1171.048Z" transform="translate(-154.083 -1116.192)"/><path class="a" d="M430.431,1195.151a95.229,95.229,0,0,0-6.8-19.322c-11.909-24.556-33.458-37.534-62.171-37.534a118.555,118.555,0,0,0-27.633,3.52c-19.167,4.611-37.995,17.331-50.357,34.03-11.931,16.116-17.129,34.784-15.082,53.412l4.639,19.289c6.64,18.24,18.5,32.1,34.756,40.4,17.209,8.776,38.334,10.812,59.485,5.727,20.873-5.019,39.641-17.385,51.5-33.93a75.108,75.108,0,0,0,14.132-40.7A88.355,88.355,0,0,0,430.431,1195.151Zm-150.465,14.667c5.336-11.124,14.14-20.613,24.363-27.862a94.975,94.975,0,0,1,16.386-9.327,110.226,110.226,0,0,1,17.888-6.04,107.675,107.675,0,0,1,18.7-2.619,95,95,0,0,1,18.83,1.024c12.388,1.918,24.511,6.492,34.224,14.106a105.766,105.766,0,0,0-34.88-8.165l-17.688.272a110.448,110.448,0,0,0-17.426,2.83,114.8,114.8,0,0,0-16.854,5.261,116.755,116.755,0,0,0-15.95,7.66A106.607,106.607,0,0,0,279.966,1209.818Zm83.883,63.732c-35.645,8.573-70.626-9.775-75.922-31.791s19.31-46.818,54.956-55.39,68.837,2.326,74.132,24.341S399.5,1264.976,363.848,1273.551Z" transform="translate(-251.849 -1138.294)"/></g></g></svg>