<svg xmlns="http://www.w3.org/2000/svg" width="509.104" height="60" viewBox="0 0 509.104 60"><g transform="translate(-191.117 -1120.473)"><path d="M203.664,1136.6c8.607,0,10.942,9.994,12.109,17.58.948,6.273,1.823,13.494,2.407,15.975a37.844,37.844,0,0,0,2.335-13.714c0-5.325-1.751-10.431-4.96-13.2a1.369,1.369,0,0,1-.584-1.021c0-1.9,4.669-6.347,10.213-6.347,7.44,0,14.151,3.866,14.151,16.122,0,14.661-13.568,28.375-24.072,28.375-5.617,0-10.067-4.157-12.984-9.483-2.261-4.157-5.4-13.2-6.856-19.258a23.925,23.925,0,0,0-4.3-8.826C191.117,1140.61,196.077,1136.6,203.664,1136.6Z" transform="translate(0 -0.182)" fill="#281853"/><path d="M355.326,1180.69c-6.93,0-14.152-4.085-14.152-11.89v-18.966c0-2.261-.948-4.45-1.9-4.961a2.252,2.252,0,0,1-.656-1.677c0-3.575,4.6-6.2,9.556-6.2,5.689,0,9.775,1.678,12.182,5.543v22.613c0,3.209,1.24,5.106,3.21,5.106a2.753,2.753,0,0,0,1.969-.875v-21.519c0-2.919-1.167-4.085-2.115-4.522a2.114,2.114,0,0,1-.657-1.459c0-2.625,3.429-4.96,7.368-4.96,6.565,0,14.589,1.678,14.589,5.836v25.677a7.6,7.6,0,0,0,1.6,4.96,2.332,2.332,0,0,1,.219,1.022c0,3.647-5.179,6.274-10.577,6.274a10.076,10.076,0,0,1-8.389-4.522C364.809,1178.793,361.307,1180.69,355.326,1180.69Z" transform="translate(-43.732 -0.507)" fill="#281853"/><path d="M439.777,1163.548c4.377,0,9.337,2.408,9.337,6.857,0,5.4-5.252,10.285-16.7,10.285-12.693,0-22.394-8.024-22.394-21.227,0-12.4,8.389-22.541,21.956-22.541,12.182,0,17.8,6.055,17.8,11.234a8.258,8.258,0,0,1-8.316,8.68,16.236,16.236,0,0,1-6.273-1.314,30.3,30.3,0,0,0,.584-6.2c0-2.48-1.313-4.085-2.772-4.085-2.042,0-3.793,4.6-3.793,11.671,0,9.556,1.9,15.537,4.158,15.537,1.532,0,2.407-1.969,2.407-4.231a17.525,17.525,0,0,0-.292-3.647A8.719,8.719,0,0,1,439.777,1163.548Z" transform="translate(-64.945 -0.507)" fill="#281853"/><path d="M470.74,1136.5a13.756,13.756,0,0,0-3.136-9.019c0-3.875,4.814-6.486,11.307-6.486,4.522,0,10.212,2.215,12.839,4.51-1.313,2.53-1.824,6.723-1.824,11.943a18.674,18.674,0,0,1,12.036-4.667c5.544,0,12.328,4.826,12.328,11.629v21.2c0,6.407,1.094,8.78,1.094,11.944a1.227,1.227,0,0,1-1.022,1.186,52.9,52.9,0,0,1-18.674.079c-.438-.158-.948-.475-.948-.95,0-1.344.438-4.192.438-9.255v-18.114c0-3.4-1.24-5.932-3.209-5.932a4.947,4.947,0,0,0-2.043.474v26.341c0,2.927.438,5.141.438,6.09a1.115,1.115,0,0,1-.875,1.187,33.321,33.321,0,0,1-9.411.949,37.933,37.933,0,0,1-8.972-.87,1.471,1.471,0,0,1-1.24-1.424c0-1.344.875-3.639.875-5.538Z" transform="translate(-81.974 -0.162)" fill="#281853"/><path d="M580.967,1158.077c0,2.261-4.523,3.647-10.14,3.647a78.012,78.012,0,0,1-11.891-.948c.292,8.025,2.481,13.423,4.815,13.423,1.605,0,2.188-1.606,2.188-3.575a12.959,12.959,0,0,0-.51-3.428,6.844,6.844,0,0,1,4.3-1.313c4.085,0,8.1,3.209,9.409,7-2.917,4.888-8.826,7.806-18.163,7.806-12.619,0-21.446-7-21.446-20.936,0-13.348,8.9-22.832,22.394-22.832C573.308,1136.923,580.967,1142.1,580.967,1158.077Zm-22.249-1.678a16.526,16.526,0,0,0,5.982-.949c0-7.366-1.313-11.67-3.065-11.67C559.74,1143.78,558.718,1149.25,558.718,1156.4Z" transform="translate(-103.357 -0.507)" fill="#281853"/><path d="M603.561,1152.9a7.721,7.721,0,0,0-3.939-7,1.375,1.375,0,0,1-.146-.583c0-4.3,5.179-7,10.358-7,4.085,0,6.856,1.751,8.534,5.69a11.521,11.521,0,0,1,10.286-7.076c4.6,0,7.222,2.407,7.222,6.347,0,4.522-2.334,7.585-4.6,8.388-.584-1.24-2.407-2.261-4.449-2.261-2.189,0-4.085,2.334-4.085,4.887v15.829c0,2.626.948,6.347.948,7.586a2.127,2.127,0,0,1-1.167,1.824c-1.459.365-5.617.437-9.556.437-4.449,0-8.315-.364-9.337-.875a1.775,1.775,0,0,1-.729-1.6c0-1.241.657-5.616.657-9.046Z" transform="translate(-121.189 -0.507)" fill="#281853"/><path d="M687.661,1136.923c7.805,0,13.422,5.763,13.422,12.4v18.892a60.81,60.81,0,0,0,.729,8.973,1.9,1.9,0,0,1-.948,1.9c-2.042.729-5.617.875-9.556.875a38.818,38.818,0,0,1-8.68-.8,1.315,1.315,0,0,1-1.021-1.386c0-1.239.292-4.231.292-5.471v-17.726c0-3.136-1.168-5.689-3.5-5.689a2.993,2.993,0,0,0-1.9.657v18.163c0,4.45.656,8.244.656,9.7a2.34,2.34,0,0,1-1.386,1.751c-1.969.657-5.544.8-9.118.8a38.224,38.224,0,0,1-8.389-.729c-.948-.292-1.532-.73-1.532-1.678a61.216,61.216,0,0,0,.584-6.127v-21.082a7.964,7.964,0,0,0-2.407-6.054c0-2.7,5.544-5.908,10.066-5.908,4.45,0,7.879,1.75,9.556,4.888C676.866,1139.476,681.826,1136.923,687.661,1136.923Z" transform="translate(-137.517 -0.507)" fill="#ff2882"/><path d="M769,1152.753v15.463c0,3.064,1.095,5.545,1.751,5.763a1.462,1.462,0,0,1,.583,1.24c0,3.794-6.491,5.471-9.117,5.471-5.836,0-8.1-1.751-9.848-4.668-1.9,2.991-7.513,4.668-13.494,4.668-7.295,0-13.13-2.7-13.13-8.753,0-5.909,4.376-8.973,8.972-10.5a45.265,45.265,0,0,1,15.1-2.553c0-10.359-1.678-15.1-3.647-15.1-1.823,0-2.7,1.75-2.7,5.178a13.668,13.668,0,0,0,1.313,6.129c-1.678,1.677-6.128,3.063-10.14,3.063-3.939,0-7.076-2.627-7.076-7.877,0-8.462,10.5-13.35,21.739-13.35C760.392,1136.923,769,1141.373,769,1152.753Zm-22.248,21.008c1.167,0,2.626-1.823,3.063-3.5v-7.149c-2.845,0-5.544,2.991-5.544,5.691C744.271,1172.01,745.365,1173.761,746.752,1173.761Z" transform="translate(-158.538 -0.507)" fill="#ff2882"/><path d="M809.244,1180.69c-6.93,0-14.152-4.085-14.152-11.89v-18.966c0-2.261-.948-4.45-1.9-4.961a2.253,2.253,0,0,1-.656-1.677c0-3.575,4.6-6.2,9.556-6.2,5.689,0,9.774,1.678,12.181,5.543v22.613c0,3.209,1.24,5.106,3.21,5.106a2.754,2.754,0,0,0,1.969-.875v-21.519c0-2.919-1.167-4.085-2.115-4.522a2.112,2.112,0,0,1-.656-1.459c0-2.625,3.428-4.96,7.367-4.96,6.565,0,14.59,1.678,14.59,5.836v25.677a7.6,7.6,0,0,0,1.6,4.96,2.33,2.33,0,0,1,.219,1.022c0,3.647-5.179,6.274-10.577,6.274a10.074,10.074,0,0,1-8.389-4.522C818.727,1178.793,815.225,1180.69,809.244,1180.69Z" transform="translate(-177.672 -0.507)" fill="#ff2882"/><path d="M887.956,1167.782c0,1.9,1.021,2.923,2.407,2.923,1.824,0,5.617-1.263,7.221-2.923.656.316,1.094,2.132,1.094,3.081,0,5.212-8.024,9.32-17.507,9.32-9.848,0-12.4-6.318-12.4-13.427v-20.062c0-1.658-.584-2.843-1.459-2.843h-5.69c0-2.291.438-10.031,3.356-10.031l3.793,1.264c0-3.082-1.022-7.662-1.022-9.163,0-3.159,6.2-5.449,10.067-5.449,5.471,0,11.088,3.474,11.088,5.449,0,1.422-.948,4.5-.948,8.451h11.234c0,4.739-3.282,10.505-6.273,10.505l-4.96-1.58Z" transform="translate(-198.968 0)" fill="#ff2882"/><g transform="translate(239.903 1137.364)"><path d="M280.144,1174.537a1.383,1.383,0,1,0-1.668-1.022A1.384,1.384,0,0,0,280.144,1174.537Z" transform="translate(-266.821 -1148.625)" fill="#281853"/><path d="M320.008,1164.95a1.384,1.384,0,1,0-1.669-1.021A1.383,1.383,0,0,0,320.008,1164.95Z" transform="translate(-279.11 -1145.67)" fill="#281853"/><path d="M296.589,1182.861c-6.383,1.535-12.131-.752-14-3.851a1.384,1.384,0,0,0-2.369,1.43c2.141,3.549,7.011,5.667,12.322,5.667a20.127,20.127,0,0,0,4.695-.555,1.384,1.384,0,0,0-.648-2.69Z" transform="translate(-267.309 -1150.639)" fill="#281853"/><path d="M264.709,1168.048c-2.339.849-3.6,3.9-2.843,7.059.7,2.93,2.913,4.984,5.2,5.025a25.4,25.4,0,0,1-1.854-5.208A21.074,21.074,0,0,1,264.709,1168.048Z" transform="translate(-261.645 -1147.466)" fill="#281853"/><path d="M268.551,1176.411a25.242,25.242,0,0,0,.827,2.736l-1.257-5.226A19.975,19.975,0,0,0,268.551,1176.411Z" transform="translate(-263.641 -1149.277)" fill="#281853"/><path d="M336.346,1157.542c-.731-3.038-3.076-5.127-5.449-5.014a26.869,26.869,0,0,1,1.824,5.234,25.321,25.321,0,0,1,.718,6.859C335.818,1163.8,337.113,1160.734,336.346,1157.542Z" transform="translate(-282.993 -1142.68)" fill="#281853"/><path d="M311.972,1153.7a25.81,25.81,0,0,0-1.842-5.235c-3.227-6.653-9.065-10.169-16.844-10.169a32.108,32.108,0,0,0-7.487.954,24.829,24.829,0,0,0-13.643,9.219,20.393,20.393,0,0,0-4.086,14.471l1.257,5.226a19.313,19.313,0,0,0,9.417,10.945,23.445,23.445,0,0,0,16.116,1.552,24.285,24.285,0,0,0,13.952-9.193,20.347,20.347,0,0,0,3.829-11.027A23.934,23.934,0,0,0,311.972,1153.7Zm-40.765,3.973a20.18,20.18,0,0,1,6.6-7.549,25.729,25.729,0,0,1,4.439-2.527,29.979,29.979,0,0,1,4.846-1.637,29.272,29.272,0,0,1,5.066-.709,25.7,25.7,0,0,1,5.1.278,20,20,0,0,1,9.272,3.822,28.655,28.655,0,0,0-9.45-2.212l-4.792.073a29.927,29.927,0,0,0-4.721.768A31.016,31.016,0,0,0,283,1149.4a31.6,31.6,0,0,0-4.321,2.075A28.882,28.882,0,0,0,271.206,1157.672Zm22.726,17.267c-9.657,2.323-19.135-2.648-20.569-8.613s5.231-12.684,14.889-15.006,18.65.631,20.084,6.595S303.591,1172.616,293.933,1174.938Z" transform="translate(-263.589 -1138.294)" fill="#281853"/></g></g></svg>