<svg xmlns="http://www.w3.org/2000/svg" xmlns:xlink="http://www.w3.org/1999/xlink" width="512" height="512" viewBox="0 0 512 512"><defs><style>.a{fill:#4cfc18;}.b{fill:url(#a);}.c{fill:url(#b);}.d{fill:#fff;}.e{fill:url(#c);}</style><linearGradient id="a" x1="0.31" y1="0.55" x2="0.612" y2="0.474" gradientUnits="objectBoundingBox"><stop offset="0" stop-color="#140f2b"/><stop offset="1" stop-color="#37003c"/></linearGradient><linearGradient id="b" x1="0.202" y1="0.593" x2="0.684" y2="0.452" xlink:href="#a"/><linearGradient id="c" x1="0.181" y1="0.555" x2="0.662" y2="0.272" xlink:href="#a"/></defs><g transform="translate(10535 -7404)"><rect class="a" width="512" height="512" transform="translate(-10535 7404)"/><g transform="translate(-1138.281 75.533)"><path class="b" d="M773.14,1405.354c-6.427-26.745-27.5-45.3-50.073-44.327l-2.656.126c-25.791-47.766-70.037-73.012-128.233-73.012-18.192,0-37.734,2.458-58.5,7.454-40.585,9.76-80.438,36.691-106.613,72.04-16.238,21.939-26.554,46.118-30.719,71.059l-3.545,1.288c-22.216,8.063-33.88,35.3-27.124,63.378,6.2,25.76,25.765,44.022,47.583,44.417l3.822.064c14.631,25.787,35.349,45.917,61.453,59.232,36.434,18.579,81.16,22.894,125.936,12.123,44.19-10.623,83.922-36.8,109.017-71.827a158.616,158.616,0,0,0,29.2-77.513l2.677-.917C768.055,1461.156,779.992,1433.826,773.14,1405.354ZM375.5,1500.989c-5.549-23.078,3.67-45.314,20.752-51.514a153.851,153.851,0,0,0,3.66,50.187,185.713,185.713,0,0,0,13.536,38.017C396.761,1537.379,380.644,1522.382,375.5,1500.989Zm328.467,40.4c-23.438,32.711-60.554,57.171-101.831,67.1-41.828,10.055-83.6,6.028-117.635-11.327-32.149-16.4-55.6-43.817-68.734-79.891a183.952,183.952,0,0,1-6.039-19.967,145.359,145.359,0,0,1-3.136-18.176c-4.05-36.838,6.231-73.757,29.825-105.629,24.448-33.021,61.675-58.181,99.585-67.3a234.456,234.456,0,0,1,54.647-6.961c56.777,0,99.4,25.665,122.941,74.223a188.01,188.01,0,0,1,13.457,38.216,174.737,174.737,0,0,1,4.873,49.21A148.517,148.517,0,0,1,703.966,1541.389Zm38.131-82a184.689,184.689,0,0,0-5.236-50.068,196.388,196.388,0,0,0-13.319-38.206c17.323-.819,34.45,14.431,39.782,36.608C768.923,1431.012,759.477,1453.426,742.1,1459.389Z" transform="translate(-9710.492 6128.325)"/><path class="c" d="M531.185,1486.218c70.491-16.956,115.61-80.727,105.139-124.265s-76.112-65.094-146.6-48.143-119.151,66-108.679,109.535S460.693,1503.169,531.185,1486.218ZM603.5,1339.832a10.1,10.1,0,1,1-7.458,12.178A10.1,10.1,0,0,1,603.5,1339.832Zm-182.27,85.992c13.638,22.622,55.6,39.308,102.19,28.11a10.1,10.1,0,1,1,4.721,19.63,146.818,146.818,0,0,1-34.264,4.059c-38.762,0-74.313-15.459-89.94-41.361a10.1,10.1,0,0,1,17.293-10.439Zm-26.462-25.406a10.1,10.1,0,1,1,12.179,7.458A10.1,10.1,0,0,1,394.767,1400.418Z" transform="translate(-9646.304 6208.826)"/><path class="d" d="M395.029,1343.772a10.1,10.1,0,1,0-12.179-7.458A10.1,10.1,0,0,0,395.029,1343.772Z" transform="translate(-9634.387 6272.929)"/><path class="d" d="M434.891,1334.185a10.1,10.1,0,1,0-12.178-7.46A10.1,10.1,0,0,0,434.891,1334.185Z" transform="translate(-9472.976 6234.109)"/><path class="d" d="M389.035,1331.841a10.1,10.1,0,0,0-3.428,13.865c15.627,25.9,51.178,41.362,89.94,41.362a146.712,146.712,0,0,0,34.264-4.061,10.095,10.095,0,1,0-4.722-19.629c-46.593,11.2-88.552-5.487-102.189-28.11A10.1,10.1,0,0,0,389.035,1331.841Z" transform="translate(-9627.975 6299.381)"/><path class="d" d="M693.4,1402.78a188.126,188.126,0,0,0-13.456-38.217C656.4,1316.007,613.778,1290.34,557,1290.34a234.258,234.258,0,0,0-54.647,6.964c-37.909,9.113-75.136,34.275-99.584,67.3-23.595,31.868-33.875,68.79-29.825,105.628a145.358,145.358,0,0,0,3.136,18.177,184.028,184.028,0,0,0,6.039,19.964c13.133,36.076,36.587,63.488,68.734,79.894,34.031,17.353,75.808,21.381,117.635,11.325,41.277-9.928,78.393-34.386,101.832-67.1a148.51,148.51,0,0,0,27.952-80.5A174.731,174.731,0,0,0,693.4,1402.78Zm-249.377-26.092a187.722,187.722,0,0,1,32.4-18.447A218.3,218.3,0,0,1,511.8,1346.3a213.012,213.012,0,0,1,36.98-5.176,187.644,187.644,0,0,1,37.238,2.017c24.5,3.794,48.472,12.843,67.678,27.9a209.168,209.168,0,0,0-68.976-16.152l-34.981.539a218.97,218.97,0,0,0-34.46,5.6,227.173,227.173,0,0,0-33.33,10.4,232.325,232.325,0,0,0-31.542,15.147,210.784,210.784,0,0,0-54.567,45.211C406.39,1409.787,423.8,1391.023,444.021,1376.688Zm76.243,8.723c70.491-16.948,136.13,4.6,146.6,48.145s-34.647,107.308-105.139,124.264-139.669-19.327-150.142-62.872S449.771,1402.366,520.263,1385.411Z" transform="translate(-9676.846 6137.225)"/><path class="e" d="M431.354,1345.973a231.572,231.572,0,0,1,31.542-15.148,226.659,226.659,0,0,1,33.33-10.4,218.5,218.5,0,0,1,34.46-5.6l34.981-.54a209.254,209.254,0,0,1,68.977,16.151c-19.207-15.061-43.18-24.109-67.678-27.9a187.54,187.54,0,0,0-37.238-2.02,213.348,213.348,0,0,0-36.98,5.176,217.983,217.983,0,0,0-35.379,11.945,187.521,187.521,0,0,0-32.4,18.443c-20.217,14.337-37.632,33.1-48.179,55.1A210.746,210.746,0,0,1,431.354,1345.973Z" transform="translate(-9657.792 6177.83)"/><path class="d" d="M391.8,1370.281a153.847,153.847,0,0,1-3.661-50.187c-17.082,6.2-26.3,28.436-20.752,51.517C372.533,1393,388.65,1408,405.338,1408.3A185.586,185.586,0,0,1,391.8,1370.281Z" transform="translate(-9702.383 6257.703)"/><path class="d" d="M435.026,1304.6a196.376,196.376,0,0,1,13.32,38.207,184.7,184.7,0,0,1,5.236,50.067c17.379-5.962,26.826-28.375,21.226-51.668C469.477,1319.031,452.35,1303.781,435.026,1304.6Z" transform="translate(-9421.977 6194.838)"/></g></g></svg>