<svg xmlns="http://www.w3.org/2000/svg" xmlns:xlink="http://www.w3.org/1999/xlink" width="115.234" height="114.178" viewBox="0 0 115.234 114.178"><defs><style>.a{fill:#fff;}.b{fill:#e7d6ea;}.c{fill:#37003c;}.d{fill:#ff2882;}.e{fill:url(#a);}</style><linearGradient id="a" x1="1.615" y1="-4.008" x2="2.063" y2="-4.151" gradientUnits="objectBoundingBox"><stop offset="0" stop-color="#210036"/><stop offset="1" stop-color="#37003c"/></linearGradient></defs><g transform="translate(0)"><path class="a" d="M-1259.142,411.372c1.325,3.054,4.866,10.623,6.159,13.162.181,3.556-1.171,6.242-1.143,8.472.033,2.576,1.561,3.889,4.019,4.339,3.423.627,10.258.277,11.839-3.6,1.1-2.687-2.573-7.465-3.058-9.947-.262-1.343.224-3.1.384-4.43.264-2.2.562-4.392.879-6.582.854-5.9-.9-11.715-.723-17.624a34.028,34.028,0,0,1,.513-6.042,8.774,8.774,0,0,1,3.249,1.518c1.209.771,2.812,2.169,4.026,2.93a68.24,68.24,0,0,0,7.706,4.3c2.99,1.374,8.114,3.859,11.352,1.885,4.108-2.5,3.4-6.28.4-9.473-1.776-1.894-5.713-1.768-7.178-2.821s-2.41-2.612-3.6-3.936a14.765,14.765,0,0,0-3.716-2.841c-2.646-1.52-5.6-2.672-7.707-4.97-1.041-1.138-2.444-2.384-4.134-2l-34.082.613-3.525,3.021a30.113,30.113,0,0,1-6.563,2.98s-10.556,5.076-11.06,5.58,1.023,11.889,1.023,11.889l6.239-1.6,11.28-4.742,2.446-.322-.621,3.879-2.831,12.844-.972,7.789-.7,10.293s0,1.007,1.51,2.014,7.379,2.441,9.984.717,4.162-10.056,4.162-10.056Z" transform="translate(1314.704 -327.059)"/><path class="b" d="M-1287.314,403.269c-.508,1.138-.131.014-.177-.676a8.541,8.541,0,0,0-.321-1.737c-.086-.314-.655-1.332-.751-1.751a4,4,0,0,1-3.566-4.3,28.855,28.855,0,0,0-2.971,1.61c-.5.5,1.023,11.889,1.023,11.889l6.239-1.6.244-.1A4.783,4.783,0,0,1-1287.314,403.269Z" transform="translate(1314.704 -337.566)"/><path class="b" d="M-1193.017,390.278c-1.776-1.894-5.713-1.768-7.178-2.821s-2.41-2.612-3.6-3.936a14.765,14.765,0,0,0-3.716-2.841c-2.646-1.52-5.6-2.673-7.707-4.97-1.041-1.138-2.443-2.384-4.134-2l-27.44.493a4.4,4.4,0,0,1,.329.7c3.733-.528,6.41,5.123,2.51,7.433a8.6,8.6,0,0,0-4.652,7.209c-.35,3.574-.114,7.157-.659,10.723a17.3,17.3,0,0,1-2,5.42c-.748,2.536-1.752,5.046-2.171,7.291a6.321,6.321,0,0,0,.167,3.847c.814,1.607,1.947,2.367,1.889,4.379a16.776,16.776,0,0,1-2.492,7.9c2.282.479,5.064.6,6.645-.448,2.6-1.724,4.162-10.056,4.162-10.056l4.441-7.238c1.325,3.054,4.866,10.623,6.16,13.162.181,3.556-1.171,6.242-1.143,8.472.033,2.576,1.562,3.889,4.019,4.339,3.423.627,10.258.277,11.839-3.6,1.1-2.687-2.573-7.465-3.058-9.947-.262-1.343.224-3.1.384-4.43.264-2.2.562-4.392.879-6.582.854-5.9-.9-11.715-.723-17.624a34.062,34.062,0,0,1,.513-6.042,8.774,8.774,0,0,1,3.249,1.518c1.209.771,2.812,2.169,4.027,2.93a68.237,68.237,0,0,0,7.706,4.3c2.99,1.374,8.114,3.859,11.352,1.885C-1189.31,397.245-1190.023,393.47-1193.017,390.278Zm-27.473-11.8c-2.485,4.476-7.845,7.012-12.947,7.329-.278,1.663-.6,3.319-.847,4.987-.247,1.693-.379,3.6-1.422,5.032-.451.616-1.489.018-1.034-.6a7.5,7.5,0,0,0,1.132-3.475.464.464,0,0,1-.355-.417,11.77,11.77,0,0,1,.176-3.306,7.227,7.227,0,0,0,.065-2.226c-.083-.006-.167-.007-.249-.014-1.351-.121-1.359-2.242,0-2.121a16.113,16.113,0,0,0,3.679-.112c2.576-1.125,5.136-2.286,7.721-3.388a10.467,10.467,0,0,0,2.251-2.756C-1221.658,376.217-1219.827,377.288-1220.49,378.482Z" transform="translate(1294.182 -327.059)"/><g transform="translate(19.39 47.506)"><path class="b" d="M-1272.3,484.5s-1.539,2.179,1.322,4.273,10.955,4.828,13.173,1.742,1.122-9.493,1.122-9.493-8.008,1.985-11.343-3.533Z" transform="translate(1284.149 -426.126)"/><g transform="translate(0 11.389)"><path class="c" d="M-1287.946,409.093a.806.806,0,0,1-.125-.01.756.756,0,0,1-.622-.869c.548-3.305.124-5.7-1.259-7.121a5.933,5.933,0,0,0-4.612-1.453.756.756,0,0,1-.852-.645.756.756,0,0,1,.645-.852,7.431,7.431,0,0,1,5.9,1.9c1.736,1.783,2.3,4.617,1.667,8.422A.756.756,0,0,1-1287.946,409.093Z" transform="translate(1295.422 -398.097)"/></g><g transform="translate(2.488 15.482)"><path class="c" d="M-1270.4,457.415c-3.569,0-10.758-1.469-11.858-6.217-.524-2.263,1.286-4.825,2.885-7.086a15.526,15.526,0,0,0,1.752-2.824,9.1,9.1,0,0,0,.257-2.9c0-.433-.009-.85.007-1.231.08-2,.139-4.168.178-6.614a40.8,40.8,0,0,1,1.89-10.2,53.454,53.454,0,0,0,1.634-7.2l.052-.395a39.534,39.534,0,0,0,.414-4.388,13.3,13.3,0,0,0-1.974.735l-.088.038c-.6.261-1.362.67-2.094,1.066-.805.436-1.638.886-2.355,1.189a102.683,102.683,0,0,1-10.243,3.638l-.539-1.94a100.485,100.485,0,0,0,10-3.553c.629-.266,1.419-.693,2.183-1.107s1.567-.847,2.253-1.143l.087-.038a9.544,9.544,0,0,1,3.774-1.027l.941.013.051.94a32.522,32.522,0,0,1-.41,5.838l-.051.393a55,55,0,0,1-1.69,7.477,38.708,38.708,0,0,0-1.818,9.694c-.039,2.463-.1,4.642-.179,6.662-.013.349-.009.732,0,1.129a10.44,10.44,0,0,1-.381,3.613,16.416,16.416,0,0,1-2,3.291c-1.286,1.82-2.888,4.086-2.567,5.469.793,3.425,6.971,4.725,10.113,4.655,2.22-.048,3.356-.914,3.686-2.811a13.031,13.031,0,0,0,0-2.912,19.617,19.617,0,0,1,.223-5.671l.045-.21.126-.173a30.942,30.942,0,0,0,2.548-5.723,38.221,38.221,0,0,1,2.72-6.167c.1-.155.266-.456.477-.832,1.546-2.761,2.382-4.039,3.253-4.312l.6,1.922a.443.443,0,0,0,.114-.051,19.957,19.957,0,0,0-2.211,3.425c-.236.421-.426.759-.538.933a37.291,37.291,0,0,0-2.534,5.8,33.752,33.752,0,0,1-2.674,6.008,18.442,18.442,0,0,0-.143,4.921,14.552,14.552,0,0,1-.028,3.391c-.348,2-1.606,4.393-5.628,4.479Z" transform="translate(1290.48 -406.225)"/></g><g transform="translate(1.275)"><path class="c" d="M-1291.991,388.114l-.9-1.8a12.238,12.238,0,0,0,2.671-2.036c.423-.386.86-.786,1.323-1.161a15.386,15.386,0,0,1,4.4-2.373c.731-.277,1.481-.528,2.208-.771a18.863,18.863,0,0,0,5.923-2.758c.833-.66,3.047-2.413,5.4-1.459l-.756,1.867c-.889-.359-1.906-.011-3.4,1.17a20.669,20.669,0,0,1-6.535,3.089c-.708.237-1.44.482-2.134.745a13.517,13.517,0,0,0-3.843,2.055c-.416.336-.812.7-1.232,1.082A13.934,13.934,0,0,1-1291.991,388.114Z" transform="translate(1292.891 -375.477)"/></g><g transform="translate(11.783 56.546)"><path class="c" d="M-1261.166,495.344a21.173,21.173,0,0,1-6.473-1.194c-5.294-1.948-4.315-6.326-4.3-6.37l1.469.351-.735-.176.736.17c-.029.127-.65,3.133,3.354,4.606.071.026,7.162,2.583,10.064-.146l1.035,1.1A7.38,7.38,0,0,1-1261.166,495.344Z" transform="translate(1272.021 -487.78)"/></g><g transform="translate(15.192 51.082)"><path class="c" d="M-1257.457,481.548a11.62,11.62,0,0,1-7.589-3.345.756.756,0,0,1,.033-1.068.755.755,0,0,1,1.067.032c.209.22,5.061,5.223,10.778,1.519a.754.754,0,0,1,1.044.223.755.755,0,0,1-.223,1.045A9.269,9.269,0,0,1-1257.457,481.548Z" transform="translate(1265.251 -476.929)"/></g><path class="c" d="M-1251.55,402.9a11.939,11.939,0,0,1-1.1,1.987,6.6,6.6,0,0,1-.77.937,3.7,3.7,0,0,1-1.157.811l-.243.1a1.084,1.084,0,0,1-1.424-.567,1.084,1.084,0,0,1,.568-1.424,1.077,1.077,0,0,1,.626-.07,1.806,1.806,0,0,0,.8-.112,5.287,5.287,0,0,0,.922-.417A11.448,11.448,0,0,0-1251.55,402.9Z" transform="translate(1276.015 -389.093)"/><path class="c" d="M-1254.33,455.311a6.912,6.912,0,0,0,1.773,2.892,10.667,10.667,0,0,0,1.323,1.043l.744.484a8.346,8.346,0,0,1,.788.5,6.33,6.33,0,0,1-.956-.037,7.079,7.079,0,0,1-.93-.241,4.845,4.845,0,0,1-1.668-1.028,4.144,4.144,0,0,1-1.054-1.685A3.034,3.034,0,0,1-1254.33,455.311Z" transform="translate(1275.094 -415.114)"/><g transform="translate(3.885 2.602)"><path class="c" d="M-1287.2,391.281a.5.5,0,0,1-.392-.188.5.5,0,0,1,.076-.708,27.244,27.244,0,0,1,5.829-3.674,21.179,21.179,0,0,1,3.389-1.059,19.544,19.544,0,0,0,3.325-1.047,9.05,9.05,0,0,0,2.025-1.62c1.3-1.229,2.772-2.622,4.319-2.291a.5.5,0,0,1,.387.6.5.5,0,0,1-.6.387c-1.03-.223-2.3.979-3.417,2.038a9.569,9.569,0,0,1-2.3,1.806,20.539,20.539,0,0,1-3.494,1.106,20.163,20.163,0,0,0-3.23,1,26.236,26.236,0,0,0-5.6,3.536A.5.5,0,0,1-1287.2,391.281Z" transform="translate(1287.706 -380.646)"/></g><g transform="translate(16.152 49.408)"><path class="c" d="M-1255.651,477.978a10.9,10.9,0,0,1-7.574-3.546.5.5,0,0,1,.06-.709.5.5,0,0,1,.709.059c.188.223,4.683,5.407,10.9,2.1a.5.5,0,0,1,.681.208.5.5,0,0,1-.209.681A9.65,9.65,0,0,1-1255.651,477.978Z" transform="translate(1263.344 -473.604)"/></g></g><path class="b" d="M-1197.553,481.841s1.173,2.4-1.985,4.008-11.583,3.025-13.283-.375.4-9.551.4-9.551,7.59,3.234,11.76-1.684Z" transform="translate(1274.131 -377.005)"/><g transform="translate(40 30.437)"><path class="b" d="M-1254.209,358.19c-1.672-8.2,4.2-13.99,14.891-16.169,8.283-1.689,19.175,1.418,20.856,9.662,1.77,8.686-5.837,14.829-14.792,16.654C-1242.153,370.152-1252.366,367.228-1254.209,358.19Z" transform="translate(1254.49 -341.577)"/></g><g transform="translate(43.714 30.074)"><path class="a" d="M-1246.864,355.617c-1.485-7.286,3.733-12.43,13.23-14.366,7.359-1.5,17.037,1.26,18.53,8.585,1.573,7.717-5.187,13.175-13.142,14.8C-1236.151,366.244-1245.227,363.647-1246.864,355.617Z" transform="translate(1247.114 -340.857)"/></g><g transform="translate(40 30.437)"><path class="c" d="M-1234.793,341.577v2.014h0c6.081,0,13.167,2.658,14.357,8.495a9.625,9.625,0,0,1-2.837,9.086,20.27,20.27,0,0,1-10.384,5.193,23.348,23.348,0,0,1-4.648.471c-5.843,0-12.571-2.377-13.931-9.047a9.144,9.144,0,0,1,2.3-8.557c2.292-2.423,6.1-4.234,11.02-5.237a20.71,20.71,0,0,1,4.122-.4v-2.014m0,0a22.743,22.743,0,0,0-4.524.444c-10.69,2.179-16.562,7.969-14.891,16.169,1.5,7.354,8.539,10.659,15.9,10.659a25.4,25.4,0,0,0,5.05-.512c8.954-1.825,16.563-7.969,14.792-16.654-1.387-6.8-9.043-10.107-16.332-10.106Z" transform="translate(1254.49 -341.577)"/></g><g transform="translate(36.219 45.575)"><path class="c" d="M-1230.673,437.6a17.915,17.915,0,0,1-3.131-.257c-3.957-.724-4.818-3.29-4.844-5.317a14.542,14.542,0,0,1,.512-3.352,18.468,18.468,0,0,0,.641-4.871c-1.376-2.73-4.764-9.977-6.087-13.022a1.007,1.007,0,0,1,.523-1.325,1.006,1.006,0,0,1,1.325.523c1.315,3.03,4.869,10.625,6.133,13.106a1.009,1.009,0,0,1,.109.406,19.626,19.626,0,0,1-.681,5.634,13.007,13.007,0,0,0-.461,2.876c.025,1.924,1.009,2.961,3.192,3.361,3.084.564,9.4.268,10.725-2.988.536-1.315-.684-3.807-1.665-5.808a16.48,16.48,0,0,1-1.449-3.566,10.457,10.457,0,0,1,.2-3.627c.067-.391.132-.768.174-1.115.241-2,.529-4.164.882-6.607a38.688,38.688,0,0,0-.253-9.86,55.009,55.009,0,0,1-.479-7.65l.011-.393a32.528,32.528,0,0,1,.524-5.832,1,1,0,0,1,1.131-.782,9.4,9.4,0,0,1,3.561,1.614l.082.052c.629.4,1.347.953,2.042,1.487s1.4,1.076,1.979,1.439a67.822,67.822,0,0,0,7.592,4.235l.316.145c2.776,1.279,7.422,3.421,10.091,1.795a4.387,4.387,0,0,0,2.352-3.052c.2-1.447-.571-3.178-2.161-4.872-.838-.894-2.487-1.273-3.942-1.607a8.927,8.927,0,0,1-3.09-1.085,13.95,13.95,0,0,1-2.715-2.818c-.353-.445-.686-.865-1.043-1.263a13.516,13.516,0,0,0-3.468-2.641c-.644-.37-1.327-.728-1.988-1.074a20.658,20.658,0,0,1-5.96-4.089c-1.283-1.4-2.231-1.908-3.167-1.7a1.02,1.02,0,0,1-.207.025l-33.72.606-3.249,2.785a1.008,1.008,0,0,1-1.42-.109,1.008,1.008,0,0,1,.109-1.42l3.525-3.021a1.01,1.01,0,0,1,.637-.242l33.986-.611c2.425-.481,4.286,1.55,4.992,2.323a18.888,18.888,0,0,0,5.41,3.665c.678.355,1.378.723,2.056,1.111a15.412,15.412,0,0,1,3.964,3.043c.4.443.766.907,1.122,1.356a12.215,12.215,0,0,0,2.313,2.434,8.216,8.216,0,0,0,2.366.757c1.734.4,3.7.851,4.959,2.193,2.042,2.177,2.971,4.432,2.687,6.521a6.269,6.269,0,0,1-3.3,4.5c-3.585,2.187-8.842-.237-11.983-1.685l-.313-.144a69.687,69.687,0,0,1-7.821-4.358c-.66-.414-1.411-.991-2.136-1.549-.66-.507-1.341-1.031-1.9-1.385l-.082-.052a13.242,13.242,0,0,0-1.831-1.038,39.4,39.4,0,0,0-.29,4.4l-.012.4a53.487,53.487,0,0,0,.468,7.37,40.794,40.794,0,0,1,.245,10.368c-.351,2.426-.637,4.571-.876,6.558-.045.379-.116.79-.189,1.216a9.116,9.116,0,0,0-.207,2.9,15.612,15.612,0,0,0,1.281,3.066c1.218,2.486,2.6,5.3,1.722,7.455C-1222.275,436.625-1226.982,437.6-1230.673,437.6Z" transform="translate(1262 -371.642)"/></g><g transform="translate(90.571 52.893)"><path class="b" d="M-1130.562,398.311s-8.33-.267-7.359-2.1,2.788-7.091-.634-7.936c-4.637-1.145-5.594,7.954-5.594,7.954a29.009,29.009,0,0,0-5.13-.229c-1.1.247-4.985,7.586-1.068,10.628s10.634,3.144,10.634,3.144" transform="translate(1153.063 -387.167)"/><path class="c" d="M-1140.705,409.785h-.016c-.288,0-7.1-.145-11.236-3.356-1.853-1.439-2.509-3.865-1.848-6.832.463-2.077,1.908-5.257,3.312-5.573a20.4,20.4,0,0,1,4.49.105c.31-1.859,1.2-5.662,3.446-7.238a3.885,3.885,0,0,1,3.251-.588,3.379,3.379,0,0,1,2.37,1.935c.97,2.167-.1,5.437-.925,7.129a21.319,21.319,0,0,0,6.339.946,1.007,1.007,0,0,1,.974,1.039,1.015,1.015,0,0,1-1.039.974c-6.217-.2-7.807-1.37-8.2-2.05a1.549,1.549,0,0,1-.014-1.53c.781-1.475,1.648-4.3,1.029-5.686a1.361,1.361,0,0,0-1.015-.8,1.847,1.847,0,0,0-1.61.28c-1.789,1.253-2.586,5.335-2.742,6.8a1.009,1.009,0,0,1-.373.681,1,1,0,0,1-.747.214,29.9,29.9,0,0,0-4.682-.266,10.034,10.034,0,0,0-2.1,5.617,3.743,3.743,0,0,0,1.318,3.252c3.609,2.8,9.968,2.932,10.032,2.932a1.007,1.007,0,0,1,.992,1.023A1.008,1.008,0,0,1-1140.705,409.785Z" transform="translate(1154.055 -386.176)"/><g transform="translate(7.437 6.779)"><path class="b" d="M2.37,0H10.6A2.191,2.191,0,0,1,12.8,2.191V13.533a2.332,2.332,0,0,1-2.332,2.332l-7.518-.2c-1.3,0-2.946-.848-2.946-2.147V2.37A2.37,2.37,0,0,1,2.37,0Z" transform="matrix(0.947, 0.322, -0.322, 0.947, 5.114, 0)"/><path class="c" d="M-1129.574,419.071a5.731,5.731,0,0,1-1.85-.32h0l-2.71-.923a6.8,6.8,0,0,1-3.761-2.985,5.752,5.752,0,0,1-.415-4.77l1.737-5.1a6.5,6.5,0,0,1,8.244-4.055l2.711.923c3.23,1.1,4.426,3.909,3.2,7.513l-1.736,5.1C-1125.162,417.4-1127.187,419.071-1129.574,419.071Zm-1.2-2.227c2.972,1.011,4.284-1.788,4.71-3.04l1.737-5.1c.87-2.555.217-4.223-1.941-4.958l-2.711-.923a4.488,4.488,0,0,0-5.688,2.8l-1.736,5.1a3.715,3.715,0,0,0,.258,3.121,4.789,4.789,0,0,0,2.661,2.078Z" transform="translate(1138.965 -400.101)"/></g><g transform="translate(2.603 8.81)"><path class="c" d="M-1147.8,415.066a.5.5,0,0,1-.47-.322,10.942,10.942,0,0,1,2.144-10.908.5.5,0,0,1,.712-.031.5.5,0,0,1,.031.711c-4,4.373-1.968,9.81-1.948,9.865a.5.5,0,0,1-.288.651A.5.5,0,0,1-1147.8,415.066Z" transform="translate(1148.886 -403.672)"/></g></g><g transform="translate(60.194 103.025)"><path class="c" d="M-1206.9,491.694c-2.6,0-5.816-.493-7.48-2.652l1.2-.922c2.021,2.623,7.84,2.148,9.913,1.744,4.234-.826,4.047-3.977,4.044-4.008l1.506-.113c0,.045.275,4.524-5.262,5.6A22.356,22.356,0,0,1-1206.9,491.694Z" transform="translate(1214.384 -485.742)"/></g><g transform="translate(60.966 96.719)"><path class="c" d="M-1206.389,477.033a9.054,9.054,0,0,1-6.213-2.5.755.755,0,0,1-.054-1.067.755.755,0,0,1,1.067-.054c5.059,4.57,10.647.394,10.883.215a.756.756,0,0,1,1.058.14.756.756,0,0,1-.138,1.058A12.089,12.089,0,0,1-1206.389,477.033Z" transform="translate(1212.852 -473.217)"/></g><path class="c" d="M-1190.634,398.654a2.859,2.859,0,0,0,.7.7,8.26,8.26,0,0,0,.822.543,16.171,16.171,0,0,0,1.766.869,1.041,1.041,0,0,1,.546,1.367,1.041,1.041,0,0,1-1.367.546,1.036,1.036,0,0,1-.4-.306l-.012-.016a17.5,17.5,0,0,1-1.244-1.749,8.991,8.991,0,0,1-.506-.945A3.074,3.074,0,0,1-1190.634,398.654Z" transform="translate(1262.786 -339.478)"/><path class="c" d="M-1198.867,450.874a3.04,3.04,0,0,1-.326,1.9,4.15,4.15,0,0,1-1.309,1.5,4.861,4.861,0,0,1-1.81.75,7.091,7.091,0,0,1-.957.09,6.49,6.49,0,0,1-.95-.116,8.271,8.271,0,0,1,.858-.37l.812-.359a10.594,10.594,0,0,0,1.472-.82A6.918,6.918,0,0,0-1198.867,450.874Z" transform="translate(1269.531 -365.405)"/><g transform="translate(54.84 56.224)"><path class="c" d="M-1224.514,422.276a.5.5,0,0,1-.189-.037.5.5,0,0,1-.277-.656,13.141,13.141,0,0,0,1.055-4.594,10.948,10.948,0,0,0-.277-1.6,6.956,6.956,0,0,1-.2-2.995,22.309,22.309,0,0,1,.618-2.381,21.821,21.821,0,0,0,.587-2.247l.171-.916c.832-4.421,1.774-9.433.16-13.366a.5.5,0,0,1,.275-.657.5.5,0,0,1,.657.275c1.728,4.208.756,9.376-.1,13.935l-.171.913a22.6,22.6,0,0,1-.613,2.352,21.557,21.557,0,0,0-.592,2.273,5.982,5.982,0,0,0,.191,2.591,11.761,11.761,0,0,1,.3,1.741,13.84,13.84,0,0,1-1.126,5.051A.5.5,0,0,1-1224.514,422.276Z" transform="translate(1225.018 -392.792)"/></g><g transform="translate(44.456 59.86)"><ellipse class="d" cx="3.776" cy="3.776" rx="3.776" ry="3.776" transform="translate(0.504 0.506)"/><path class="c" d="M-1241.36,408.576a4.287,4.287,0,0,1-4.161-3.275,4.286,4.286,0,0,1,3.155-5.166,4.251,4.251,0,0,1,3.236.509,4.252,4.252,0,0,1,1.929,2.647,4.285,4.285,0,0,1-3.156,5.166A4.284,4.284,0,0,1-1241.36,408.576Zm.005-7.554a3.278,3.278,0,0,0-.774.093,3.277,3.277,0,0,0-2.413,3.949,3.276,3.276,0,0,0,3.95,2.413,3.277,3.277,0,0,0,2.413-3.95,3.251,3.251,0,0,0-1.475-2.025A3.254,3.254,0,0,0-1241.354,401.022Z" transform="translate(1245.64 -400.014)"/></g><path class="a" d="M-1240.441,405.627c.7-.132,1.04.642,1.251,1.239.173.494.355,1.065.44,1.258a3.111,3.111,0,0,0-.021-1.147,1.456,1.456,0,0,0-.6-.994.115.115,0,0,1-.063-.074c-.029-.154.281-.586.73-.671.6-.114,1.207.1,1.394,1.089A2.433,2.433,0,0,1-1238.83,409a1.294,1.294,0,0,1-1.2-.569,8.278,8.278,0,0,1-.852-1.455,1.974,1.974,0,0,0-.484-.65C-1241.4,406.144-1241.056,405.743-1240.441,405.627Z" transform="translate(1287.974 -342.733)"/><path class="c" d="M-1223.217,425.548a8.049,8.049,0,0,1-.508.941l-.3.452c-.105.145-.226.279-.339.419a8.753,8.753,0,0,1-1.586,1.469,10.309,10.309,0,0,1-1.879,1.079,10.187,10.187,0,0,1-2.072.672l.023-.464a6.487,6.487,0,0,0,1.209.188,10.4,10.4,0,0,0,1.254.031c.42-.02.84-.058,1.261-.107s.838-.131,1.26-.2a10.475,10.475,0,0,1-1.225.392,9.087,9.087,0,0,1-1.271.238,10.733,10.733,0,0,1-1.3.074,6.726,6.726,0,0,1-1.32-.151.235.235,0,0,1-.177-.282.235.235,0,0,1,.177-.177l.022,0a11.707,11.707,0,0,0,1.959-.659,12.528,12.528,0,0,0,1.83-.986,9.591,9.591,0,0,0,1.627-1.3A10.847,10.847,0,0,0-1223.217,425.548Z" transform="translate(1282.424 -352.831)"/><g transform="translate(73.989 48.05)"><path class="c" d="M-1167.768,391.781a.5.5,0,0,1-.375-.166,52.828,52.828,0,0,0-6.977-6.192,20.12,20.12,0,0,0-3.03-1.506,20.542,20.542,0,0,1-3.273-1.647,9.57,9.57,0,0,1-1.985-2.149c-.936-1.223-1.979-2.6-3.049-2.555a.5.5,0,0,1-.528-.477.5.5,0,0,1,.477-.528c1.573-.079,2.813,1.529,3.9,2.949a9.044,9.044,0,0,0,1.742,1.921,19.454,19.454,0,0,0,3.115,1.562,21.188,21.188,0,0,1,3.178,1.585,53.144,53.144,0,0,1,7.179,6.363.5.5,0,0,1-.037.711A.5.5,0,0,1-1167.768,391.781Z" transform="translate(1186.986 -376.557)"/></g><g transform="translate(60.944 95.209)"><path class="c" d="M-1206.969,473.512a9.321,9.321,0,0,1-5.726-2.025.5.5,0,0,1-.1-.705.5.5,0,0,1,.706-.1c5.629,4.26,11.042-.3,11.1-.343a.5.5,0,0,1,.71.053.5.5,0,0,1-.053.71A11.273,11.273,0,0,1-1206.969,473.512Z" transform="translate(1212.894 -470.219)"/></g><g transform="translate(25.688 0)"><g transform="translate(47.563 8.566)"><path class="a" d="M-1178.589,316.569c-3.046,0-6.042-2.453-7.285-5.965a9.5,9.5,0,0,1-.164-6.125,6.129,6.129,0,0,1,3.719-4.019,5.565,5.565,0,0,1,1.862-.318c3.046,0,6.042,2.452,7.285,5.964,1.541,4.353-.054,8.9-3.556,10.144A5.566,5.566,0,0,1-1178.589,316.569Z" transform="translate(1187.467 -299.134)"/><path class="c" d="M-1181.441,300.155c2.573,0,5.2,2.1,6.336,5.293,1.358,3.836.041,7.8-2.943,8.859a4.555,4.555,0,0,1-1.526.261c-2.573,0-5.2-2.1-6.336-5.293-1.359-3.836-.041-7.8,2.943-8.859a4.566,4.566,0,0,1,1.526-.261m0-2.014h0a6.585,6.585,0,0,0-2.2.376c-4.026,1.425-5.9,6.553-4.169,11.43,1.405,3.969,4.715,6.635,8.235,6.635a6.572,6.572,0,0,0,2.2-.376c4.026-1.425,5.9-6.553,4.169-11.43-1.405-3.969-4.714-6.635-8.234-6.635Z" transform="translate(1188.451 -298.141)"/></g><ellipse class="b" cx="5.731" cy="7.368" rx="5.731" ry="7.368" transform="matrix(0.943, -0.334, 0.334, 0.943, 47.646, 12.754)"/><ellipse class="a" cx="4.445" cy="5.716" rx="4.445" ry="5.716" transform="matrix(0.943, -0.334, 0.334, 0.943, 49.526, 15.338)"/><g transform="translate(0 25.889)"><path class="a" d="M-1271.72,349.637c-3.266,1.157-7.119-1.31-8.606-5.509s-.045-8.541,3.221-9.7" transform="translate(1281.92 -333.481)"/><path class="c" d="M-1274.394,350a7.114,7.114,0,0,1-3.833-1.193,10.308,10.308,0,0,1-4.042-5.275,10.311,10.311,0,0,1-.178-6.643,6.616,6.616,0,0,1,4.013-4.339l.672,1.9a4.649,4.649,0,0,0-2.773,3.076,8.287,8.287,0,0,0,.165,5.336,8.286,8.286,0,0,0,3.23,4.251,4.649,4.649,0,0,0,4.091.645l.672,1.9A6.023,6.023,0,0,1-1274.394,350Z" transform="translate(1282.915 -332.545)"/></g><path class="b" d="M-1238.724,332.591c-12.636,4.474-27.436.827-32.944-14.73-5.229-14.767,5.426-28.85,17.113-32.988,15.084-5.341,27.436-.827,32.637,13.861C-1216.186,314.923-1226.168,328.145-1238.724,332.591Z" transform="translate(1278.009 -281.913)"/><path class="a" d="M-1242.2,335.991c-11.265,3.989-24.459.737-29.37-13.133-4.662-13.166,4.837-25.72,15.257-29.41,13.447-4.762,24.46-.738,29.1,12.358C-1222.1,320.239-1231,332.027-1242.2,335.991Z" transform="translate(1277.885 -286.287)"/><path class="e" d="M-1219.057,318.135c2.424,6.845-3.775,17.89-14.857,21.815s-22.85-.759-25.274-7.6,4.6-15.576,15.677-19.5S-1221.48,311.289-1219.057,318.135Z" transform="translate(1271.372 -295.935)"/><ellipse class="a" cx="1.637" cy="1.637" rx="1.637" ry="1.637" transform="translate(44.63 19.22)"/><g transform="translate(16.393 36.112)"><path class="a" d="M-1237.9,359.5c-5.134,0-9.8-1.786-12.255-5.035a1.007,1.007,0,0,1,.2-1.411,1.007,1.007,0,0,1,1.411.2c2.719,3.6,10.071,5.71,17.668,3.021a1.006,1.006,0,0,1,1.285.613,1.007,1.007,0,0,1-.613,1.285A23.166,23.166,0,0,1-1237.9,359.5Z" transform="translate(1250.357 -352.848)"/></g><g transform="translate(8.983 10.862)"><path class="b" d="M-1264.068,320.62a1.006,1.006,0,0,1-.455-.109,1.008,1.008,0,0,1-.443-1.353c3.4-6.708,9.177-11.544,17.175-14.376,8.234-2.916,16.906-2.76,23.792.427a1.007,1.007,0,0,1,.491,1.336,1.008,1.008,0,0,1-1.337.491c-6.413-2.968-14.532-3.1-22.274-.356-7.493,2.653-12.893,7.158-16.05,13.388A1.008,1.008,0,0,1-1264.068,320.62Z" transform="translate(1265.074 -302.701)"/></g><path class="c" d="M-1265.209,318.7a25.252,25.252,0,0,1,7.07-9.413,31.471,31.471,0,0,1,4.9-3.416,35.663,35.663,0,0,1,5.444-2.469,34.742,34.742,0,0,1,5.8-1.464,31.44,31.44,0,0,1,5.961-.375,25.049,25.049,0,0,1,11.387,2.988,31.226,31.226,0,0,0-11.394-1.809,35.633,35.633,0,0,0-5.71.605,35.274,35.274,0,0,0-5.543,1.48,36.473,36.473,0,0,0-5.258,2.3,35.75,35.75,0,0,0-4.847,3.08A31.481,31.481,0,0,0-1265.209,318.7Z" transform="translate(1274.124 -291.265)"/><path class="c" d="M-1243.713,283.142c9.475,0,16.342,5.247,19.857,15.174,2.538,7.169,2.039,14.194-1.444,20.316a27.531,27.531,0,0,1-14.65,12.006,29.081,29.081,0,0,1-9.718,1.715c-10.24,0-18.136-5.711-21.662-15.669a22.741,22.741,0,0,1,2.117-19.41,28.152,28.152,0,0,1,14.293-12.015,33.827,33.827,0,0,1,11.207-2.116h0m0-2.014a35.8,35.8,0,0,0-11.878,2.231c-12.045,4.265-23.026,18.777-17.637,34,4.2,11.869,13.653,17.011,23.561,17.011a31.258,31.258,0,0,0,10.39-1.831c12.94-4.582,23.228-18.208,17.32-34.892-3.914-11.054-11.757-16.516-21.757-16.516Z" transform="translate(1278.805 -281.128)"/><g transform="translate(14.07 29.01)"><path class="a" d="M-1254.088,342.7a.755.755,0,0,1-.7-.476,2.546,2.546,0,0,1,1.424-3.3,2.547,2.547,0,0,1,3.3,1.425.756.756,0,0,1-.423.981.754.754,0,0,1-.981-.423,1.034,1.034,0,0,0-1.341-.579,1.034,1.034,0,0,0-.579,1.341.756.756,0,0,1-.423.981A.751.751,0,0,1-1254.088,342.7Z" transform="translate(1254.97 -338.743)"/></g></g><g transform="translate(4.175 50.078)"><path class="b" d="M-1309.386,403.405a6.537,6.537,0,0,1-2.358-.459,7.046,7.046,0,0,1-.838-.389,18.935,18.935,0,0,1-3.688-2.9c-.5-.465-.971-.9-1.45-1.306l-.111-.093c-1.806-1.516-4.053-3.4-5.22-5.631-1.959-3.743,1.43-6.372,3.059-7.635,1.083-.841,3.1-2.405,5.058-2.405a3.313,3.313,0,0,1,1.79.5,12,12,0,0,1,2.88,2.994,2.673,2.673,0,0,1,1.146-1.336,2.715,2.715,0,0,1,1.264-.317c.959,0,2.627.52,3.017,4a16.8,16.8,0,0,1-.05,2.842,12.039,12.039,0,0,0,.046,3.4c.087.3.213.624.347.966a5.283,5.283,0,0,1,.441,3.752A5.583,5.583,0,0,1-1309.386,403.405Z" transform="translate(1324.649 -381.578)"/><path class="c" d="M-1315.925,382.6a2.315,2.315,0,0,1,1.254.35c2.11,1.324,4.628,5.926,4.628,5.926s-1.322-3.214.443-4.253a1.723,1.723,0,0,1,.754-.178c.715,0,1.723.491,2.017,3.11.192,1.709-.449,4.753.029,6.4.378,1.309,1.3,2.707.8,4.1a4.609,4.609,0,0,1-4.384,3.343,5.537,5.537,0,0,1-1.994-.391,6.07,6.07,0,0,1-.719-.334c-1.834-1-3.376-2.754-4.973-4.095-1.786-1.5-3.989-3.324-5.086-5.42-1.444-2.761.723-4.773,2.785-6.373,1.169-.907,2.9-2.193,4.44-2.194m0-2.014h0c-2.3,0-4.5,1.7-5.675,2.617-1.554,1.205-5.684,4.409-3.335,8.9,1.259,2.407,3.592,4.364,5.466,5.937l.109.092c.459.385.922.816,1.411,1.271a19.634,19.634,0,0,0,3.893,3.049,8.11,8.11,0,0,0,.956.444,7.54,7.54,0,0,0,2.72.527,6.632,6.632,0,0,0,6.283-4.689,6.174,6.174,0,0,0-.452-4.452c-.125-.32-.243-.622-.318-.879a12.073,12.073,0,0,1-.008-3.047,17.524,17.524,0,0,0,.046-3.024c-.5-4.421-2.976-4.9-4.018-4.9a3.736,3.736,0,0,0-1.721.425l-.055.031a3.775,3.775,0,0,0-.677.508,10.465,10.465,0,0,0-2.3-2.15,4.306,4.306,0,0,0-2.325-.658Z" transform="translate(1325.641 -380.585)"/></g><path class="c" d="M-1310.065,401.505a3.282,3.282,0,0,1,.5-1.531,4.012,4.012,0,0,1,1.121-1.2,3.409,3.409,0,0,1,1.549-.612,2.841,2.841,0,0,1,1.607.236c-.517.2-.978.313-1.4.528a6.775,6.775,0,0,0-1.181.673A20.141,20.141,0,0,0-1310.065,401.505Z" transform="translate(1322.083 -339.22)"/><path class="c" d="M-1297.244,412.468a2.557,2.557,0,0,1-1.205-.352,3.029,3.029,0,0,1-.954-.834,2.52,2.52,0,0,1-.493-1.234,1.675,1.675,0,0,1,.4-1.243,5.416,5.416,0,0,0,.369,1.05,7.386,7.386,0,0,0,.533.827C-1298.2,411.228-1297.71,411.744-1297.244,412.468Z" transform="translate(1317.036 -344.518)"/><path class="c" d="M-1330.144,382.271a21.39,21.39,0,0,0-1.768,3.9,11.368,11.368,0,0,0-.423,1.9,7.7,7.7,0,0,0-.078,1.874,12.7,12.7,0,0,0,.826,3.8c.463,1.293,1.093,2.593,1.706,4.035l.01.023a.073.073,0,0,1-.039.1.074.074,0,0,1-.081-.017,15.808,15.808,0,0,1-2.657-3.579,11.611,11.611,0,0,1-.873-2.066,9.924,9.924,0,0,1-.4-2.214,8.957,8.957,0,0,1,.925-4.367,10.4,10.4,0,0,1,2.759-3.5.073.073,0,0,1,.1.01.073.073,0,0,1,.007.081Z" transform="translate(1333.933 -331.277)"/></g></svg>