<svg xmlns="http://www.w3.org/2000/svg" width="40" height="40" viewBox="0 0 40 40"><g transform="translate(-1568 -1412)"><rect width="40" height="40" rx="20" transform="translate(1568 1412)" fill="#281853"/><g transform="translate(1578 1422)"><path d="M14.481,0H5.519A5.526,5.526,0,0,0,0,5.519v8.961A5.525,5.525,0,0,0,5.519,20h8.961A5.526,5.526,0,0,0,20,14.481V5.519A5.525,5.525,0,0,0,14.481,0Zm3.745,14.481a3.749,3.749,0,0,1-3.745,3.745H5.519a3.749,3.749,0,0,1-3.745-3.745V5.519A3.749,3.749,0,0,1,5.519,1.774h8.961a3.749,3.749,0,0,1,3.745,3.745v8.961Z" fill="#fff"/><path d="M46.365,40.97a5.4,5.4,0,1,0,5.4,5.4A5.4,5.4,0,0,0,46.365,40.97Zm0,8.936A3.539,3.539,0,1,1,49.9,46.367,3.543,3.543,0,0,1,46.365,49.906Z" transform="translate(-36.365 -36.367)" fill="#fff"/><path d="M120.157,28.251a1.235,1.235,0,1,0,.874.362A1.241,1.241,0,0,0,120.157,28.251Z" transform="translate(-104.747 -24.884)" fill="#fff"/></g></g></svg>