<svg xmlns="http://www.w3.org/2000/svg" width="231.904" height="27.07" viewBox="0 0 231.904 27.07"><g transform="translate(-191.117 -1120.473)"><path d="M196.92,1136.206c3.981,0,5.061,4.622,5.6,8.131.439,2.9.843,6.242,1.113,7.389a17.506,17.506,0,0,0,1.08-6.343,8.164,8.164,0,0,0-2.294-6.106.633.633,0,0,1-.27-.473c0-.877,2.159-2.936,4.724-2.936,3.441,0,6.546,1.788,6.546,7.457,0,6.781-6.275,13.125-11.134,13.125-2.6,0-4.656-1.923-6.006-4.386a46.25,46.25,0,0,1-3.171-8.907,11.069,11.069,0,0,0-1.991-4.082C191.117,1138.061,193.411,1136.206,196.92,1136.206Z" transform="translate(0 -9.04)" fill="#fff"/><path d="M346.348,1157.167c-3.206,0-6.546-1.889-6.546-5.5v-8.772a2.922,2.922,0,0,0-.877-2.294,1.043,1.043,0,0,1-.3-.776c0-1.653,2.125-2.868,4.42-2.868,2.632,0,4.521.776,5.635,2.564v10.459c0,1.485.573,2.362,1.485,2.362a1.274,1.274,0,0,0,.911-.4v-9.953c0-1.35-.54-1.889-.978-2.092a.977.977,0,0,1-.3-.675c0-1.215,1.586-2.294,3.408-2.294,3.037,0,6.748.776,6.748,2.7V1151.5a3.514,3.514,0,0,0,.742,2.294,1.078,1.078,0,0,1,.1.473c0,1.687-2.4,2.9-4.892,2.9a4.66,4.66,0,0,1-3.88-2.092A7.571,7.571,0,0,1,346.348,1157.167Z" transform="translate(-100.311 -9.757)" fill="#fff"/><path d="M423.781,1149.238c2.024,0,4.319,1.114,4.319,3.172,0,2.5-2.429,4.757-7.726,4.757-5.871,0-10.358-3.711-10.358-9.818,0-5.736,3.88-10.426,10.155-10.426,5.635,0,8.233,2.8,8.233,5.2a3.82,3.82,0,0,1-3.846,4.015,7.509,7.509,0,0,1-2.9-.608,14.014,14.014,0,0,0,.27-2.867c0-1.147-.607-1.89-1.282-1.89-.945,0-1.755,2.126-1.755,5.4,0,4.42.877,7.187,1.923,7.187.709,0,1.113-.911,1.113-1.957a8.107,8.107,0,0,0-.135-1.687A4.033,4.033,0,0,1,423.781,1149.238Z" transform="translate(-148.862 -9.757)" fill="#fff"/><path d="M469.055,1127.99a6.107,6.107,0,0,0-1.451-4.066c0-1.748,2.227-2.925,5.23-2.925a10.6,10.6,0,0,1,5.938,2.033,12.436,12.436,0,0,0-.844,5.386,8.756,8.756,0,0,1,5.567-2.1c2.564,0,5.7,2.176,5.7,5.243v9.559c0,2.889.506,3.959.506,5.385a.558.558,0,0,1-.473.535,25.085,25.085,0,0,1-8.637.036c-.2-.071-.439-.214-.439-.428,0-.606.2-1.891.2-4.173V1134.3c0-1.534-.574-2.675-1.485-2.675a2.339,2.339,0,0,0-.945.214v11.877c0,1.32.2,2.318.2,2.746a.5.5,0,0,1-.4.535,15.79,15.79,0,0,1-4.353.428,17.97,17.97,0,0,1-4.15-.393.67.67,0,0,1-.573-.642c0-.606.4-1.641.4-2.5Z" transform="translate(-188.025 -0.358)" fill="#fff"/><path d="M558.7,1146.708c0,1.046-2.092,1.687-4.69,1.687a36.089,36.089,0,0,1-5.5-.439c.135,3.712,1.147,6.208,2.227,6.208.742,0,1.012-.743,1.012-1.653a5.992,5.992,0,0,0-.236-1.586,3.166,3.166,0,0,1,1.991-.607,4.922,4.922,0,0,1,4.352,3.239c-1.35,2.261-4.083,3.61-8.4,3.61-5.837,0-9.919-3.239-9.919-9.683,0-6.174,4.116-10.561,10.358-10.561C555.156,1136.923,558.7,1139.318,558.7,1146.708Zm-10.291-.776a7.646,7.646,0,0,0,2.767-.439c0-3.407-.607-5.4-1.417-5.4C548.88,1140.094,548.407,1142.625,548.407,1145.931Z" transform="translate(-236.941 -9.757)" fill="#fff"/><path d="M601.365,1144.312a3.571,3.571,0,0,0-1.822-3.239.634.634,0,0,1-.068-.27c0-1.991,2.4-3.239,4.791-3.239a3.916,3.916,0,0,1,3.947,2.632,5.329,5.329,0,0,1,4.757-3.273c2.125,0,3.34,1.113,3.34,2.936a3.977,3.977,0,0,1-2.126,3.88,2.3,2.3,0,0,0-2.058-1.046,2.168,2.168,0,0,0-1.89,2.26v7.322c0,1.215.439,2.936.439,3.509a.983.983,0,0,1-.54.844,28.474,28.474,0,0,1-4.42.2,15.271,15.271,0,0,1-4.319-.4.821.821,0,0,1-.337-.742c0-.574.3-2.6.3-4.184Z" transform="translate(-277.705 -9.757)" fill="#fff"/><path d="M670.058,1136.923a5.935,5.935,0,0,1,6.208,5.736v8.738a28.119,28.119,0,0,0,.337,4.15.878.878,0,0,1-.438.877,15.547,15.547,0,0,1-4.42.4,17.949,17.949,0,0,1-4.015-.371.608.608,0,0,1-.472-.641c0-.573.135-1.957.135-2.531v-8.2c0-1.451-.54-2.632-1.62-2.632a1.386,1.386,0,0,0-.877.3v8.4c0,2.058.3,3.813.3,4.487a1.082,1.082,0,0,1-.641.81,16.051,16.051,0,0,1-4.217.371,17.678,17.678,0,0,1-3.88-.337c-.439-.135-.709-.337-.709-.776a28.307,28.307,0,0,0,.27-2.834v-9.751a3.684,3.684,0,0,0-1.113-2.8c0-1.248,2.564-2.733,4.656-2.733a4.712,4.712,0,0,1,4.42,2.261A7.032,7.032,0,0,1,670.058,1136.923Z" transform="translate(-315.402 -9.757)" fill="#ff2882"/><path d="M745.751,1144.245v7.152a3.614,3.614,0,0,0,.81,2.666.676.676,0,0,1,.27.574c0,1.755-3,2.531-4.217,2.531-2.7,0-3.745-.81-4.555-2.159-.877,1.384-3.475,2.159-6.242,2.159-3.374,0-6.073-1.249-6.073-4.049,0-2.733,2.024-4.15,4.15-4.859a20.937,20.937,0,0,1,6.984-1.181c0-4.791-.776-6.984-1.687-6.984-.843,0-1.248.81-1.248,2.4a6.32,6.32,0,0,0,.608,2.835,7.673,7.673,0,0,1-4.69,1.417c-1.822,0-3.273-1.215-3.273-3.644,0-3.914,4.859-6.175,10.055-6.175C741.769,1136.923,745.751,1138.981,745.751,1144.245Zm-10.29,9.717c.54,0,1.214-.843,1.417-1.62v-3.307a2.822,2.822,0,0,0-2.564,2.632C734.313,1153.152,734.819,1153.961,735.46,1153.961Z" transform="translate(-363.573 -9.757)" fill="#ff2882"/><path d="M800.265,1157.167c-3.205,0-6.546-1.889-6.546-5.5v-8.772a2.921,2.921,0,0,0-.877-2.294,1.043,1.043,0,0,1-.3-.776c0-1.653,2.126-2.868,4.42-2.868,2.632,0,4.521.776,5.634,2.564v10.459c0,1.485.574,2.362,1.485,2.362a1.274,1.274,0,0,0,.911-.4v-9.953c0-1.35-.54-1.889-.978-2.092a.977.977,0,0,1-.3-.675c0-1.215,1.586-2.294,3.408-2.294,3.037,0,6.748.776,6.748,2.7V1151.5a3.514,3.514,0,0,0,.742,2.294,1.078,1.078,0,0,1,.1.473c0,1.687-2.4,2.9-4.892,2.9a4.659,4.659,0,0,1-3.88-2.092A7.572,7.572,0,0,1,800.265,1157.167Z" transform="translate(-408.998 -9.757)" fill="#ff2882"/><path d="M873.8,1141.815c0,.855.472,1.318,1.113,1.318a5.991,5.991,0,0,0,3.34-1.318c.3.143.506.962.506,1.39,0,2.351-3.711,4.2-8.1,4.2-4.555,0-5.736-2.85-5.736-6.057v-9.05c0-.748-.27-1.282-.675-1.282h-2.632c0-1.034.2-4.525,1.552-4.525l1.754.57c0-1.39-.473-3.456-.473-4.133,0-1.425,2.868-2.458,4.656-2.458,2.53,0,5.128,1.568,5.128,2.458a35.866,35.866,0,0,0-.439,3.813H879c0,2.138-1.518,4.739-2.9,4.739l-2.294-.713Z" transform="translate(-455.978 0)" fill="#ff2882"/><g transform="translate(213.682 1127.604)"><path d="M279.227,1173.071a.64.64,0,1,0-.772-.473A.64.64,0,0,0,279.227,1173.071Z" transform="translate(-273.064 -1161.086)" fill="#fff"/><path d="M319.09,1163.484a.64.64,0,1,0-.772-.473A.64.64,0,0,0,319.09,1163.484Z" transform="translate(-300.173 -1154.566)" fill="#fff"/><path d="M287.684,1180.432c-2.952.71-5.611-.348-6.475-1.781a.64.64,0,1,0-1.1.661c.99,1.641,3.243,2.621,5.7,2.621a9.306,9.306,0,0,0,2.172-.257.64.64,0,0,0-.3-1.244Z" transform="translate(-274.141 -1165.528)" fill="#fff"/><path d="M263.062,1168.048a2.7,2.7,0,0,0-1.315,3.265,2.8,2.8,0,0,0,2.4,2.324,11.759,11.759,0,0,1-.858-2.409A9.751,9.751,0,0,1,263.062,1168.048Z" transform="translate(-261.645 -1158.528)" fill="#fff"/><path d="M268.321,1175.073a11.676,11.676,0,0,0,.383,1.266l-.581-2.417A9.252,9.252,0,0,0,268.321,1175.073Z" transform="translate(-266.05 -1162.522)" fill="#fff"/><path d="M333.417,1154.845a2.745,2.745,0,0,0-2.521-2.319,12.435,12.435,0,0,1,.844,2.421,11.714,11.714,0,0,1,.332,3.172A2.681,2.681,0,0,0,333.417,1154.845Z" transform="translate(-308.739 -1147.971)" fill="#fff"/><path d="M288.312,1145.419a11.935,11.935,0,0,0-.852-2.421,8.112,8.112,0,0,0-7.791-4.7,14.856,14.856,0,0,0-3.463.441A11.483,11.483,0,0,0,269.9,1143a9.432,9.432,0,0,0-1.89,6.693l.581,2.417a8.931,8.931,0,0,0,4.355,5.062,10.846,10.846,0,0,0,7.454.718,11.233,11.233,0,0,0,6.453-4.252,9.412,9.412,0,0,0,1.771-5.1A11.074,11.074,0,0,0,288.312,1145.419Zm-18.855,1.838a9.331,9.331,0,0,1,3.053-3.492,11.911,11.911,0,0,1,2.053-1.169,13.846,13.846,0,0,1,2.242-.757,13.52,13.52,0,0,1,2.343-.328,11.9,11.9,0,0,1,2.36.128,9.253,9.253,0,0,1,4.289,1.768,13.257,13.257,0,0,0-4.371-1.023l-2.217.034a13.85,13.85,0,0,0-2.184.355,14.371,14.371,0,0,0-2.112.659,14.625,14.625,0,0,0-2,.96A13.358,13.358,0,0,0,269.457,1147.257Zm10.512,7.986c-4.467,1.074-8.85-1.225-9.514-3.984s2.42-5.867,6.887-6.941,8.626.292,9.29,3.05S284.436,1154.169,279.969,1155.243Z" transform="translate(-265.934 -1138.294)" fill="#fff"/></g></g></svg>