<svg xmlns="http://www.w3.org/2000/svg" xmlns:xlink="http://www.w3.org/1999/xlink" width="1317.635" height="1325.271" viewBox="0 0 1317.635 1325.271"><defs><style>.a{fill:url(#a);}.b{fill:url(#b);}.c{fill:url(#c);}.d{fill:url(#d);}.e{fill:url(#e);}.f{fill:url(#f);}.g{fill:url(#g);}.h{fill:url(#h);}.i{fill:url(#i);}.j{fill:url(#j);}.k{fill:url(#k);}.l{fill:url(#l);}.m{fill:url(#m);}.n{fill:url(#n);}.o{fill:url(#o);}.p{fill:url(#p);}.q{fill:url(#q);}.r{fill:url(#r);}.s{fill:url(#s);}.t{fill:url(#t);}.u{fill:url(#u);}.v{fill:url(#v);}.w{fill:url(#w);}.x{fill:url(#x);}.y{fill:url(#y);}.z{fill:url(#z);}.aa{fill:url(#aa);}.ab{fill:url(#ab);}.ac{fill:url(#ac);}.ad{fill:url(#ad);}.ae{fill:url(#ae);}.af{fill:url(#af);}.ag{fill:url(#ag);}.ah{fill:url(#ah);}.ai{fill:url(#ai);}.aj{fill:url(#aj);}.ak{fill:url(#ak);}.al{fill:url(#al);}.am{fill:url(#am);}.an{fill:url(#an);}.ao{fill:url(#ao);}.ap{fill:url(#ap);}.aq{fill:url(#aq);}.ar{fill:url(#ar);}.as{fill:url(#as);}.at{fill:url(#at);}.au{fill:url(#au);}.av{fill:url(#av);}.aw{fill:url(#aw);}.ax{fill:url(#ax);}.ay{fill:url(#ay);}.az{fill:url(#az);}.ba{fill:url(#ba);}.bb{fill:url(#bb);}.bc{fill:url(#bc);}.bd{fill:url(#bd);}.be{fill:url(#be);}.bf{fill:url(#bf);}.bg{fill:url(#bg);}.bh{fill:url(#bh);}.bi{fill:url(#bi);}.bj{fill:url(#bj);}.bk{fill:url(#bk);}.bl{fill:url(#bl);}.bm{fill:url(#bm);}.bn{fill:url(#bn);}.bo{fill:url(#bo);}.bp{fill:url(#bp);}.bq{fill:url(#bq);}.br{fill:url(#br);}.bs,.bu,.by,.cd,.ck{opacity:0.15;}.bs{fill:url(#bs);}.bt{fill:url(#bt);}.bu{fill:url(#bu);}.bv,.bw,.bz,.ca,.cb,.cf{opacity:0.1;}.bv{fill:url(#bv);}.bw{fill:url(#bw);}.bx{fill:url(#bx);}.by{fill:url(#by);}.bz{fill:url(#bz);}.ca{fill:url(#ca);}.cb{fill:url(#cb);}.cc{fill:url(#cc);}.cd{fill:url(#cd);}.ce{fill:url(#ce);}.cf{fill:url(#cf);}.cg,.ch,.ci{opacity:0.5;}.cg{fill:url(#cg);}.ch{fill:url(#ch);}.ci{fill:url(#ci);}.cj{fill:url(#cj);}.ck{fill:url(#ck);}.cl{opacity:0.3;}.cm{fill:url(#cl);}</style><radialGradient id="a" cx="273.668" cy="221.168" r="14.168" gradientUnits="userSpaceOnUse"><stop offset="0" stop-color="#fff" stop-opacity="0.855"/><stop offset="0.751" stop-color="#fff" stop-opacity="0"/></radialGradient><radialGradient id="b" cx="377.126" cy="259.626" r="10.626" xlink:href="#a"/><radialGradient id="c" cx="662.001" cy="191.501" r="8.5" xlink:href="#a"/><radialGradient id="d" cx="571.376" cy="469.876" r="14.876" xlink:href="#a"/><radialGradient id="e" cx="339.709" cy="668.209" r="9.209" xlink:href="#a"/><radialGradient id="f" cx="126.001" cy="685.501" r="8.501" xlink:href="#a"/><radialGradient id="g" cx="828.542" cy="619.042" r="12.042" xlink:href="#a"/><radialGradient id="h" cx="941.126" cy="727.626" r="10.625" xlink:href="#a"/><radialGradient id="i" cx="1152.793" cy="483.293" r="16.292" xlink:href="#a"/><radialGradient id="j" cx="1224.001" cy="669.501" r="8.501" xlink:href="#a"/><radialGradient id="k" cx="1057.959" cy="900.459" r="13.459" xlink:href="#a"/><radialGradient id="l" cx="844.793" cy="957.293" r="16.293" xlink:href="#a"/><radialGradient id="m" cx="205.959" cy="1222.459" r="13.459" xlink:href="#a"/><radialGradient id="n" cx="570.251" cy="1295.751" r="12.751" xlink:href="#a"/><radialGradient id="o" cx="817.167" cy="1276.667" r="5.667" xlink:href="#a"/><radialGradient id="p" cx="1296.834" cy="1022.334" r="11.334" xlink:href="#a"/><radialGradient id="q" cx="1452.875" cy="1023.375" r="6.375" xlink:href="#a"/><radialGradient id="r" cx="1600.209" cy="948.709" r="17.708" xlink:href="#a"/><radialGradient id="s" cx="1580.292" cy="1114.792" r="7.792" xlink:href="#a"/><radialGradient id="t" cx="1077.959" cy="1084.459" r="13.459" xlink:href="#a"/><radialGradient id="u" cx="1123.459" cy="1113.959" r="4.959" xlink:href="#a"/><radialGradient id="v" cx="1499.126" cy="285.626" r="10.625" xlink:href="#a"/><radialGradient id="w" cx="1570.292" cy="370.792" r="7.792" xlink:href="#a"/><radialGradient id="x" cx="1337.167" cy="318.667" r="5.666" xlink:href="#a"/><radialGradient id="y" cx="1377.376" cy="73.876" r="14.876" xlink:href="#a"/><radialGradient id="z" cx="1531.709" cy="116.209" r="9.209" xlink:href="#a"/><radialGradient id="aa" cx="957.75" cy="85.25" r="4.25" xlink:href="#a"/><radialGradient id="ab" cx="834.001" cy="137.501" r="8.5" xlink:href="#a"/><radialGradient id="ac" cx="486.001" cy="117.501" r="8.501" xlink:href="#a"/><radialGradient id="ad" cx="140.834" cy="88.334" r="11.334" xlink:href="#a"/><radialGradient id="ae" cx="95.167" cy="226.667" r="5.667" xlink:href="#a"/><radialGradient id="af" cx="182.875" cy="301.375" r="6.376" xlink:href="#a"/><radialGradient id="ag" cx="465.459" cy="389.959" r="4.958" xlink:href="#a"/><radialGradient id="ah" cx="704.875" cy="335.375" r="6.376" xlink:href="#a"/><radialGradient id="ai" cx="440.584" cy="632.084" r="7.084" xlink:href="#a"/><radialGradient id="aj" cx="642.875" cy="591.375" r="6.375" xlink:href="#a"/><radialGradient id="ak" cx="616.001" cy="679.501" r="8.501" xlink:href="#a"/><radialGradient id="al" cx="245.75" cy="721.25" r="4.25" xlink:href="#a"/><radialGradient id="am" cx="791.96" cy="769.25" r="4.25" xlink:href="#a"/><radialGradient id="an" cx="875.75" cy="885.25" r="4.25" xlink:href="#a"/><radialGradient id="ao" cx="277.75" cy="857.25" r="4.25" xlink:href="#a"/><radialGradient id="ap" cx="71.75" cy="964.021" r="4.25" xlink:href="#a"/><radialGradient id="aq" cx="201.75" cy="1041.25" r="4.25" xlink:href="#a"/><radialGradient id="ar" cx="1007.75" cy="659.25" r="4.25" xlink:href="#a"/><radialGradient id="as" cx="1179.75" cy="826.051" r="4.25" xlink:href="#a"/><radialGradient id="at" cx="1089.75" cy="775.25" r="4.251" xlink:href="#a"/><radialGradient id="au" cx="1191.75" cy="605.25" r="4.25" xlink:href="#a"/><radialGradient id="av" cx="1413.75" cy="453.944" r="4.25" xlink:href="#a"/><radialGradient id="aw" cx="1315.75" cy="405.046" r="4.25" xlink:href="#a"/><radialGradient id="ax" cx="1210.334" cy="529.025" r="4.25" xlink:href="#a"/><radialGradient id="ay" cx="997.75" cy="523.025" r="4.25" xlink:href="#a"/><radialGradient id="az" cx="1159.668" cy="372.863" r="4.25" xlink:href="#a"/><radialGradient id="ba" cx="1061.75" cy="181.25" r="4.25" xlink:href="#a"/><radialGradient id="bb" cx="1285.75" cy="99.25" r="4.25" xlink:href="#a"/><radialGradient id="bc" cx="1397.75" cy="202.136" r="4.25" xlink:href="#a"/><radialGradient id="bd" cx="617.75" cy="107.25" r="4.25" xlink:href="#a"/><radialGradient id="be" cx="550.573" cy="219.25" r="4.25" xlink:href="#a"/><radialGradient id="bf" cx="643.75" cy="327.25" r="4.25" xlink:href="#a"/><radialGradient id="bg" cx="150.875" cy="627.375" r="6.375" xlink:href="#a"/><radialGradient id="bh" cx="130.875" cy="1125.375" r="6.375" xlink:href="#a"/><radialGradient id="bi" cx="345.709" cy="1226.209" r="9.209" xlink:href="#a"/><radialGradient id="bj" cx="402.584" cy="1292.084" r="7.084" xlink:href="#a"/><radialGradient id="bk" cx="498.875" cy="1245.375" r="6.375" xlink:href="#a"/><radialGradient id="bl" cx="771.778" cy="1214.375" r="6.375" xlink:href="#a"/><radialGradient id="bm" cx="952.875" cy="1178.375" r="6.375" xlink:href="#a"/><radialGradient id="bn" cx="984.875" cy="1254.375" r="6.375" xlink:href="#a"/><radialGradient id="bo" cx="903.658" cy="1316.375" r="6.375" xlink:href="#a"/><radialGradient id="bp" cx="1455.354" cy="1134.375" r="6.374" xlink:href="#a"/><radialGradient id="bq" cx="1558.875" cy="1245.375" r="6.375" xlink:href="#a"/><linearGradient id="br" x1="-0.028" y1="1.646" x2="0.679" y2="0.939" gradientUnits="objectBoundingBox"><stop offset="0" stop-color="#db65f3"/><stop offset="1" stop-color="#751fcf"/></linearGradient><linearGradient id="bs" x1="-0.031" y1="1.243" x2="0.557" y2="1.917" gradientUnits="objectBoundingBox"><stop offset="0.249" stop-color="#fff" stop-opacity="0"/><stop offset="1" stop-color="#fff" stop-opacity="0.855"/></linearGradient><linearGradient id="bt" x1="-1.127" y1="0.253" x2="-0.42" y2="-0.453" gradientUnits="objectBoundingBox"><stop offset="0" stop-color="#00d9b3"/><stop offset="1" stop-color="#751fcf"/></linearGradient><linearGradient id="bu" x1="-1.306" y1="-0.6" x2="-0.716" y2="0.074" xlink:href="#bs"/><radialGradient id="bv" cx="1171.586" cy="1329.427" r="331.298" gradientTransform="translate(0.091 0.091)" gradientUnits="userSpaceOnUse"><stop offset="0.706" stop-color="#ffdabb" stop-opacity="0"/><stop offset="1" stop-color="#ffdabb" stop-opacity="0.651"/></radialGradient><radialGradient id="bw" cx="1196.354" cy="1354.577" r="278.823" gradientTransform="translate(0.029 0.029)" xlink:href="#bv"/><linearGradient id="bx" x1="0.449" y1="0.608" x2="1.156" y2="-0.099" gradientUnits="objectBoundingBox"><stop offset="0" stop-color="#ffdabb"/><stop offset="1" stop-color="#751fcf"/></linearGradient><linearGradient id="by" x1="0.519" y1="-0.131" x2="1.108" y2="0.543" xlink:href="#bs"/><radialGradient id="bz" cx="838.673" cy="265.104" r="211.485" gradientTransform="translate(0.056 0.057)" gradientUnits="userSpaceOnUse"><stop offset="0.678" stop-color="#ff9000" stop-opacity="0"/><stop offset="1" stop-color="#ff9000" stop-opacity="0.651"/></radialGradient><radialGradient id="ca" cx="856.403" cy="280.362" r="176.493" gradientTransform="matrix(1, 0, 0, 1, 0, 0)" xlink:href="#bz"/><radialGradient id="cb" cx="874.08" cy="295.978" r="141.498" gradientTransform="translate(-0.033 -0.033)" xlink:href="#bz"/><linearGradient id="cc" x1="-0.174" y1="0.823" x2="0.533" y2="0.116" gradientUnits="objectBoundingBox"><stop offset="0" stop-color="#be6b74"/><stop offset="1" stop-color="#50158e"/></linearGradient><linearGradient id="cd" x1="-0.201" y1="0.153" x2="0.388" y2="0.827" xlink:href="#bs"/><linearGradient id="ce" x1="0.109" y1="0.374" x2="0.816" y2="-0.333" gradientUnits="objectBoundingBox"><stop offset="0" stop-color="#60bdff"/><stop offset="1" stop-color="#50158e"/></linearGradient><linearGradient id="cf" x1="0.126" y1="-0.441" x2="0.715" y2="0.234" xlink:href="#bs"/><radialGradient id="cg" cx="439.648" cy="846.911" r="273.567" gradientTransform="translate(0.028 0.028)" gradientUnits="userSpaceOnUse"><stop offset="0.684" stop-color="#552b6d" stop-opacity="0"/><stop offset="1" stop-color="#552b6d" stop-opacity="0.651"/></radialGradient><radialGradient id="ch" cx="453.88" cy="859.836" r="238.665" gradientTransform="translate(0.075 0.074)" xlink:href="#cg"/><radialGradient id="ci" cx="468.975" cy="875.33" r="203.694" gradientTransform="translate(0.051 0.051)" xlink:href="#cg"/><linearGradient id="cj" x1="0.322" y1="0.999" x2="1.029" y2="0.292" gradientUnits="objectBoundingBox"><stop offset="0" stop-color="#552b6d"/><stop offset="1" stop-color="#2b1b73"/></linearGradient><linearGradient id="ck" x1="0.372" y1="0.386" x2="0.961" y2="1.06" xlink:href="#bs"/><linearGradient id="cl" x1="0.591" y1="0.464" x2="0.591" y2="1.01" gradientUnits="objectBoundingBox"><stop offset="0" stop-color="#fff" stop-opacity="0"/><stop offset="1" stop-color="#fff"/></linearGradient></defs><g transform="translate(10626.308 -8335.576)"><g transform="translate(-10490.299 8447.769)"><path class="a" d="M278.7,216.138,273.668,207l-5.03,9.138-9.138,5.029,9.138,5.03,5.03,9.138L278.7,226.2l9.138-5.03Z" transform="translate(-259.5 -207)"/></g><g transform="translate(-10414.502 8477.521)"><path class="b" d="M380.88,255.871,377.126,249l-3.754,6.871-6.871,3.754,6.871,3.754,3.754,6.871,3.754-6.871,6.871-3.754Z" transform="translate(-366.5 -249)"/></g><g transform="translate(-10211.196 8430.768)"><path class="c" d="M664.976,188.525,662,183l-2.975,5.525L653.5,191.5l5.525,2.975L662,200l2.975-5.525L670.5,191.5Z" transform="translate(-653.5 -183)"/></g><g transform="translate(-10279.909 8623.447)"><path class="d" d="M576.618,464.634,571.376,455l-5.242,9.634-9.634,5.242,9.634,5.242,5.242,9.634,5.242-9.634,9.634-5.242Z" transform="translate(-556.5 -455)"/></g><g transform="translate(-10440.003 8767.956)"><path class="e" d="M342.967,664.95,339.709,659l-3.259,5.95-5.95,3.259,5.95,3.259,3.259,5.95,3.259-5.95,5.95-3.259Z" transform="translate(-330.5 -659)"/></g><g transform="translate(-10590.889 8780.707)"><path class="f" d="M128.976,682.525,126,677l-2.975,5.525L117.5,685.5l5.525,2.975L126,694l2.975-5.525L134.5,685.5Z" transform="translate(-117.5 -677)"/></g><g transform="translate(-10095.73 8731.121)"><path class="g" d="M832.793,614.792,828.542,607l-4.25,7.792-7.792,4.25,7.792,4.25,4.25,7.792,4.25-7.792,7.792-4.25Z" transform="translate(-816.5 -607)"/></g><g transform="translate(-10014.976 8809.042)"><path class="h" d="M944.88,723.871,941.126,717l-3.754,6.871-6.871,3.754,6.871,3.754,3.754,6.871,3.754-6.871,6.871-3.754Z" transform="translate(-930.5 -717)"/></g><g transform="translate(-9869.049 8631.947)"><path class="i" d="M1158.531,477.555,1152.793,467l-5.738,10.555-10.555,5.738,10.555,5.738,5.738,10.555,5.738-10.555,10.555-5.738Z" transform="translate(-1136.5 -467)"/></g><g transform="translate(-9813.087 8769.373)"><path class="j" d="M1226.976,666.525,1224,661l-2.975,5.525L1215.5,669.5l5.525,2.975L1224,678l2.975-5.525,5.525-2.975Z" transform="translate(-1215.5 -661)"/></g><g transform="translate(-9934.22 8929.467)"><path class="k" d="M1062.705,895.713,1057.959,887l-4.746,8.713-8.713,4.746,8.713,4.746,4.746,8.713,4.746-8.713,8.713-4.746Z" transform="translate(-1044.5 -887)"/></g><g transform="translate(-10087.23 8967.72)"><path class="l" d="M850.531,951.555,844.793,941l-5.738,10.555L828.5,957.293l10.555,5.738,5.738,10.555,5.738-10.555,10.555-5.738Z" transform="translate(-828.5 -941)"/></g><g transform="translate(-10537.76 9157.565)"><path class="m" d="M210.705,1217.713,205.959,1209l-4.746,8.713-8.713,4.746,8.713,4.746,4.746,8.713,4.746-8.713,8.713-4.746Z" transform="translate(-192.5 -1209)"/></g><g transform="translate(-10279.201 9209.985)"><path class="n" d="M574.784,1291.217,570.251,1283l-4.534,8.217-8.217,4.534,8.217,4.534,4.534,8.217,4.534-8.217,8.217-4.534Z" transform="translate(-557.5 -1283)"/></g><g transform="translate(-10099.272 9201.485)"><path class="o" d="M819.151,1274.683,817.167,1271l-1.983,3.683-3.684,1.984,3.684,1.984,1.983,3.684,1.984-3.684,3.684-1.984Z" transform="translate(-811.5 -1271)"/></g><g transform="translate(-9763.5 9017.307)"><path class="p" d="M1300.872,1018.3l-4.038-7.3-4.038,7.3-7.3,4.038,7.3,4.038,4.038,7.3,4.038-7.3,7.3-4.038Z" transform="translate(-1285.5 -1011)"/></g><g transform="translate(-9649.451 9021.557)"><path class="q" d="M1455.142,1021.109l-2.267-4.109-2.267,4.109-4.109,2.267,4.109,2.267,2.267,4.109,2.267-4.109,4.109-2.267Z" transform="translate(-1446.5 -1017)"/></g><g transform="translate(-9553.111 8960.636)"><path class="r" d="M1606.443,942.476,1600.209,931l-6.234,11.476-11.476,6.234,11.476,6.234,6.234,11.476,6.234-11.476,11.476-6.234Z" transform="translate(-1582.5 -931)"/></g><g transform="translate(-9560.195 9085.311)"><path class="s" d="M1583.055,1112.03l-2.763-5.03-2.763,5.03-5.03,2.763,5.03,2.763,2.763,5.029,2.763-5.029,5.029-2.763Z" transform="translate(-1572.5 -1107)"/></g><g transform="translate(-9920.053 9059.809)"><path class="t" d="M1082.705,1079.713l-4.746-8.713-4.746,8.713-8.713,4.746,8.713,4.746,4.746,8.713,4.746-8.713,8.713-4.746Z" transform="translate(-1064.5 -1071)"/></g><g transform="translate(-9881.8 9086.728)"><path class="u" d="M1125.23,1112.188l-1.771-3.188-1.771,3.188-3.188,1.771,3.188,1.771,1.771,3.188,1.771-3.188,3.188-1.771Z" transform="translate(-1118.5 -1109)"/></g><g transform="translate(-9619.699 8495.938)"><path class="v" d="M1502.88,281.871,1499.126,275l-3.755,6.871-6.871,3.754,6.871,3.754,3.755,6.871,3.754-6.871,6.871-3.754Z" transform="translate(-1488.5 -275)"/></g><g transform="translate(-9567.279 8558.275)"><path class="w" d="M1573.055,368.029l-2.763-5.03-2.763,5.03-5.029,2.763,5.029,2.763,2.763,5.03,2.763-5.03,5.03-2.763Z" transform="translate(-1562.5 -363)"/></g><g transform="translate(-9730.915 8522.856)"><path class="x" d="M1339.151,316.684,1337.167,313l-1.983,3.684-3.684,1.983,3.684,1.983,1.983,3.684,1.984-3.684,3.683-1.983Z" transform="translate(-1331.5 -313)"/></g><g transform="translate(-9708.955 8342.929)"><path class="y" d="M1382.618,68.634,1377.376,59l-5.242,9.634-9.634,5.242,9.634,5.242,5.242,9.634,5.242-9.634,9.634-5.242Z" transform="translate(-1362.5 -59)"/></g><g transform="translate(-9595.614 8376.931)"><path class="z" d="M1534.967,112.95l-3.259-5.95-3.259,5.95-5.95,3.259,5.95,3.259,3.259,5.95,3.259-5.95,5.95-3.259Z" transform="translate(-1522.5 -107)"/></g><g transform="translate(-9998.683 8358.513)"><path class="aa" d="M959.238,83.763,957.75,81l-1.488,2.763L953.5,85.25l2.763,1.488L957.75,89.5l1.488-2.763L962,85.25Z" transform="translate(-953.5 -81)"/></g><g transform="translate(-10089.355 8392.515)"><path class="ab" d="M836.976,134.525,834,129l-2.975,5.525L825.5,137.5l5.525,2.975L834,146l2.975-5.525L842.5,137.5Z" transform="translate(-825.5 -129)"/></g><g transform="translate(-10335.871 8378.348)"><path class="ac" d="M488.976,114.525,486,109l-2.975,5.525L477.5,117.5l5.525,2.975L486,126l2.975-5.525L494.5,117.5Z" transform="translate(-477.5 -109)"/></g><g transform="translate(-10582.388 8355.679)"><path class="ad" d="M144.872,84.3,140.834,77,136.8,84.3l-7.3,4.038,7.3,4.038,4.038,7.3,4.038-7.3,7.3-4.038Z" transform="translate(-129.5 -77)"/></g><g transform="translate(-10610.723 8457.686)"><path class="ae" d="M97.151,224.684,95.167,221l-1.983,3.684L89.5,226.667l3.684,1.983,1.983,3.684,1.983-3.684,3.684-1.983Z" transform="translate(-89.5 -221)"/></g><g transform="translate(-10549.094 8510.106)"><path class="af" d="M185.142,299.109,182.875,295l-2.267,4.109-4.109,2.267,4.109,2.267,2.267,4.109,2.267-4.109,4.109-2.267Z" transform="translate(-176.5 -295)"/></g><g transform="translate(-10347.914 8573.86)"><path class="ag" d="M467.23,388.188,465.459,385l-1.771,3.188-3.188,1.771,3.188,1.771,1.771,3.188,1.771-3.188,3.188-1.771Z" transform="translate(-460.5 -385)"/></g><g transform="translate(-10179.319 8534.19)"><path class="ah" d="M707.142,333.109,704.875,329l-2.267,4.109-4.109,2.267,4.109,2.267,2.267,4.109,2.267-4.109,4.109-2.267Z" transform="translate(-698.5 -329)"/></g><g transform="translate(-10367.04 8743.871)"><path class="ai" d="M443.063,629.6l-2.479-4.6-2.479,4.6-4.6,2.479,4.6,2.479,2.479,4.6,2.479-4.6,4.6-2.479Z" transform="translate(-433.5 -625)"/></g><g transform="translate(-10223.239 8715.536)"><path class="aj" d="M645.142,589.109,642.875,585l-2.267,4.109-4.109,2.267,4.109,2.267,2.267,4.109,2.267-4.109,4.109-2.267Z" transform="translate(-636.5 -585)"/></g><g transform="translate(-10243.782 8776.457)"><path class="ak" d="M618.976,676.525,616,671l-2.975,5.525L607.5,679.5l5.525,2.975L616,688l2.975-5.525L624.5,679.5Z" transform="translate(-607.5 -671)"/></g><g transform="translate(-10503.049 8809.042)"><path class="al" d="M247.238,719.763,245.75,717l-1.488,2.763L241.5,721.25l2.763,1.488,1.488,2.763,1.488-2.763L250,721.25Z" transform="translate(-241.5 -717)"/></g><g transform="translate(-10116.132 8843.045)"><path class="am" d="M793.438,767.763,791.95,765l-1.488,2.763L787.7,769.25l2.763,1.488,1.488,2.763,1.488-2.763,2.763-1.488Z" transform="translate(-787.7 -765)"/></g><g transform="translate(-10056.77 8925.217)"><path class="an" d="M877.238,883.763,875.75,881l-1.488,2.763L871.5,885.25l2.763,1.488,1.488,2.763,1.488-2.763L880,885.25Z" transform="translate(-871.5 -881)"/></g><g transform="translate(-10480.381 8905.382)"><path class="ao" d="M279.238,855.763,277.75,853l-1.488,2.763L273.5,857.25l2.763,1.488,1.488,2.763,1.488-2.763L282,857.25Z" transform="translate(-273.5 -853)"/></g><g transform="translate(-10626.308 8981.037)"><path class="ap" d="M73.238,962.492,71.75,959.8l-1.488,2.692L67.5,964.05l2.763,1.488L71.75,968.3l1.488-2.763L76,964.05Z" transform="translate(-67.5 -959.8)"/></g><g transform="translate(-10534.218 9035.725)"><path class="aq" d="M203.238,1039.763,201.75,1037l-1.488,2.763-2.763,1.488,2.763,1.488,1.488,2.763,1.488-2.763L206,1041.25Z" transform="translate(-197.5 -1037)"/></g><g transform="translate(-9963.264 8765.123)"><path class="ar" d="M1009.238,657.763,1007.75,655l-1.488,2.763-2.763,1.488,2.763,1.488,1.488,2.763,1.488-2.763L1012,659.25Z" transform="translate(-1003.5 -655)"/></g><g transform="translate(-9841.422 8883.28)"><path class="as" d="M1181.238,824.563l-1.488-2.763-1.488,2.763-2.763,1.488,2.763,1.488,1.488,2.763,1.488-2.763L1184,826.05Z" transform="translate(-1175.5 -821.8)"/></g><g transform="translate(-9905.176 8847.295)"><path class="at" d="M1091.238,773.763,1089.75,771l-1.488,2.763-2.763,1.488,2.763,1.488,1.488,2.763,1.488-2.763L1094,775.25Z" transform="translate(-1085.5 -771)"/></g><g transform="translate(-9832.922 8726.87)"><path class="au" d="M1193.238,603.763,1191.75,601l-1.488,2.763-2.763,1.488,2.763,1.488,1.488,2.763,1.488-2.763L1196,605.25Z" transform="translate(-1187.5 -601)"/></g><g transform="translate(-9675.661 8619.692)"><path class="av" d="M1415.238,452.463l-1.488-2.763-1.488,2.763-2.763,1.488,2.763,1.488,1.488,2.763,1.488-2.763L1418,453.95Z" transform="translate(-1409.5 -449.7)"/></g><g transform="translate(-9745.082 8585.053)"><path class="aw" d="M1317.238,403.563l-1.488-2.763-1.488,2.763-2.763,1.488,2.763,1.488,1.488,2.763,1.488-2.763L1320,405.05Z" transform="translate(-1311.5 -400.8)"/></g><g transform="translate(-9819.746 8672.892)"><path class="ax" d="M1211.838,527.492l-1.488-2.692-1.488,2.692-2.763,1.558,2.763,1.488,1.488,2.763,1.488-2.763,2.763-1.488Z" transform="translate(-1206.1 -524.8)"/></g><g transform="translate(-9970.348 8668.642)"><path class="ay" d="M999.238,521.492,997.75,518.8l-1.488,2.692L993.5,523.05l2.763,1.488,1.488,2.763,1.488-2.763L1002,523.05Z" transform="translate(-993.5 -518.8)"/></g><g transform="translate(-9855.66 8562.243)"><path class="az" d="M1161.138,371.363l-1.488-2.763-1.488,2.763-2.763,1.488,2.763,1.488,1.488,2.763,1.488-2.763,2.763-1.488Z" transform="translate(-1155.4 -368.6)"/></g><g transform="translate(-9925.011 8426.518)"><path class="ba" d="M1063.238,179.763,1061.75,177l-1.488,2.763-2.763,1.488,2.763,1.488,1.488,2.763,1.488-2.763L1066,181.25Z" transform="translate(-1057.5 -177)"/></g><g transform="translate(-9766.334 8368.43)"><path class="bb" d="M1287.238,97.763,1285.75,95l-1.488,2.763L1281.5,99.25l2.763,1.488,1.488,2.763,1.488-2.763L1290,99.25Z" transform="translate(-1281.5 -95)"/></g><g transform="translate(-9686.995 8441.322)"><path class="bc" d="M1399.238,200.663l-1.488-2.763-1.488,2.763-2.763,1.488,2.763,1.488,1.488,2.763,1.488-2.763L1402,202.15Z" transform="translate(-1393.5 -197.9)"/></g><g transform="translate(-10239.531 8374.097)"><path class="bd" d="M619.238,105.763,617.75,103l-1.488,2.763L613.5,107.25l2.763,1.488,1.488,2.763,1.488-2.763L622,107.25Z" transform="translate(-613.5 -103)"/></g><g transform="translate(-10287.135 8453.436)"><path class="be" d="M552.109,217.763,550.55,215l-1.488,2.763L546.3,219.25l2.763,1.488,1.488,2.763,1.558-2.763,2.692-1.488Z" transform="translate(-546.3 -215)"/></g><g transform="translate(-10221.114 8529.94)"><path class="bf" d="M645.238,325.763,643.75,323l-1.488,2.763L639.5,327.25l2.763,1.488,1.488,2.763,1.488-2.763L648,327.25Z" transform="translate(-639.5 -323)"/></g><g transform="translate(-10571.762 8741.038)"><path class="bg" d="M153.142,625.109,150.875,621l-2.267,4.109-4.109,2.267,4.109,2.267,2.267,4.109,2.267-4.109,4.109-2.267Z" transform="translate(-144.5 -621)"/></g><g transform="translate(-10585.93 9093.812)"><path class="bh" d="M133.142,1123.109,130.875,1119l-2.267,4.109-4.109,2.267,4.109,2.267,2.267,4.109,2.267-4.109,4.109-2.267Z" transform="translate(-124.5 -1119)"/></g><g transform="translate(-10435.753 9163.232)"><path class="bi" d="M348.967,1222.95l-3.259-5.95-3.259,5.95-5.95,3.259,5.95,3.259,3.259,5.95,3.259-5.95,5.95-3.259Z" transform="translate(-336.5 -1217)"/></g><g transform="translate(-10393.959 9211.402)"><path class="bj" d="M405.063,1289.6l-2.479-4.6-2.479,4.6-4.6,2.479,4.6,2.479,2.479,4.6,2.479-4.6,4.6-2.479Z" transform="translate(-395.5 -1285)"/></g><g transform="translate(-10325.246 9178.817)"><path class="bk" d="M501.142,1243.109,498.875,1239l-2.267,4.109-4.109,2.267,4.109,2.267,2.267,4.109,2.267-4.109,4.109-2.267Z" transform="translate(-492.5 -1239)"/></g><g transform="translate(-10131.929 9156.857)"><path class="bl" d="M774.042,1212.109,771.775,1208l-2.267,4.109-4.109,2.267,4.109,2.267,2.267,4.109,2.267-4.109,4.109-2.267Z" transform="translate(-765.4 -1208)"/></g><g transform="translate(-10003.641 9131.355)"><path class="bm" d="M955.142,1176.109,952.875,1172l-2.267,4.109-4.109,2.267,4.109,2.267,2.267,4.109,2.267-4.109,4.109-2.267Z" transform="translate(-946.5 -1172)"/></g><g transform="translate(-9980.973 9185.192)"><path class="bn" d="M987.142,1252.109,984.875,1248l-2.267,4.109-4.109,2.267,4.109,2.267,2.267,4.109,2.267-4.109,4.109-2.267Z" transform="translate(-978.5 -1248)"/></g><g transform="translate(-10038.493 9229.112)"><path class="bo" d="M905.942,1314.109,903.675,1310l-2.267,4.109-4.109,2.267,4.109,2.267,2.267,4.109,2.267-4.109,4.109-2.267Z" transform="translate(-897.3 -1310)"/></g><g transform="translate(-9647.68 9100.187)"><path class="bp" d="M1457.642,1132.109l-2.267-4.109-2.267,4.109-4.109,2.267,4.109,2.267,2.267,4.109,2.267-4.109,4.109-2.267Z" transform="translate(-1449 -1128)"/></g><g transform="translate(-9574.362 9178.817)"><path class="bq" d="M1561.142,1243.109l-2.267-4.109-2.267,4.109-4.109,2.267,4.109,2.267,2.267,4.109,2.267-4.109,4.109-2.267Z" transform="translate(-1552.5 -1239)"/></g><circle class="br" cx="74.981" cy="74.981" r="74.981" transform="translate(-10451.966 8559.611)"/><path class="bs" d="M282.664,433.587a74.178,74.178,0,0,0,1.048-37.246,75.006,75.006,0,0,0-125.924,69.88,75.028,75.028,0,0,0,124.875-32.634Z" transform="translate(-10607.938 8185.002)"/><circle class="bt" cx="40.95" cy="40.95" r="40.95" transform="translate(-9780.909 8399.376)"/><path class="bu" d="M1185.5,177.522a41.043,41.043,0,0,0,.559-20.335,40.92,40.92,0,0,0-68.692,38.154,40.91,40.91,0,0,0,68.133-17.819Z" transform="translate(-10897.224 8254.068)"/><path class="bv" d="M1175.376,1665.021a331.341,331.341,0,1,1,104.75-17.051A331.791,331.791,0,0,1,1175.376,1665.021Z" transform="translate(-10815.197 7995.826)"/><path class="bw" d="M1197.978,1635.172a278.937,278.937,0,0,1-276.864-245.208,278.392,278.392,0,0,1,110.48-257.228,278.783,278.783,0,0,1,443.038,190.073,278.392,278.392,0,0,1-110.48,257.228,280.137,280.137,0,0,1-78.056,40.74A276.2,276.2,0,0,1,1197.978,1635.172Z" transform="translate(-10837.8 7973.267)"/><circle class="bx" cx="226.341" cy="226.341" r="226.341" transform="translate(-9866.232 9103.276)"/><path class="by" d="M1376.682,1330.717a225.32,225.32,0,0,0,3.214-112.437,225.624,225.624,0,0,0-97.063-56.882c-120.124-34.451-245.488,35.08-279.939,155.2a225.319,225.319,0,0,0-3.214,112.437,225.623,225.623,0,0,0,97.063,56.882C1216.937,1520.3,1342.231,1450.841,1376.682,1330.717Z" transform="translate(-10860.393 7950.683)"/><path class="bz" d="M841.352,476.773a213.8,213.8,0,0,1-58.28-8.176c-112.017-32.145-177.076-149.4-145-261.421A209.612,209.612,0,0,1,715.219,95.718,211.469,211.469,0,0,1,899.562,62.176a211.437,211.437,0,0,1,67.783,372.949A213.133,213.133,0,0,1,841.352,476.773Z" transform="translate(-10750.701 8281.576)"/><path class="ca" d="M856.423,456.863a176.6,176.6,0,0,1-48.636-6.848c-93.569-26.834-147.8-124.736-121.032-218.235a174.958,174.958,0,0,1,64.359-93.01,176.21,176.21,0,0,1,153.875-28.022,176.455,176.455,0,0,1,56.673,311.245A177.549,177.549,0,0,1,856.423,456.863Z" transform="translate(-10765.771 8266.546)"/><path class="cb" d="M871.484,436.983a142.939,142.939,0,0,1-39.063-5.521c-74.981-21.523-118.516-100-96.993-175.049A140.567,140.567,0,0,1,787,181.852a141.152,141.152,0,0,1,123.408-22.431c74.981,21.523,118.516,100,97.063,175.049A140.567,140.567,0,0,1,955.9,409.031,142.725,142.725,0,0,1,871.484,436.983Z" transform="translate(-10780.833 8251.486)"/><circle class="cc" cx="106.567" cy="106.567" r="106.567" transform="translate(-10015.985 8440.326)"/><path class="cd" d="M960.04,287.743a105.816,105.816,0,0,0,1.468-52.969,106.573,106.573,0,0,0-178.962,99.3,106.6,106.6,0,0,0,177.495-46.33Z" transform="translate(-10795.875 8236.438)"/><circle class="ce" cx="129.348" cy="129.348" r="129.348" transform="translate(-9650.094 8684.976)"/><path class="cf" d="M1522.053,655.839a128.648,128.648,0,0,0,1.817-64.22,129.354,129.354,0,0,0-217.257,120.4,129.389,129.389,0,0,0,215.44-56.183Z" transform="translate(-10953.563 8130.952)"/><g transform="translate(-10444.727 8699.161)"><path class="cg" d="M439.968,1121.32A273.453,273.453,0,1,1,603,1067.3,273.316,273.316,0,0,1,439.968,1121.32Z" transform="translate(-166.359 -574.3)"/><path class="ch" d="M454.992,1101.44A238.6,238.6,0,0,1,225.577,797.113a236.279,236.279,0,0,1,87-125.714A238.09,238.09,0,0,1,520.61,633.594,238.536,238.536,0,0,1,597.2,1054.341,239.928,239.928,0,0,1,454.992,1101.44Z" transform="translate(-181.384 -589.36)"/><path class="ci" d="M470.078,1081.59a204.674,204.674,0,0,1-56.183-7.9,203.567,203.567,0,0,1-65.408-359.043A203.347,203.347,0,0,1,526.052,682.3a203.567,203.567,0,0,1,65.408,359.043A204.543,204.543,0,0,1,470.078,1081.59Z" transform="translate(-196.47 -604.45)"/><circle class="cj" cx="168.62" cy="168.62" r="168.62" transform="translate(104.918 104.96)"/><path class="ck" d="M601.515,857.1a168.25,168.25,0,0,0,2.376-83.786,167.99,167.99,0,0,0-72.326-42.347c-89.516-25.646-182.876,26.135-208.591,115.651a168.248,168.248,0,0,0-2.376,83.786,167.989,167.989,0,0,0,72.326,42.347C482.51,998.4,575.869,946.62,601.515,857.1Z" transform="translate(-211.557 -619.512)"/></g><g class="cl" transform="translate(-10497.417 8859.774)"><path class="cm" d="M596.638,909.072c.419,2.8.7,5.66.978,8.525,69.391,29.909,111.948,58.42,107.056,75.4-8.036,28.092-142.555,14.255-300.344-31.027s-279.24-104.68-271.2-132.772c4.892-17.051,56.114-18.658,130.745-7.268,1.747-2.306,3.494-4.542,5.311-6.708-100-16.771-171-14.954-177.7,8.525-10.063,35.08,127.6,105.309,307.471,156.88s333.816,64.918,343.879,29.839C749.535,986.988,690.347,947.856,596.638,909.072Z" transform="translate(-90.958 -804.142)"/></g></g></svg>